<svg aria-hidden="true" style="position: absolute; width: 0; height: 0; overflow: hidden;" version="1.1" xmlns="http://www.w3.org/2000/svg" xmlns:xlink="http://www.w3.org/1999/xlink">
<defs>
<symbol id="lamp" viewBox="0 0 31 32">
<path fill="#818181" style="fill: var(--color1, #818181)" d="M26.075 29.109l-2.729 1.73c-0.269 0.17-0.595 0.226-0.905 0.156s-0.581-0.26-0.752-0.528l-0.348-0.55-0.237-0.343c-0.347 0.117-0.73 0.073-1.109-0.193s-0.75-0.812-1.063-1.324c-0.195-0.321-0.385-0.64-0.578-0.958-0.090-0.149-0.119-0.328-0.079-0.498s0.145-0.317 0.292-0.41l4.403-2.791c0.254-0.161 0.467-0.276 0.642-0.407 0.708-0.529 1.078-0.453 1.647 0.446 0.316 0.5 0.443 0.691 0.729 1.21 0.359 0.652 0.269 1.104 0.036 1.656-0.028 0.061-0.043 0.127-0.043 0.194l0.563 0.89c0.165 0.262 0.222 0.577 0.161 0.88s-0.236 0.571-0.489 0.749l-0.143 0.091 0.003-0.001z"></path>
<path fill="#c3c3c3" style="fill: var(--color2, #c3c3c3)" d="M19.647 26.824l0.138 0.218 0.003 0.002c0.131 0.212 0.183 0.303 0.229 0.383 0.055 0.095 0.1 0.174 0.26 0.426 0.404 0.638 1.217 0.855 1.807 0.481l2.184-1.384c0.067-0.043 0.145-0.089 0.228-0.138 0.338-0.2 0.767-0.454 0.949-0.75 0.132-0.223 0.198-0.479 0.192-0.738s-0.084-0.512-0.226-0.728l-0.72-1.138c-0.080-0.125-0.206-0.213-0.351-0.246s-0.296-0.006-0.422 0.073l-4.052 2.569c-0.157 0.1-0.269 0.258-0.31 0.44s-0.009 0.373 0.090 0.531z"></path>
<path fill="#c3c3c3" style="fill: var(--color2, #c3c3c3)" d="M23.756 29.661l1.866-1.183-0.004-0.001 0.099-0.063c0.356-0.251 0.433-0.785 0.167-1.205l-0.246-0.389-3.319 2.104 0.247 0.39c0.273 0.432 0.809 0.588 1.191 0.346z"></path>
<path fill="#f8d129" style="fill: var(--color3, #f8d129)" d="M18.379 25.519c-0.231 0.012-0.26 0.070-0.505 0.075-0.1 0.003-0.293-0.018-0.428-0.034-0.715-0.079-1.085-0.444-1.663-1.067-0.286-0.309-0.41-0.382-0.718-0.663-0.857-0.788-1.137-0.923-1.716-1.054l-0.7-0.236c-1.253-0.536-2.98-1.417-3.913-2.521-1.389-1.641-2.149-4.173-1.809-6.322 0.4-2.529 1.672-4.573 4.135-6.057 1.457-0.884 3.166-1.26 4.859-1.069 1.279 0.149 2.061 0.422 3.148 0.963 3.466 1.745 4.401 4.919 4.043 8.614l-0.054 0.543c-0.010 0.514 0.551 2.326 0.732 3.101 0.42 1.803 0.311 2.21-0.548 2.77-0.476 0.31-1.267 0.803-2.115 1.341-0.603 0.382-2.198 1.49-2.75 1.614l0 0.004z"></path>
<path fill="#ff9e28" style="fill: var(--color4, #ff9e28)" d="M9 9.284c-1.882 3.125-1.027 6.594 0.485 8.447 1.579 1.933 3.883 2.207 5.204 3.543 2.921 2.955 4.361 2.821 8.552 1.289-0.389 0.233-1.803 1.143-2.089 1.324-0.64 0.406-1.641 1.067-2.193 1.39-1.18 0.693-1.822 0.678-3.178-0.784-0.62-0.669-1.555-1.52-2.437-1.72l-0.699-0.237c-1.253-0.536-2.98-1.417-3.913-2.521-2.597-2.909-2.778-7.796 0.268-10.733l0.001 0.001z"></path>
<path fill="#f8d129" style="fill: var(--color3, #f8d129)" d="M2.818 11.69c-1.41-0.313-2.628-0.218-2.725 0.215s0.967 1.039 2.375 1.354c1.409 0.315 2.629 0.219 2.725-0.215s-0.967-1.039-2.375-1.354z"></path>
<path fill="#f8d129" style="fill: var(--color3, #f8d129)" d="M8.939 3.417c-0.693-1.095-1.567-1.785-1.953-1.541s-0.136 1.331 0.557 2.426c0.693 1.096 1.564 1.788 1.953 1.542 0.386-0.244 0.136-1.331-0.557-2.427z"></path>
<path fill="#f8d129" style="fill: var(--color3, #f8d129)" d="M25.84 7.993c-1.255 0.795-2.074 1.753-1.829 2.139s1.457 0.056 2.714-0.741c1.258-0.797 2.075-1.753 1.83-2.139s-1.457-0.056-2.715 0.742z"></path>
<path fill="#f8d129" style="fill: var(--color3, #f8d129)" d="M28.314 17.388c-1.408-0.315-2.626-0.221-2.724 0.214-0.097 0.433 0.964 1.041 2.378 1.351 1.408 0.315 2.628 0.219 2.724-0.214 0.093-0.431-0.97-1.037-2.378-1.351z"></path>
<path fill="#f8d129" style="fill: var(--color3, #f8d129)" d="M17.485 2.393c0.318-1.408 0.926-2.471 1.358-2.373s0.529 1.317 0.207 2.728c-0.317 1.409-0.925 2.472-1.358 2.374s-0.526-1.319-0.208-2.728z"></path>
<path fill="#f8d129" style="fill: var(--color3, #f8d129)" d="M11.732 27.901c0.318-1.409 0.926-2.472 1.359-2.374s0.525 1.319 0.207 2.728c-0.318 1.409-0.926 2.472-1.359 2.374s-0.525-1.319-0.207-2.728z"></path>
<path fill="#f8d129" style="fill: var(--color3, #f8d129)" d="M4.692 21.399c-1.255 0.795-2.074 1.753-1.83 2.139s1.457 0.056 2.714-0.741c1.255-0.795 2.075-1.753 1.83-2.139s-1.46-0.054-2.715 0.742z"></path>
<path fill="#fefefe" style="fill: var(--color5, #fefefe)" d="M20.492 12.362c-0.386 0.244-0.896 0.13-1.14-0.256s-0.13-0.897 0.256-1.141c0.386-0.244 0.896-0.13 1.14 0.256s0.13 0.897-0.256 1.141z"></path>
<path fill="#fdfef4" style="fill: var(--color6, #fdfef4)" d="M13.833 7.848c1.616-0.414 3.529 0.203 4.55 1.056 0.762 0.636 0.559 1.133 0.262 1.392-0.278 0.241-0.589 0.288-1.611-0.274-0.721-0.397-1.66-0.846-2.72-0.702-0.543 0.074-1.588 0.432-1.933-0.089-0.498-0.753 0.856-1.232 1.452-1.383z"></path>
</symbol>
<symbol id="medal" viewBox="0 0 27 32">
<path fill="#852325" style="fill: var(--color13, #852325)" d="M15.586 18.215l-5.324 1.951 3.873 10.813c0.2 0.312 0.492 0.555 0.836 0.695 0.108 0.024 0.221 0.021 0.327-0.009s0.204-0.087 0.283-0.164l3.52-3.45 4.91 0.437c0.11 0.008 0.219-0.012 0.32-0.056s0.188-0.114 0.255-0.201 0.111-0.189 0.129-0.298c0 0 0.227-0.532 0.191-0.636l-4.227-10.899-5.093 1.817z"></path>
<path fill="#dd3e48" style="fill: var(--color19, #dd3e48)" d="M15.643 17.599l-5.098 1.823 4.008 11.212c0.038 0.103 0.101 0.195 0.184 0.267s0.182 0.123 0.289 0.147 0.219 0.022 0.325-0.008c0.106-0.029 0.203-0.084 0.282-0.161l3.524-3.448 4.913 0.436c0.11 0.009 0.22-0.010 0.32-0.055s0.189-0.113 0.256-0.2c0.067-0.087 0.112-0.189 0.13-0.297s0.009-0.219-0.027-0.323l-4.008-11.212-5.099 1.82z"></path>
<path fill="#e39390" style="fill: var(--color20, #e39390)" d="M16.767 29.775l1.041-1.029-3.221-9.010-1.249 0.446 3.429 9.592zM21.020 27.598l1.456 0.133-3.428-9.589-1.249 0.446 3.221 9.010z"></path>
<path fill="#da8503" style="fill: var(--color21, #da8503)" d="M4.864 8.626l-0.61 1.323 1.151 3.752-1.337 3.622 3.511 1.938 1.708 3.558 3.815-1.013 3.755 1.411 1.884-3.366 3.597-1.563 0.61-1.323-18.085-8.339z"></path>
<path fill="#f9da0b" style="fill: var(--color22, #f9da0b)" d="M13.915 12.766l-9.366 3.348 3.478 1.978 5.888-5.326 9.366-3.348-3.479-1.97-5.887 5.319zM13.915 12.766l-8.984-4.242 1.052 3.839 7.933 0.403-3.34-9.343-1.987 3.475 5.327 5.869zM13.915 12.766l4.263-8.974-3.848 1.056-0.416 7.918zM13.915 12.766l8.983 4.238-1.058-3.854-7.926-0.384 3.34 9.343 1.984-3.473-5.324-5.87-0.4 7.913-3.848 1.056 4.248-8.969z"></path>
<path fill="#ffbe05" style="fill: var(--color23, #ffbe05)" d="M13.915 12.766l7.926 0.384 1.44-3.732-9.366 3.348-0.4 7.913 3.74 1.431-3.34-9.343zM13.915 12.766l5.886-5.322-1.617-3.637-4.269 8.959 0.399-7.916-3.739-1.428 3.34 9.343-5.323-5.867-3.646 1.62 8.969 4.247-7.926-0.384-1.44 3.732 9.366-3.348-4.261 8.97-1.62-3.636 5.882-5.334 5.323 5.867 3.645-1.623-8.968-4.244z"></path>
<path fill="#da8503" style="fill: var(--color21, #da8503)" d="M18.128 10.88c0.807 2.258-0.486 4.768-2.877 5.623s-4.982-0.267-5.789-2.521c-0.806-2.255 0.482-4.777 2.874-5.632s4.984 0.28 5.792 2.531z"></path>
<path fill="#da8503" style="fill: var(--color21, #da8503)" d="M13.088 18.749c3.44 0.442 6.58-1.931 7.013-5.301s-2.004-6.46-5.444-6.903c-3.44-0.442-6.58 1.931-7.013 5.301s2.004 6.46 5.444 6.903z"></path>
<path fill="#f9da0b" style="fill: var(--color22, #f9da0b)" d="M13.146 18.293c3.44 0.442 6.566-1.828 6.984-5.071s-2.033-6.231-5.473-6.673c-3.44-0.442-6.566 1.828-6.984 5.071s2.033 6.231 5.473 6.673z"></path>
<path fill="#f3bb03" style="fill: var(--color24, #f3bb03)" d="M18.435 13.251c-0.288 2.241-2.566 3.782-5.085 3.458s-4.332-2.391-4.045-4.629c0.288-2.237 2.567-3.795 5.086-3.471s4.328 2.401 4.043 4.642z"></path>
<path fill="#da8503" style="fill: var(--color21, #da8503)" d="M16.55 11.895l-1.363-0.452-0.531-1.329c-0.191-0.488-0.599-0.541-0.914-0.118l-0.843 1.152-1.426 0.093c-0.519 0.033-0.698 0.407-0.394 0.83l0.833 1.161-0.352 1.385c-0.128 0.5 0.173 0.786 0.668 0.629l1.366-0.431 1.212 0.763c0.439 0.277 0.802 0.077 0.805-0.44l0.007-0.473 0.008-0.943 1.094-0.916c0.4-0.332 0.322-0.739-0.171-0.902l0.001-0.010z"></path>
<path fill="#ffde05" style="fill: var(--color25, #ffde05)" d="M16.597 11.53l-1.363-0.452-0.531-1.329c-0.191-0.488-0.599-0.541-0.914-0.118l-0.843 1.152-1.426 0.093c-0.519 0.033-0.697 0.404-0.394 0.826l0.834 1.158-0.352 1.382c-0.128 0.504 0.173 0.789 0.668 0.629l1.365-0.425 1.212 0.763c0.439 0.28 0.802 0.080 0.805-0.44l0.009-0.482 0.002-0.95 1.1-0.912c0.4-0.332 0.322-0.736-0.172-0.899l-0 0.003z"></path>
<path fill="#fefefe" style="fill: var(--color26, #fefefe)" d="M15.353 14.132c-0.059-0.188-0.27-0.185-0.503-0.065s-0.344 0.309-0.22 0.515c0.048 0.081 0.112 0.152 0.188 0.208s0.163 0.095 0.255 0.116c0.343 0.114 0.373-0.482 0.282-0.764l-0.002-0.010z"></path>
</symbol>
<symbol id="puzzle" viewBox="0 0 31 32">
<path fill="#851b98" style="fill: var(--color15, #851b98)" d="M5.363 11.966c-0.125 0.379-1.466 1.903-1.774 2.338-0.28 0.587-0.997 1.398-1.45 2.071-0.481 0.37-0.898 0.817-1.235 1.322-0.38 0.587 0.334 2.094 0.609 2.75 0.694 1.645 0.675 1.258 2.271 2.278l2.566 1.639c1.354 0.908 1.803 0.716 2.139 0.377 0.594-0.597 1.001-2.656 1.509-3.812 1.038-2.367 3.944-1.841 4.759 0.25-0.055 4.214-3.132 1.571-4.109 3.623-0.044 0.141 0.013 1.294 0.1 1.7 0.26 1.206 0.399 1.012 1.449 1.669l4.143 2.595c1.863 1.31 2.189 1.961 3.27-0.123 0.652-1.257 1.474-2.432 2.161-3.669 1.074-1.931 1.57-3.868 2.613-1.119 0.407 1.074 0.716 1.738 2.13 2.168 2.77 0.314 4.642-2.17 3.564-5.538-0.063-0.721-0.47-0.626-0.881-1-1.224-1.109-2.471-0.422-3.759 0.061 0.258-0.43 0.545-1.098 0.873-1.727 0.707-1.351 1.521-2.315 2.506-3.456 1.040-1.208 0.529-3.335-0.216-4.705-0.215-0.133-11.138-2.939-4.569-4.043 1.799-0.307 2.465-2.571 1.799-4.641-0.839-2.595-3.931-3.078-5.559-0.682-1.040 1.531 0.289 3.705-0.832 4.186-0.218 0.089-1.063-0.39-1.927-0.949-4.739-3.061-4.875-6.598-7.647-0.841-0.949 1.975-2.612 4.946-3.439 4.109-0.395-0.397-0.353-1.382-0.616-1.801-0.297-0.474-0.036 0.243-0.269-0.517-0.294-0.97-1.203-2.025-2.911-1.008-1.246 0.741-2.23 0.78-2.516 2.067-0.262 1.173 0.42 3.376 1.259 3.893 1.335 0.822 3.321-0.013 3.988 0.537l-0.001-0.003z"></path>
<path fill="#db71fe" style="fill: var(--color16, #db71fe)" d="M1.351 6.119c-0.611 0.304-1.058 0.626-1.236 1.419-0.261 1.173 0.42 3.376 1.26 3.893 1.267 0.78 3.119 0.069 3.874 0.46l1.543-1.51-5.441-4.262z"></path>
<path fill="#db71fe" style="fill: var(--color16, #db71fe)" d="M4.63 4.295c-3.087-1.032-6.606 3.651-2.971 5.696 0.816 0.46 1.874 0.085 2.652 0.025 0.695-0.055 1.134 0.311 1.102 0.769-0.035 0.487-2.733 4.062-3.274 4.865-1.879 2.789-1.796 2.698 0.544 4.171 0.932 0.586 1.313 0.775 1.553 0.933 0.303 0.2 0.992 0.716 1.748 1.171 1.629 0.984 2.298 1.393 2.658-1.503 0.225-1.816 0.84-3.702 3.612-2.904 0.895 0.259 1.688 0.866 2.007 1.437 0.79 1.413 0.639 3.28-0.871 4.146-0.551 0.316-1.169 0.487-1.679 0.711-1.379 0.605-1.241 1.304-0.576 1.776 0.694 0.492 2.269 1.038 3.369 1.816l2.082 1.299c1.641 1.096 1.86 0.865 3.011-0.971 0.545-0.902 2.993-5.397 3.618-5.664 1.769-0.757 0.772 4.894 4.545 3.764 3.394-1.017 3.049-6.116-0.805-5.625-0.977 0.124-2.78 0.729-2.1-1.235 0.336-0.968 1.094-2.233 1.969-3.228 1.678-1.904 3.36-3.559 0.328-5.428-2.182-1.342-5.487-1.709-5.208-3.094 0.243-1.209 2.709-0.971 3.412-2.14 1.041-1.727 0.329-3.507-0.992-4.332s-3.241-0.696-4.187 0.965c-1.285 2.265 1.109 5.422-2.003 3.832-2.981-1.521-5.309-7.771-8.222-1.769-0.461 0.952-1.11 2.16-1.715 2.96-2.066 2.727-1.102-1.605-3.602-2.442l-0.003-0.001z"></path>
<path fill="#e38eff" style="fill: var(--color17, #e38eff)" d="M4.63 4.295c-5.27-0.835-6.212 6.482-1.081 5.845 1.619-0.201 2.478-0.050 1.355 1.671-0.306 0.469-1.054 1.452-1.342 1.859-0.667 4.155 21.511 5.503 25.041-0.17 0.268-0.428 0.404-0.867 0.243-1.355-0.236-0.716-0.954-1.324-1.69-1.828-1.235-0.843-3.952-1.553-4.753-2.168-0.395-0.303-0.475-0.453-0.459-0.926 0.243-1.209 2.708-0.971 3.412-2.14 1.041-1.727 0.329-3.507-0.992-4.332s-3.24-0.696-4.187 0.965c-1.291 2.265 1.103 5.422-2.008 3.832-2.981-1.524-5.313-7.771-8.222-1.769-0.462 0.952-1.11 2.16-1.716 2.96-2.065 2.727-1.103-1.605-3.602-2.442l0.001-0.001z"></path>
</symbol>
<symbol id="replay" viewBox="0 0 31 32">
<path fill="#02640b" style="fill: var(--color18, #02640b)" d="M15.121 4.691c-6.324 0.549-11.786 3.158-11.823 10.423-0.007 1.137 0.085 1.512 0.433 2.771 0.050 0.179 0.136 0.346 0.255 0.49s0.266 0.261 0.433 0.345c0.165 0.090 0.348 0.143 0.536 0.157s0.377-0.012 0.555-0.076l3.29-1.124c0.318-0.109 0.585-0.328 0.753-0.618s0.224-0.628 0.158-0.954c-0.474-2.33 0.504-4.373 3.113-5.278 0.19 2.192 0.045 3.401 1.162 3.747 1.209 0.374 3.798-0.519 6.966-1.628 6.966-2.915 2.396-7.175-2.372-10.749-2.177-1.414-3.050 0.642-3.458 2.508l-0-0.013z"></path>
<path fill="#02640b" style="fill: var(--color18, #02640b)" d="M16.184 13.245c1.378-0.288 2.731-0.689 4.044-1.2 1.999-0.827 3.745-1.722 3.931-3.028 0.031-0.12 0.035-0.245 0.013-0.367-0.036-0.479-0.269-0.998-0.766-1.589-1.66-2.511-5.513-5.519-6.698-4.829-0.671 0.652-1.507 1.62-1.595 2.462-2.436 0.189-4.476 0.36-6.711 1.568-2.362 1.269-4.848 3.646-5.048 6.81-0.128 0.652-0.139 2.687 0.155 3.549 0.215 0.353 0.453 0.692 0.713 1.014 0.232 0.274 0.873 0.084 1.268-0.016 0.877-0.198 1.73-0.495 2.54-0.886 0.88-0.4 0.644-0.529 0.572-1.728-0.127-2.568 1.938-4.896 4.293-5.192 0.703-0.088 0.914 0.059 0.905 0.688-0.006 0.572 0.032 1.303 0.020 1.669-0.075 1.794 1.051 1.363 2.353 1.091l0.010-0.017z"></path>
<path fill="#4ad505" style="fill: var(--color19, #4ad505)" d="M3.475 16.481c0.154 0.909 2.905-0.132 3.523-0.443 0.762-0.386 0.756-0.893 0.748-1.697-0.031-2.935 2.482-5.208 5.666-5.597 1.020-0.127 0.905 0.098 0.941 1.12 0.022 0.49-0.004 0.709-0.022 1.303-0.034 0.973 0.048 1.29 1.077 1.191 3.918-0.386 9.132-2.050 8.777-3.704-0.629-3.013-6.711-7.378-7.259-6.51-0.219 0.347-0.726 1.219-0.922 1.593-1.361 2.696-1.631 0.937-4.233 1.528-4.38 0.988-7.255 4.111-8.239 7.184-0.417 1.323-0.288 2.564-0.043 4.028l-0.014 0.005z"></path>
<path fill="#9eea8b" style="fill: var(--color20, #9eea8b)" d="M3.361 13.179c1.58-4.139 6.417-7.742 10.935-7.495 0.804 0.044 1.471 0.041 1.646-1.004 0.208-1.241 0.716-1.686 1.243-1.811 1.46-0.364 4.306 2.137 5.878 3.639-1.039-1.458-5.62-6.846-7.222-3.922-0.384 0.702-0.551 1.095-0.615 1.66-2.39 0.168-4.718 0.852-6.819 2.005-2.399 1.291-4.901 3.707-5.045 6.929z"></path>
<path fill="#c2ffc1" style="fill: var(--color21, #c2ffc1)" d="M22.176 6.804c-0.949-1.469-4.65-4.649-5.711-1.586-0.866 2.507 1.638 1.68 4.138 2.241 1.27 0.283 2.272 0.402 1.58-0.659l-0.007 0.005z"></path>
<path fill="#02640b" style="fill: var(--color18, #02640b)" d="M15.522 27.482c7.289-0.631 13.355-5.514 11.584-12.534-0.092-0.375-0.481-1.087-0.834-1.263-0.338-0.165-0.729-0.191-1.088-0.071l-2.797 0.774c-0.34 0.114-0.63 0.343-0.819 0.646s-0.265 0.662-0.216 1.014c0.474 2.33-1.884 4.115-4.496 5.025-0.19-2.192 0.222-3.275-0.889-3.621-1.21-0.376-3.535 0.465-6.7 1.582-6.611 2.613-1.164 7.831 2.877 11.038 1.794 0.802 2.966-0.706 3.369-2.566l0.007-0.025z"></path>
<path fill="#9eea8b" style="fill: var(--color20, #9eea8b)" d="M13.583 17.62c-1.378 0.291-2.729 0.696-4.040 1.21-1.999 0.827-3.745 1.722-3.931 3.028-0.032 0.12-0.036 0.245-0.013 0.367 0.036 0.479 0.267 0.997 0.766 1.589 1.671 2.511 5.522 5.52 6.709 4.834 0.682-0.66 1.509-1.621 1.595-2.466 2.421-0.201 4.462-0.368 6.698-1.574 2.361-1.271 4.848-3.646 5.048-6.81 0.135-0.652 0.143-2.687-0.151-3.548-0.214-0.355-0.452-0.695-0.714-1.016-0.23-0.273-0.871-0.083-1.268 0.018-0.88 0.198-1.734 0.496-2.546 0.888-0.88 0.4-0.644 0.527-0.574 1.728 0.128 2.565-1.925 4.89-4.282 5.186-0.703 0.088-0.914-0.059-0.905-0.688 0.006-0.572-0.034-1.302-0.020-1.669 0.073-1.794-1.053-1.363-2.353-1.091l-0.019 0.015z"></path>
<path fill="#4ad505" style="fill: var(--color19, #4ad505)" d="M26.275 14.38c-0.154-0.909-2.905 0.13-3.523 0.441-0.761 0.388-0.758 0.894-0.76 1.701 0.043 2.932-2.469 5.206-5.655 5.596-1.018 0.127-0.904-0.1-0.941-1.12-0.021-0.493 0.006-0.709 0.022-1.303 0.034-0.973-0.046-1.291-1.078-1.193-3.917 0.388-9.132 2.052-8.777 3.706 0.63 3.022 6.71 7.381 7.256 6.515 0.221-0.347 0.73-1.22 0.922-1.593 1.361-2.696 1.632-0.94 4.233-1.528 4.381-0.991 7.255-4.111 8.238-7.186 0.42-1.322 0.291-2.556 0.044-4.030l0.018-0.006z"></path>
<path fill="#02640b" style="fill: var(--color18, #02640b)" d="M26.404 17.681c-1.582 4.14-6.417 7.74-10.937 7.495-0.802-0.044-1.471-0.041-1.644 1.004-0.209 1.239-0.718 1.685-1.243 1.811-1.461 0.362-4.306-2.137-5.881-3.64 1.039 1.458 5.62 6.846 7.225 3.924 0.384-0.702 0.551-1.095 0.615-1.66 2.39-0.169 4.717-0.853 6.819-2.005 2.391-1.29 4.901-3.707 5.045-6.928z"></path>
<path fill="#c2ffc1" style="fill: var(--color21, #c2ffc1)" d="M7.589 24.055c0.959 1.468 4.65 4.649 5.711 1.586 0.866-2.507-1.637-1.678-4.137-2.239-1.27-0.283-2.274-0.402-1.581 0.657l0.007-0.005z"></path>
</symbol>
<symbol id="reviews" viewBox="0 0 32 32">
<path fill="#858bff" style="fill: var(--color1, #858bff)" d="M15.025 15.842c0.238 0.169 3.023 1.114 3.497 1.297l0.319 1.496c0.211 0.99 1.155 1.094 1.753 0.531 0.473-0.355 0.842-0.71 1.066-0.91 0.31-0.276 0.515-0.351 1.393-0.129 1.292 0.249 2.158-0.16 2.936-1.946 0.388-0.89 0.712-1.978 0.932-2.546l0.541-1.478c0.604-1.458 0.434-1.838 0.304-2.273-0.282-0.972-1.493-0.879-2.965-1.423l-5.834-1.697c-1.105-0.329-2.164-0.004-2.797 0.695-0.517 0.571-0.854 1.787-1.159 2.605-0.287 0.771-0.569 1.531-0.854 2.295-0.255 0.685-0.455 1.343-0.29 2.070 0.067 0.294 0.371 0.963 1.024 1.312 0.043 0.033 0.087 0.067 0.134 0.102l-0-0.002z"></path>
<path fill="#fff" style="fill: var(--color2, #fff)" d="M20.471 11.601c-1.381 0.41-0.905 1.993 0.332 1.616s0.922-1.988-0.332-1.616z"></path>
<path fill="#fff" style="fill: var(--color2, #fff)" d="M23.45 12.421c-1.291 0.289-1.127 1.941 0.18 1.666 0.43-0.090 0.837-0.432 0.867-0.946 0.039-0.651-0.646-0.81-1.048-0.719v-0.001z"></path>
<path fill="#fff" style="fill: var(--color2, #fff)" d="M17.547 10.751c-0.453 0.144-0.834 0.408-0.831 0.983 0.006 0.98 1.963 0.93 1.936-0.376-0.010-0.514-0.585-0.771-1.105-0.607v0z"></path>
<path fill="#3836a1" style="fill: var(--color3, #3836a1)" d="M22.011 17.924c0.136-0.045 0.308 0.017 0.771 0.134v-0c2.196 0.815 3.375-2.365 3.986-4.013 0.056-0.151 0.107-0.288 0.154-0.409l0.54-1.479c0.22-0.565 0.544-1.707 0.3-2.211 0.097 0.161 0.215 0.585 0.321 0.971 0.071 0.256 0.137 0.495 0.189 0.628 0.487 1.237 0.265 1.829-0.134 2.892-0.049 0.13-0.1 0.267-0.153 0.413-0.038 0.106-0.092 0.255-0.156 0.435-0.397 1.111-1.21 3.387-1.505 3.786-0.962 1.295-2.591 1.071-3.382 0.801-0.254 0.166-0.811 0.637-1.204 0.969-0.15 0.126-0.275 0.233-0.352 0.295-0.629 0.509-1.217 0.423-1.528-0.141-0.3-0.544-0.795-1.485-0.952-2.136 0.371 0.772 1.178 0.824 2.344-0.232 0.489-0.444 0.6-0.648 0.762-0.702z"></path>
<path fill="#3836a1" style="fill: var(--color3, #3836a1)" d="M18.841 18.636l-3.137-1.071c-0.784-0.268-1.301-0.906-1.498-1.71l-0.359-1.47c0.221 0.622 0.442 1.054 1.354 1.446 0.354 0.152 1.248 0.435 1.919 0.647 0.344 0.109 0.63 0.199 0.754 0.244 0.426 0.155 0.601 0.178 0.687 0.278 0.082 0.096 0.083 0.262 0.143 0.684l0.137 0.952z"></path>
<path fill="#2f4189" style="fill: var(--color4, #2f4189)" d="M10.027 23.692l-0.005 0.014-0.005 0.014-0.005 0.014-0.005 0.014-0.006 0.014-0.006 0.014-0.006 0.015-0.006 0.015-0.024 0.055-0.026 0.052-0.027 0.050-0.029 0.047-0.030 0.047-0.032 0.043-0.033 0.041-0.035 0.039-0.036 0.037-0.038 0.035-0.038 0.033-0.040 0.032-0.041 0.030-0.042 0.029-0.043 0.028-0.043 0.026-0.044 0.025-0.047 0.024-0.047 0.023-0.047 0.023-0.047 0.022-0.047 0.022-0.047 0.021-0.094 0.040-0.047 0.020-0.050 0.020-0.050 0.020-0.050 0.020-0.050 0.020-0.050 0.021-0.050 0.020-0.037 0.015-0.037 0.016-0.037 0.015-0.037 0.016-0.037 0.015-0.037 0.015-0.037 0.016-0.037 0.016-0.073 0.032-0.037 0.016-0.037 0.016-0.037 0.015-0.037 0.016-0.073 0.032-0.037 0.015-0.037 0.016-0.037 0.015-0.037 0.015-0.037 0.016-0.037 0.015-0.037 0.015-0.037 0.016-0.037 0.015-0.074 0.030-0.038 0.015-0.037 0.015-0.037 0.015-0.038 0.015-0.037 0.015-0.061 0.022-0.061 0.019-0.061 0.016-0.061 0.014-0.061 0.011-0.061 0.009-0.061 0.007-0.061 0.004h-0.12l-0.059-0.004-0.063-0.005-0.058-0.008-0.057-0.011-0.057-0.013-0.056-0.016-0.056-0.018-0.055-0.021-0.054-0.024-0.053-0.029-0.052-0.028-0.051-0.031-0.049-0.033-0.047-0.035-0.047-0.038-0.047-0.040-0.044-0.042-0.042-0.045-0.041-0.047-0.039-0.050-0.038-0.052-0.035-0.054-0.011-0.019-0.012-0.020-0.011-0.020-0.011-0.020-0.011-0.021-0.010-0.021-0.010-0.022-0.010-0.021-0.010-0.022-0.010-0.022-0.009-0.021-0.009-0.022-0.009-0.021-0.009-0.021-0.009-0.020-0.009-0.020-0.008-0.017-0.015-0.033-0.007-0.017-0.007-0.017-0.008-0.016-0.008-0.017-0.008-0.016-0.008-0.017-0.014-0.033-0.007-0.017-0.007-0.016-0.007-0.017-0.007-0.016-0.014-0.033-0.007-0.017-0.008-0.015-0.007-0.017-0.007-0.016-0.007-0.017-0.007-0.016-0.007-0.017-0.014-0.033-0.007-0.017-0.007-0.017-0.007-0.017-0.007-0.016-0.007-0.017-0.027-0.063-0.021-0.047-0.020-0.047-0.020-0.047-0.020-0.047-0.020-0.047-0.020-0.047-0.040-0.094-0.020-0.047-0.020-0.047-0.018-0.057-0.020-0.047-0.040-0.094-0.020-0.047-0.040-0.094-0.020-0.047-0.020-0.047-0.020-0.047-0.020-0.047-0.040-0.094-0.020-0.047-0.020-0.047-0.020-0.047-0.040-0.094-0.020-0.047-0.020-0.047-0.020-0.047-0.031-0.075-0.031-0.075-0.031-0.074-0.062-0.15-0.031-0.075-0.031-0.075-0.031-0.088-0.031-0.074-0.029-0.075-0.031-0.075-0.031-0.075-0.032-0.075-0.031-0.074-0.031-0.075-0.032-0.075-0.031-0.075-0.031-0.075-0.032-0.074-0.031-0.075-0.031-0.075-0.031-0.075-0.062-0.15-0.029-0.074-0.062-0.15-0.031-0.075-0.031-0.075-0.032-0.074-0.031-0.075-0.031-0.075-0.023-0.051-0.021-0.051-0.021-0.050-0.021-0.050-0.020-0.050-0.020-0.047-0.019-0.047-0.018-0.047-0.018-0.047-0.017-0.047-0.016-0.047-0.015-0.047-0.014-0.047-0.012-0.047-0.011-0.047-0.010-0.047-0.008-0.047-0.007-0.047-0.005-0.047-0.002-0.072v-0.049l0.13-1.625v0.049l0.003 0.049 0.005 0.047 0.007 0.047 0.008 0.047 0.010 0.047 0.011 0.047 0.013 0.047 0.014 0.047 0.015 0.047 0.016 0.047 0.017 0.047 0.018 0.047 0.018 0.047 0.020 0.049 0.019 0.068 0.020 0.047 0.021 0.050 0.021 0.050 0.022 0.051 0.021 0.051 0.063 0.15 0.031 0.075 0.031 0.075 0.031 0.074 0.031 0.075 0.062 0.15 0.031 0.075 0.031 0.074 0.031 0.075 0.031 0.075 0.031 0.075 0.031 0.075 0.031 0.074 0.031 0.075 0.031 0.075 0.062 0.15 0.031 0.075 0.031 0.074 0.031 0.075 0.031 0.075 0.062 0.15 0.031 0.074 0.031 0.075 0.031 0.075 0.031 0.075 0.033 0.077 0.031 0.074 0.031 0.075 0.020 0.047 0.020 0.047 0.040 0.094 0.020 0.047 0.040 0.094 0.020 0.047 0.020 0.047 0.020 0.047 0.040 0.094 0.020 0.047 0.040 0.094 0.020 0.047 0.020 0.047 0.020 0.047 0.020 0.047 0.040 0.094 0.020 0.047 0.020 0.047 0.020 0.047 0.020 0.047 0.040 0.094 0.020 0.047 0.020 0.047 0.021 0.047 0.040 0.094 0.005 0.039 0.007 0.017 0.007 0.016 0.007 0.017 0.007 0.017 0.007 0.017 0.007 0.016 0.007 0.016 0.007 0.017 0.007 0.016 0.007 0.016 0.007 0.017 0.007 0.016 0.007 0.017 0.007 0.016 0.007 0.017 0.007 0.016 0.007 0.016 0.007 0.017 0.007 0.016 0.007 0.017 0.007 0.016 0.007 0.017 0.008 0.016 0.015 0.033 0.008 0.017 0.008 0.016 0.008 0.017 0.008 0.016 0.007 0.017 0.008 0.016 0.009 0.020 0.018 0.041 0.010 0.022 0.009 0.021 0.009 0.022 0.010 0.021 0.010 0.022 0.010 0.021 0.021 0.042 0.010 0.021 0.011 0.020 0.011 0.020 0.011 0.019 0.011 0.019 0.035 0.054 0.038 0.052 0.040 0.050 0.040 0.047 0.042 0.047 0.044 0.042 0.047 0.040 0.047 0.038 0.047 0.035 0.047 0.033 0.051 0.031 0.052 0.029 0.053 0.026 0.054 0.023 0.055 0.021 0.056 0.018 0.056 0.016 0.057 0.014 0.058 0.011 0.058 0.008 0.059 0.006 0.059 0.003h0.12l0.060-0.004 0.061-0.006 0.061-0.009 0.061-0.012 0.061-0.014 0.061-0.017 0.061-0.019 0.061-0.022 0.037-0.015 0.038-0.015 0.037-0.014 0.038-0.015 0.037-0.015 0.038-0.015 0.037-0.015 0.037-0.015 0.074-0.031 0.039-0.014 0.037-0.015 0.037-0.015 0.037-0.016 0.037-0.015 0.037-0.016 0.037-0.015 0.037-0.016 0.037-0.016 0.034-0.016 0.037-0.016 0.073-0.032 0.037-0.016 0.037-0.016 0.221-0.093 0.037-0.015 0.050-0.021 0.101-0.040 0.1-0.040 0.050-0.020 0.094-0.039 0.094-0.041 0.094-0.043 0.047-0.023 0.047-0.024 0.047-0.024 0.047-0.025 0.043-0.026 0.043-0.028 0.042-0.029 0.041-0.031 0.039-0.032 0.039-0.033 0.037-0.035 0.036-0.037 0.035-0.039 0.033-0.041 0.032-0.043 0.031-0.047 0.029-0.047 0.027-0.049 0.026-0.053 0.024-0.055 0.006-0.015 0.006-0.014 0.005-0.014 0.006-0.014 0.006-0.014 0.005-0.014 0.005-0.014 0.005-0.013 0.018 0.009 0.017 0.008 0.018 0.008 0.018 0.008 0.018 0.008 0.018 0.008 0.019 0.007 0.019 0.007 0.019 0.007 0.019 0.006 0.020 0.006 0.020 0.006 0.020 0.005 0.021 0.005 0.020 0.005 0.042 0.008 0.022 0.003 0.022 0.003 0.022 0.003h0.285l0.026-0.002 0.026-0.002 0.026-0.003 0.053-0.008 0.026-0.005 0.027-0.005 0.027-0.006 0.027-0.006 0.027-0.006 0.027-0.007 0.027-0.007 0.027-0.008 0.026-0.008 0.053-0.016 0.053-0.017 0.026-0.008 0.026-0.009 0.025-0.009 0.025-0.009 0.025-0.009 0.025-0.009 0.024-0.009 0.024-0.009 0.024-0.009 0.024-0.008 0.023-0.008 0.022-0.008 0.023-0.008 0.022-0.008 0.040-0.015 0.040-0.014 0.040-0.015 0.079-0.030 0.040-0.015 0.040-0.015 0.039-0.015 0.044-0.013 0.039-0.015 0.158-0.062 0.039-0.017 0.039-0.015 0.079-0.031 0.079-0.031 0.039-0.017 0.039-0.016 0.039-0.016 0.039-0.016 0.079-0.032 0.039-0.015 0.079-0.032 0.039-0.015 0.079-0.032 0.066-0.027 0.066-0.027 0.132-0.054 0.065-0.027 0.132-0.054 0.066-0.028 1.672-0.695 0.047-0.018 0.094-0.036 0.094-0.035 0.423-0.153 0.047-0.017 0.047-0.018 0.047-0.018 0.094-0.038 0.047-0.019 0.047-0.020 0.047-0.021 0.045-0.022 0.047-0.022 0.045-0.023 0.047-0.024 0.045-0.024 0.047-0.025 0.047-0.027 0.045-0.027 0.069-0.044 0.066-0.047 0.063-0.047 0.062-0.047 0.058-0.049 0.056-0.051 0.054-0.053 0.051-0.054 0.047-0.055 0.047-0.056 0.043-0.058 0.040-0.059 0.037-0.060 0.034-0.061 0.031-0.063 0.028-0.063 0.025-0.065 0.022-0.066 0.018-0.067 0.015-0.068-0.13 1.625-0.015 0.068-0.018 0.067-0.022 0.066-0.025 0.065-0.028 0.064-0.031 0.063-0.034 0.062-0.037 0.060-0.040 0.059-0.043 0.058-0.047 0.056-0.047 0.055-0.051 0.054-0.081 0.055-0.056 0.051-0.059 0.050-0.061 0.047-0.064 0.047-0.066 0.047-0.069 0.044-0.047 0.027-0.047 0.026-0.045 0.025-0.047 0.024-0.045 0.024-0.047 0.023-0.045 0.022-0.047 0.022-0.047 0.021-0.094 0.040-0.047 0.019-0.094 0.037-0.094 0.036-0.047 0.017-0.376 0.135-0.094 0.035-0.094 0.036-0.047 0.018-0.047 0.019-0.047 0.020-0.132 0.054-0.034 0.024-0.066 0.027-0.065 0.028-0.198 0.082-0.065 0.028-0.263 0.109-0.066 0.028-0.197 0.082-0.066 0.028-0.197 0.082-0.066 0.028-0.197 0.082-0.066 0.027-0.066 0.027-0.762 0.31-0.079 0.031-0.040 0.015-0.039 0.015-0.039 0.016-0.040 0.015-0.039 0.016-0.079 0.031-0.039 0.015-0.039 0.016-0.039 0.015-0.040 0.015-0.040 0.015-0.040 0.015-0.040 0.015-0.040 0.015-0.040 0.015-0.040 0.015-0.040 0.015-0.040 0.015-0.022 0.008-0.023 0.008-0.045 0.017-0.024 0.008-0.024 0.009-0.024 0.009-0.074 0.027-0.025 0.009-0.025 0.009-0.026 0.009-0.026 0.008-0.053 0.017-0.026 0.008-0.026 0.008-0.026 0.008-0.027 0.008-0.027 0.007-0.027 0.007-0.027 0.007-0.027 0.006-0.027 0.005-0.027 0.005-0.026 0.005-0.027 0.004-0.026 0.003-0.026 0.003h-0.052l-0.025 0.002h-0.237l-0.023-0.002-0.022-0.002-0.022-0.003-0.021-0.004-0.022-0.003-0.021-0.004-0.021-0.004-0.020-0.005-0.020-0.005-0.020-0.006-0.020-0.006-0.019-0.006h-0.018l-0.019-0.007-0.019-0.007-0.018-0.008-0.019-0.008-0.018-0.008-0.018-0.008-0.017-0.008-0.017-0.009-0.002-0.002zM7.639 21.154l-0.13 1.625v-0.012l-0.003-0.003h-0.003l-0.003-0.002h-0.016l-0.004 0.002h-0.003v0.014l0.13-1.625v-0.014l0.003-0.002h0.022l0.003 0.002v0.011l0.002 0.004zM17.054 17.087l-0.13 1.625-0.005 0.025-0.005 0.025-0.006 0.024-0.006 0.024-0.006 0.024-0.007 0.024-0.007 0.024-0.015 0.049-0.008 0.024-0.008 0.024-0.009 0.024-0.009 0.024-0.009 0.024 0.13-1.624 0.019-0.049 0.009-0.024 0.008-0.024 0.008-0.024 0.007-0.024 0.008-0.024 0.007-0.024 0.007-0.024 0.006-0.024 0.011-0.049 0.005-0.025 0.004-0.025zM16.76 15.394l-0.13 1.625-0.004 0.024-0.005 0.024-0.005 0.024-0.005 0.024-0.006 0.024-0.006 0.024-0.006 0.024-0.007 0.024-0.008 0.024-0.008 0.024-0.008 0.024-0.008 0.024-0.009 0.024-0.009 0.024 0.131-1.624 0.009-0.024 0.009-0.024 0.008-0.024 0.008-0.024 0.008-0.024 0.008-0.024 0.007-0.024 0.007-0.024 0.006-0.024 0.006-0.024 0.006-0.024 0.009-0.049 0.002-0.025zM16.458 13.715l-0.13 1.625-0.007 0.042-0.008 0.042-0.010 0.042-0.011 0.042-0.012 0.042-0.014 0.041-0.015 0.041-0.015 0.041 0.13-1.624 0.015-0.041 0.015-0.041 0.013-0.041 0.012-0.042 0.011-0.042 0.009-0.042 0.008-0.042 0.007-0.042zM8.314 12.693l-0.020-0.054-0.021-0.055-0.020-0.056-0.020-0.057-0.019-0.057-0.019-0.059-0.018-0.059-0.017-0.060-0.016-0.060-0.015-0.061-0.013-0.061-0.010-0.061-0.010-0.061-0.008-0.061-0.007-0.062-0.003-0.060v-0.119l0.13-1.625v0.119l0.004 0.060 0.005 0.060 0.008 0.061 0.010 0.061 0.011 0.061 0.013 0.061 0.015 0.060 0.016 0.060 0.017 0.060 0.018 0.059 0.019 0.059 0.020 0.058 0.020 0.057 0.021 0.056 0.020 0.056 0.020 0.054 0.007 0.019 0.008 0.021 0.009 0.023 0.010 0.025 0.011 0.027 0.011 0.028 0.012 0.030 0.012 0.031 0.012 0.033 0.013 0.033 0.013 0.034 0.014 0.035 0.013 0.036 0.014 0.037 0.014 0.037 0.013 0.037 0.013 0.037 0.013 0.036 0.013 0.036 0.012 0.036 0.011 0.035 0.011 0.034 0.010 0.033 0.009 0.032 0.008 0.031 0.008 0.030 0.007 0.028 0.005 0.027 0.004 0.025 0.003 0.023v0.040l-0.129 1.626v-0.040l-0.003-0.023-0.004-0.025-0.006-0.027-0.006-0.029-0.008-0.030-0.008-0.031-0.009-0.033-0.010-0.033-0.010-0.034-0.011-0.035-0.012-0.036-0.012-0.036-0.013-0.037-0.013-0.037-0.014-0.037-0.013-0.037-0.014-0.036-0.013-0.036-0.014-0.035-0.014-0.034-0.013-0.033-0.013-0.032-0.012-0.032-0.012-0.030-0.011-0.029-0.010-0.027-0.010-0.025-0.017-0.044-0.007-0.019-0.001 0.001z"></path>
<path fill="#5674df" style="fill: var(--color5, #5674df)" d="M10.157 22.068c-0.013 0.036-0.027 0.073-0.043 0.112-0.248 0.598-0.794 0.741-1.329 0.964-0.394 0.164-0.783 0.341-1.182 0.493-0.644 0.245-1.334 0.047-1.703-0.543-0.061-0.107-0.115-0.218-0.161-0.332-0.078-0.177-0.154-0.355-0.23-0.533-0.214-0.508-0.427-1.018-0.639-1.529-0.329-0.8-0.659-1.599-0.988-2.395-0.231-0.546-0.453-1.016-0.171-1.604 0.267-0.555 0.794-0.71 1.311-0.928 0.394-0.165 0.782-0.342 1.181-0.494 0.429-0.164 0.827-0.141 1.162 0.047 0.132-0.572 0.453-1.194 0.692-1.671 0.21-0.417 0.621-1.164 0.698-1.617 0.007-0.185-0.242-0.784-0.313-0.97-0.215-0.568-0.47-1.355 0.167-1.765 0.447-0.287 1.191-0.339 1.688-0.163 1.357 0.482 1.675 2.336 1.745 3.594v0.080l1.905-0.792c0.152-0.065 0.279-0.129 0.423-0.157 0.701-0.282 1.579 0.18 1.908 0.83 0.223 0.441 0.258 0.916 0.085 1.354 0.22 0.248 0.36 0.558 0.398 0.888 0.038 0.271 0.003 0.546-0.1 0.8 0.203 0.226 0.338 0.505 0.389 0.805s0.017 0.607-0.099 0.888c0.13 0.148 0.232 0.319 0.301 0.505 0.329 0.858-0.029 1.574-0.772 2.033-0.477 0.295-0.96 0.416-1.467 0.625-0.702 0.288-1.4 0.587-2.104 0.871-0.419 0.169-0.839 0.338-1.263 0.494-0.229 0.084-0.54 0.21-0.815 0.228-0.232 0.029-0.468-0.012-0.676-0.118l-0-0.001zM7.611 21.135c-0.004 0.002-0.007 0.004-0.009 0.008s-0.003 0.007-0.003 0.011c0 0.004 0.001 0.008 0.004 0.011s0.005 0.006 0.009 0.007 0.008 0.002 0.012 0.001c0.004-0.001 0.007-0.003 0.010-0.006s0.005-0.006 0.005-0.010c0.001-0.004 0-0.008-0.001-0.012-0.001-0.003-0.003-0.005-0.004-0.007s-0.004-0.003-0.007-0.005c-0.003-0.001-0.005-0.001-0.008-0.001s-0.005 0.001-0.008 0.002z"></path>
<path fill="#eee" style="fill: var(--color6, #eee)" d="M14.554 12.544l0.001 0.001c0.344-0.223 0.925 0.086 1.113 0.462 0.175 0.348 0.152 0.677-0.030 0.959-0.097 0.152-0.167 0.161-0.214 0.252 0.282 0.118 0.595 0.331 0.659 0.811 0.022 0.161-0.001 0.325-0.066 0.474-0.1 0.246-0.168 0.242-0.27 0.373l-0.023 0.033c0.151 0.102 0.584 0.217 0.658 0.804 0.018 0.168-0.009 0.337-0.079 0.491-0.089 0.217-0.197 0.245-0.287 0.402 0.219 0.124 0.448 0.19 0.595 0.575 0.435 1.139-1.124 1.474-1.857 1.775-0.506 0.207-3.769 1.598-3.985 1.544-0.406 0.038-0.564-0.284-0.753-0.732l-1.586-3.797c-0.135-0.321-0.449-0.911-0.435-1.215 0.043-0.929 1.284-2.647 1.441-3.614 0.102-0.627-0.837-2.016-0.454-2.262 0.309-0.201 0.854-0.176 1.085-0.094 0.989 0.35 1.231 1.979 1.288 2.984l0.016 1.067 2.843-1.181c0.090-0.037 0.251-0.131 0.339-0.114zM6.484 22.728c0.182 0.29 0.513 0.402 0.874 0.264 0.388-0.148 0.778-0.325 1.162-0.485s0.822-0.267 0.958-0.593c0.166-0.398 0.019-0.572-0.185-1.043l-1.478-3.528c-0.297-0.709-0.498-1.75-1.364-1.419-0.381 0.145-0.782 0.329-1.161 0.486s-0.806 0.277-0.958 0.588c-0.156 0.325 0.009 0.625 0.183 1.041 0.141 0.34 1.843 4.487 1.969 4.687l0 0.001zM7.345 20.5c-0.129 0.054-0.24 0.145-0.317 0.262s-0.119 0.254-0.118 0.394c0 0.14 0.043 0.277 0.121 0.393s0.189 0.207 0.319 0.26c0.13 0.053 0.272 0.067 0.41 0.039s0.264-0.096 0.362-0.195c0.099-0.099 0.166-0.226 0.193-0.363s0.012-0.28-0.042-0.409c-0.036-0.086-0.088-0.164-0.154-0.23s-0.144-0.118-0.231-0.153c-0.086-0.035-0.178-0.053-0.272-0.053s-0.185 0.019-0.271 0.055z"></path>
</symbol>
<symbol id="star" viewBox="0 0 32 32">
<path fill="#fcc641" style="fill: var(--color18, #fcc641)" d="M17.076 8.96l2.159 3.213 3.598 1.147c0.421 0.135 0.726 0.446 0.862 0.883s0.065 0.876-0.199 1.242l-2.264 3.134 0.065 3.922c0.008 0.459-0.183 0.857-0.539 1.127s-0.779 0.336-1.195 0.186l-3.557-1.276-3.558 1.276c-0.416 0.15-0.839 0.083-1.195-0.187s-0.547-0.668-0.539-1.127l0.065-3.922-2.263-3.133c-0.265-0.367-0.335-0.806-0.199-1.242s0.441-0.749 0.863-0.883l3.598-1.147 2.157-3.214c0.253-0.376 0.632-0.582 1.072-0.582s0.82 0.206 1.072 0.582h-0z"></path>
</symbol>
<symbol id="stars" viewBox="0 0 32 32">
<path fill="#b44e17" style="fill: var(--color7, #b44e17)" d="M21.568 17.006c-0.333-0.3-0.642-0.593-0.86-0.994-0.113-0.208-0.133-0.324-0.193-0.555l-0.39-1.487c-0.065-0.256-0.027-0.49 0.184-0.662 0.484-0.395 1.583-0.344 2.077-0.428 1.109-0.189 0.859-0.242 1.345-1.048 0.505-0.839 0.867-1.146 1.242-1.137 0.319 0.008 0.645 0.163 1.134 1.273 0.549 1.246 0.217 1.021 1.532 1.367 0.227 0.060 0.453 0.119 0.673 0.175 0.618 0.155 0.916 0.151 1.002 0.652 0.046 0.267-0.099 0.545-0.334 0.818-0.486 0.566-0.977 1.213-1.505 1.735l-0.052 0.049-0.035 0.032c0.001 0.021 0.002 0.044 0.003 0.066 0.036 0.912 0.369 2.411-0.187 2.772l-0.961 0.603c-0.241 0.124-0.506 0.038-0.744-0.079-0.078-0.038-0.153-0.080-0.224-0.118-0.281-0.172-0.59-0.401-0.886-0.576-0.072-0.044-0.147-0.083-0.223-0.119-0.086-0.039-0.182-0.048-0.274-0.026-0.189 0.045-0.603 0.258-0.76 0.325-0.069 0.029-0.138 0.058-0.208 0.086l-0.095 0.036c-0.17 0.064-0.344 0.114-0.521 0.151-0.070 0.014-0.143 0.024-0.22 0.032l-0.083 0.003c-0.224-0.008-0.364-0.041-0.501-0.228l-0.035-0.067-0.027-0.077c-0.238-0.767-0.261-0.988-0.158-1.462 0.057-0.257 0.091-0.636 0.277-1.103l0.004-0.007z"></path>
<path fill="#ffb701" style="fill: var(--color8, #ffb701)" d="M25.789 19.254c-1.382-0.886-1.209-0.937-1.971-0.587-0.997 0.46-2.933 1.324-2.606-0.552 0.083-0.478 0.291-0.935 0.399-1.219 0.4-1.055-0.141-1.105-0.753-1.776-0.543-0.596-1.067-1.389-0.549-1.813 0.484-0.395 1.583-0.344 2.077-0.428 1.109-0.189 0.859-0.242 1.345-1.048 0.505-0.839 0.866-1.146 1.242-1.137 0.319 0.008 0.645 0.163 1.134 1.273 0.547 1.247 0.217 1.021 1.532 1.367 0.227 0.060 0.453 0.119 0.673 0.175 0.618 0.155 0.915 0.15 1.002 0.652 0.113 0.656-0.928 1.379-1.591 1.926-0.411 0.339-0.353 0.253-0.329 0.771 0.052 1.327 0.733 3.895-1.606 2.396l0.001-0z"></path>
<path fill="#ffd951" style="fill: var(--color9, #ffd951)" d="M27.384 15.543c-0.965 0.837-2.48 0.422-3.427-0.492-1.792-1.729 0.816-3.936 0.823-3.938 0.919-0.318 0.907 1.439 1.65 2.021 0.867 0.681 2.939 0.947 1.185 2.239l-0.231 0.171 0-0.001z"></path>
<path fill="#b44e17" style="fill: var(--color7, #b44e17)" d="M11.006 22.485c0.060-0.445 0.107-0.868 0.014-1.316-0.048-0.232-0.108-0.334-0.21-0.549l-0.662-1.388c-0.116-0.238-0.295-0.391-0.568-0.386-0.624 0.012-1.43 0.762-1.861 1.019-0.968 0.575-0.812 0.372-1.702 0.071-0.926-0.313-1.4-0.313-1.681-0.063-0.238 0.213-0.387 0.542-0.044 1.706 0.385 1.307 0.493 0.919-0.287 2.035-0.134 0.193-0.269 0.384-0.4 0.569-0.373 0.519-0.602 0.708-0.345 1.147 0.137 0.233 0.427 0.352 0.782 0.408 0.736 0.117 1.528 0.292 2.268 0.35l0.071 0.004 0.047 0.002c0.013 0.017 0.026 0.035 0.040 0.052 0.561 0.719 1.275 2.079 1.931 1.994l1.122-0.162c0.264-0.061 0.411-0.299 0.516-0.542 0.035-0.080 0.065-0.16 0.094-0.235 0.104-0.313 0.192-0.688 0.304-1.013 0.027-0.080 0.058-0.159 0.094-0.235 0.040-0.085 0.108-0.155 0.192-0.197 0.173-0.088 0.627-0.193 0.79-0.244 0.071-0.022 0.143-0.045 0.214-0.069l0.095-0.034c0.17-0.061 0.336-0.136 0.495-0.222 0.063-0.035 0.125-0.074 0.188-0.118l0.065-0.052c0.166-0.151 0.252-0.267 0.235-0.498l-0.017-0.073-0.029-0.076c-0.314-0.739-0.438-0.922-0.823-1.218-0.209-0.159-0.48-0.427-0.923-0.663l-0.007-0.004z"></path>
<path fill="#ffb701" style="fill: var(--color8, #ffb701)" d="M9.237 26.934c0.482-1.572 0.319-1.5 1.125-1.724 1.057-0.294 3.091-0.89 1.632-2.109-0.372-0.311-0.826-0.525-1.091-0.672-0.986-0.546-0.605-0.934-0.572-1.843 0.030-0.807-0.082-1.752-0.751-1.74-0.624 0.012-1.43 0.762-1.861 1.019-0.968 0.575-0.812 0.372-1.702 0.071-0.926-0.313-1.4-0.313-1.681-0.063-0.238 0.213-0.387 0.542-0.044 1.706 0.385 1.307 0.493 0.919-0.287 2.035-0.134 0.193-0.269 0.384-0.4 0.569-0.373 0.52-0.602 0.709-0.344 1.148 0.336 0.574 1.597 0.451 2.458 0.439 0.532-0.008 0.433-0.036 0.748 0.375 0.816 1.046 1.954 3.447 2.771 0.789l-0.002 0.001z"></path>
<path fill="#ffd951" style="fill: var(--color9, #ffd951)" d="M5.627 25.134c1.276 0.014 2.164-1.284 2.297-2.595 0.251-2.481-3.162-2.475-3.169-2.472-0.907 0.353 0.237 1.685 0.046 2.611-0.222 1.082-1.631 2.626 0.54 2.476l0.286-0.019-0-0z"></path>
<path fill="#b44e17" style="fill: var(--color7, #b44e17)" d="M12.702 21.71l1.063 0.262c0.189 0.039 0.33-0.058 0.475-0.172 0.427-0.336 0.847-0.925 1.116-1.289 0.113-0.153 0.227-0.304 0.35-0.451 0.197-0.229 0.359-0.42 0.645-0.521 0.334-0.118 0.749-0.119 1.057-0.113 0.341 0.007 0.678 0.039 1.026 0.060l0.084 0.005c0.232 0.010 0.512 0.022 0.756-0.033 0.186-0.041 0.324-0.099 0.414-0.267l0.416-0.956c-0.192 0.363-0.696 0.378-1.053 0.382-0.867 0.010-2.012-0.235-2.914-0.010-0.118 0.029-0.234 0.068-0.346 0.116-0.269 0.135-0.471 0.371-0.664 0.596l-0.047 0.056-0.047 0.058c-0.267 0.333-0.509 0.683-0.771 1.021-0.095 0.122-0.192 0.238-0.293 0.355-0.269 0.308-0.684 0.817-1.099 0.909l-0.058 0.005-0.057-0.003-0.055-0.011 0.001 0.001zM7.857 16.026l2.033 1.399c0.727 0.481 1.76 0.625 2.412 1.108-0.518-0.406-1.129-0.987-1.71-1.296l-0.063-0.031-0.065-0.030c-0.201-0.088-0.404-0.161-0.61-0.234l-0.088-0.031-0.090-0.032-0.093-0.034-0.096-0.035c-0.562-0.21-1.126-0.45-1.629-0.782l-0.001-0.002zM18.329 15.694l0.005-0.059c0.067-0.506 0.478-1.189 0.711-1.846 0.129-0.363 0.144-0.568 0.188-0.937l0.244-2.053c-0.363 1.182-0.762 1.567-1.068 2.526-0.141 0.442-0.026 1.080-0.080 2.371l-0-0z"></path>
<path fill="#ffb701" style="fill: var(--color8, #ffb701)" d="M14.074 20.687c0.511-0.605 0.933-1.34 1.505-1.83 0.481-0.411 1.667-0.355 2.626-0.276 1.232 0.101 1.948 0.042 1.954-0.607 0.005-0.604-0.571-1.476-0.88-2.008l-0.62-1.070c-0.573-1.293-0.069-1.478 0.416-2.809 0.334-0.916 1.013-2.24-0.774-2.21-0.653 0.011-1.444 0.268-2.165 0.449-1.132 0.284-1.281 0.289-2.167-0.473-0.909-0.786-1.832-1.832-2.656-1.354-0.678 0.391-0.561 1.791-0.602 2.982-0.046 1.279-0.1 1.103-1.095 1.792-0.314 0.217-0.631 0.438-0.957 0.662-0.516 0.355-0.89 0.511-1.086 0.806-0.445 0.671-0.088 1.056 0.367 1.341 0.499 0.312 0.97 0.509 1.447 0.69 1.071 0.407 1.653 0.481 1.95 1.32 0.276 0.777 0.379 1.711 0.687 2.576 0.511 1.444 0.908 1.372 2.052 0.021z"></path>
<path fill="#ffd951" style="fill: var(--color9, #ffd951)" d="M18.355 11.961c0.515-1.585-0.119-1.713-1.612-1.492-2.351 0.35-1.738 0.408-3.67-0.86-2.389-1.569-1.61 2.102-2.311 2.986-1.050 1.329-4.363 2.269-0.715 3.655 2.602 0.987 5.897-0.186 7.52-2.406 0.19-0.262 0.676-1.543 0.788-1.883z"></path>
</symbol>
<symbol id="gear" viewBox="0 0 29 32">
<path fill="#282a3c" style="fill: var(--color28, #282a3c)" d="M19.020 16.598c0.513-1.049 0.246-2.51-0.306-3.459l-0.169-0.28c-0.137-0.213-0.303-0.405-0.492-0.571-2.256-2.050-5.415-1.179-6.621 1.236-1.562 3.136 2.211 6.841 5.556 5.099 1.112-0.581 1.423-0.778 2.031-2.024zM4.069 12.742c0.276 0.397-0.119-0.591 0-1.251 0.636-3.506 1.335-2.386 3.204-4.248 0.61-0.607 0.643-1.437 1.402-1.562 1.793-0.296 3.182 2.597 4.427 2.305 0.732-0.171 0.667-0.137 0.939-0.862 1.175-3.221 0.744-3.411 4.039-2.595 5.001 1.239-1.504 6.591 4.539 5.687 2.83-0.422 2.058-0.846 2.878 2.009 0.122 0.427 1.478 2.127 1.213 2.854-0.275 0.786-0.869 2.053-1.037 2.483-0.535 1.308-2.065 0.491-2.099 1.661 0.196 0.316 2.016 0.602 2.099 1.328 0.109 0.828-0.402 1.725-0.469 2.1-0.576 2.266 0.028 1.59-1.384 3.032-0.424 0.436-1.749 1.833-2.055 2.020-1.923 1.17-3.277-2.39-4.857-1.286-1.079 0.755-0.069 3.966-3.845 3.011-1.052-0.261-3.58-0.681-4.231-1.315-1.107-1.078 0.195-3.138-0.35-3.862-0.931-1.24-1.924-0.058-3.554-0.267-1.499-0.192-1.621-1.882-1.996-3.015-0.679-2.054-0.699-2.247-0.264-3.959 0.33-1.331 0.332-1.529 0.718-1.775 0.552-0.388 1.139-0.72 1.752-0.992l-1.070-1.5z"></path>
<path fill="#5b698c" style="fill: var(--color29, #5b698c)" d="M18.957 15.587c0.503-1.049 0.257-2.507-0.277-3.452l-0.151-0.276c-0.136-0.207-0.298-0.394-0.484-0.558-2.177-2.030-5.25-1.136-6.438 1.283-1.54 3.14 2.097 6.81 5.358 5.049 1.090-0.597 1.391-0.799 1.992-2.047zM4.469 11.848c-0.283-0.421-0.231-0.528-0.109-1.188 0.167-0.911 0.705-2.059 0.904-2.476 0.567-1.191 0.992-0.468 2.358-1.855 0.589-0.612 0.634-1.439 1.372-1.57 1.735-0.313 3.070 2.565 4.282 2.267 0.701-0.177 0.652-0.139 0.918-0.868 1.162-3.216 0.739-3.391 3.929-2.601 4.846 1.2-1.506 6.584 4.367 5.638 2.75-0.442 2.004-0.861 2.782 1.985 0.114 0.425 1.84 1.988 1.587 2.718-0.271 0.787-0.859 2.054-1.029 2.484-0.519 1.31-2.429 0.629-2.467 1.785 0.194 0.322 1.96 0.584 2.039 1.308 0.089 0.834-0.414 1.733-0.483 2.107-0.576 2.264 0.007 1.583-1.371 3.035-0.417 0.438-1.711 1.843-2.012 2.031-1.873 1.181-3.164-2.362-4.705-1.248-1.064 0.759-0.104 3.955-3.753 3.034-1.019-0.252-3.471-0.654-4.097-1.282-1.067-1.068 0.211-3.134-0.312-3.852-0.895-1.233-1.87-0.045-3.444-0.24-1.455-0.181-1.561-1.867-1.917-2.995-0.645-2.045-0.661-2.237-0.228-3.95 0.33-1.331 0.333-1.531 0.71-1.78 0.538-0.391 1.113-0.728 1.716-1.007l-1.032-1.482-0.004-0.001z"></path>
<path fill="#5b698c" style="fill: var(--color29, #5b698c)" d="M18.957 15.587c-0.152 0.341-0.338 0.666-0.554 0.971 0.615-1.599-1.137-3.365-2.878-3.748-2.305-0.505-4.957 0.653-3.864 2.985 0.203 0.425 0.477 0.812 0.811 1.145-0.373-0.323-0.676-0.721-0.887-1.167s-0.328-0.932-0.341-1.425c-0.031-0.609 0.092-1.215 0.356-1.764 1.191-2.429 4.263-3.322 6.441-1.293 0.188 0.167 0.352 0.359 0.487 0.572l0.151 0.274c0.528 0.943 0.776 2.402 0.271 3.45l0.006 0.002z"></path>
<path fill="#b9bfe1" style="fill: var(--color30, #b9bfe1)" d="M18.957 15.587c0.503-1.049 0.257-2.507-0.277-3.452l-0.151-0.276c-0.136-0.207-0.298-0.394-0.484-0.558-2.177-2.030-5.25-1.136-6.438 1.283-1.543 3.128 1.077 6.192 4.849 5.3 1.094-0.59 1.9-1.049 2.5-2.297zM20.698 7.417c0.446 0.249 0.626 0.512 1.031 0.877 0.317 0.286 0.432 0.024 2.041-0.178 1.649-0.203 1.827-0.040 2.377 2.038 0.213 0.802 1.032 2.905 0.742 3.687-0.219 0.603-0.518 0.59-1.040 0.802l-0.154 0.065-0.076 0.034-1.855 0.839-0.32 1.408c0.453 0.318 0.907 0.934 1.301 1.492 0.364 0.513 0.67 0.716 0.625 1.28-0.079 0.981-1.221 1.887-2.141 2.809-2.115 2.104-1.49 1.965-4.496-0.132-0.496-0.342-0.483-0.102-1.171 0.049s-0.578-0.051-1.252 1.864c-0.789 2.248-1.049 1.584-5.253 0.584-0.858-0.213-1.412-0.302-1.506-1.047-0.144-1.187 0.668-2.607 0.108-3.212-1.27-1.379-0.956-0.631-3.379-0.423-1.684 0.143-1.694-1.668-2.387-4.031-0.523-1.787-0.237-2.058 0.927-2.593 2.297-1.054 1.851-0.453 2.342-2.286-0.073-0.086-0.127-0.132-0.2-0.216l-0.107-0.125c-0.984-1.198-2.465-2.22-0.997-3.63 0.087-0.076 0.166-0.162 0.234-0.255 0.095-0.108 0.177-0.193 0.297-0.314 0.224-0.24 0.325-0.331 0.587-0.603s0.218-0.27 0.534-0.555c0.98-0.889 0.857-1.48 1.872-1.371s2.008 1.237 2.92 1.783c0.535-0.233 0.971-0.25 1.286-0.452 0.415-0.269 0.785-1.818 1.090-2.474 0.52-1.128 1.623-0.592 2.364-0.413 0.937 0.232 3.168 0.531 3.706 1.137 0.443 0.502 0.269 0.831 0.192 1.631-0.063 0.626-0.156 1.275-0.24 1.933l-0.002-0.001z"></path>
<path fill="#eef2ff" style="fill: var(--color31, #eef2ff)" d="M5.018 17.184c0.944 3.26 0.838 0.665 0.944-1.299 0.050-0.927 0.846-1.888 0.819-1.934-0.155-0.257-2.26 0.097-2.022 1.595l0.253 1.633 0.007 0.006z"></path>
<path fill="#eef2ff" style="fill: var(--color31, #eef2ff)" d="M15.616 17.9c-1.949 0.034-3.016-0.721-3.591-1.505-1.153-1.578 0.028-4.456 0.343-4.921-0.688 0.487-1.792 2.595-1.309 4.173 1.174 3.827 5.798 2.231 5.402 2.238l-0.844 0.014z"></path>
<path fill="#eef2ff" style="fill: var(--color31, #eef2ff)" d="M22.204 9.397c0.393 0.183 0.949 0.27 1.678 0.573 0.974 0.41 1.037 0.763 1.288 0.803 0.358 0.058 0.258-0.74 0.226-0.914-0.113-0.748-0.516-1.391-1.353-1.255-0.187 0.030-2.814 0.348-1.845 0.793l0.007-0.001z"></path>
</symbol>
<symbol id="google-play-icon" viewBox="0 0 135 32">
<path fill="#5778c4" style="fill: var(--color32, #5778c4)" d="M0.316 27.658l12.405-12.329c-3.783-3.875-7.843-7.7-11.625-11.551-0.23-0.235-0.459-0.627-0.778-0.741-0.244 0.54-0.119 10.772-0.119 12.276v6.199c0 1.152-0.133 5.367 0.115 6.149l0.001-0.002z"></path>
<path fill="#e93131" style="fill: var(--color33, #e93131)" d="M0.316 27.658c0.224 0.992 0.917 1.689 1.619 2.086 2.007 1.138 3.772-0.354 5.395-1.263l9.457-5.426c0.339-0.193 2.161-1.197 2.339-1.368-1.374-1.448-3.286-3.26-4.792-4.754l-1.192-1.185c-0.21-0.207-0.285-0.225-0.356-0.419h-0.065l-12.405 12.329z"></path>
<path fill="#3bac49" style="fill: var(--color34, #3bac49)" d="M0.32 3.037c0.319 0.114 0.55 0.506 0.778 0.741 3.781 3.851 7.841 7.675 11.623 11.551h0.065c1.060-1.086 2.072-2.092 3.143-3.155 0.545-0.541 1.045-1.039 1.589-1.58 0.326-0.323 1.413-1.314 1.585-1.599l-0.263-0.191c-0.111-0.069-0.205-0.117-0.309-0.176l-4.099-2.366c-1.575-0.893-3.179-1.788-4.726-2.718-0.789-0.474-1.581-0.895-2.359-1.361-1.743-1.046-3.459-2.37-5.429-1.263-0.65 0.365-1.472 1.166-1.6 2.116v0.001z"></path>
<path fill="#f5b50b" style="fill: var(--color35, #f5b50b)" d="M12.786 15.329c0.070 0.194 0.146 0.212 0.356 0.419l1.192 1.185c1.506 1.494 3.418 3.307 4.792 4.754 0.296-0.097 4.105-2.326 4.486-2.544 1.509-0.861 3.293-1.548 3.263-3.834-0.029-2.172-1.747-2.893-3.277-3.757-0.389-0.219-4.198-2.469-4.493-2.557-0.172 0.284-1.26 1.276-1.586 1.599-0.545 0.542-1.044 1.039-1.589 1.58-1.072 1.063-2.083 2.066-3.143 3.155z"></path>
<path fill="#000" style="fill: var(--color14, #000)" d="M51.023 18.866l-7.030-0.018-0.008 2.049c0.367 0.085 4.256 0.034 4.967 0.034 0.054 0.473-0.282 1.366-0.469 1.731-0.116 0.239-0.259 0.463-0.428 0.669-2.407 2.817-7.858 2.286-9.291-2.063-1.242-3.779 1.759-7.632 5.813-7.234 1.484 0.146 2.331 0.749 3.179 1.428l1.444-1.431c-0.26-0.403-1.326-1.094-1.941-1.388-4.142-1.976-9.285 0.256-10.679 4.625-1.741 5.455 3.171 11.046 9.257 9.691 0.896-0.199 1.718-0.547 2.366-0.992 2.252-1.543 3.375-4.31 2.82-7.1v-0.001zM76.13 7.369l1.1 0.004 0.019-5.287c0.211 0.159 0.283 0.365 0.458 0.636l1.266 2.024c0.141 0.219 1.528 2.578 1.724 2.625h1.039v-7.165h-1.129l0.008 5.101c-0.336-0.373-2.812-4.597-3.239-5.101h-1.227l-0.022 7.161 0.002 0.002zM58.002 7.374h1.129v-7.168h-1.126v7.171l-0.004-0.003zM60.019 1.294h1.94l0.013 6.077h1.129v-6.077l1.948-0.004-0.007-1.084h-4.983l-0.041 1.087 0.001 0.001zM49.762 1.294h1.937l0.017 6.077h1.13v-6.067l1.947-0.011-0.008-1.087h-4.999l-0.023 1.087zM44.777 7.371l4.279 0.007 0.029-1.057-3.149-0.027-0.031-1.967 2.865-0.003v-1.032l-2.845-0.032-0.023-1.966h3.148l0.027-1.077-4.283-0.009-0.020 7.161 0.002 0.002zM70.886 1.202c1.594-0.353 2.798 0.735 3.038 1.998 0.311 1.634-0.634 2.9-1.9 3.181-3.449 0.766-4.415-4.453-1.139-5.179zM70.963 0.082c-0.713 0.083-1.386 0.37-1.939 0.826-0.917 0.781-1.425 1.984-1.269 3.39 0.215 1.921 1.935 3.483 4.18 3.197 1.912-0.243 3.419-1.954 3.164-4.177-0.218-1.912-1.929-3.509-4.136-3.235zM43.805 3.435h-3.723v1.063h2.501c-0.276 2.568-4.279 2.64-4.898-0.023-0.328-1.414 0.367-2.526 1.218-3.006 0.565-0.303 1.218-0.4 1.848-0.275 0.856 0.171 0.929 0.445 1.378 0.79l0.774-0.771c-0.892-1.215-3.286-1.57-4.8-0.541-3.377 2.293-1.204 7.702 3.011 6.765 0.803-0.174 1.517-0.63 2.009-1.285 0.248-0.337 0.423-0.722 0.513-1.13 0.115-0.485 0.018-1.239 0.169-1.585v-0.001zM84.422 26.613l0.007 0.236h2.149l0.013-0.235v-14.173h-2.167v14.173l-0.003-0.001zM124.647 17.63c0.104 0.408 2.745 6.269 2.985 6.806 0.821 1.84 0.984 1.651 0.55 2.588l-1.881 4.193h2.139c0.268-0.117 0.673-1.325 0.824-1.661l4.466-10.209c0.173-0.386 0.656-1.367 0.723-1.723l-2.377 0.019c-0.449 1.022-0.839 2.106-1.247 3.136l-0.935 2.36c-0.089 0.222-0.183 0.603-0.381 0.74-0.367-1.094-1.679-4.126-2.273-5.551-0.376-0.901 0.097-0.696-2.593-0.696l0.001-0.003zM112.596 26.614l0.007 0.236h2.147l0.012-0.236v-14.172h-2.164v14.172h-0.002zM122.371 22.968c-0.29 2.384-3.33 2.75-4.086 1.588-0.258-0.396-0.166-0.972 0.081-1.337 0.69-1.007 3.305-0.921 4.007-0.252h-0.002zM116.242 19.504c0.126 0.111 1.711 0.76 1.925 0.796 0.817-1.743 4.36-1.193 4.203 0.948-3.213-1.413-6.706 0.238-6.397 3.057 0.296 2.698 3.965 3.613 5.756 2.079 0.124-0.1 0.234-0.216 0.329-0.343 0.122-0.157 0.163-0.272 0.315-0.321l0.020 1.111h2.050c0.083-0.365 0.031-4.242 0.031-4.955 0-1.813-0.371-2.772-1.382-3.615-2.078-1.735-6.001-0.977-6.851 1.245l0.001-0.001zM89.792 22.092c0.004-1.382 0.654-2.179 1.537-2.599 1.107-0.526 2.552-0.136 2.85 0.813l-4.387 1.786zM96.603 24.973c-0.213-0.209-1.416-1.005-1.681-1.098-1.005 1.736-3.858 1.87-4.753-0.118 0.223-0.191 4.085-1.715 4.908-2.056 0.516-0.213 1.134-0.503 1.642-0.665-0.542-1.964-2.195-3.825-4.707-3.683-5.12 0.29-5.976 7.69-1.303 9.464 1.143 0.429 2.402 0.438 3.551 0.026 0.948-0.343 2.009-1.166 2.345-1.87h-0.003zM64.899 22.846c-0.722-4.021 4.809-4.892 5.453-1.203 0.313 1.797-0.749 3.201-2.182 3.514-1.712 0.373-3.023-0.935-3.27-2.309v-0.002zM66.865 17.4c-2.536 0.384-4.538 2.582-4.139 5.564 0.334 2.496 2.657 4.558 5.624 4.132 2.525-0.361 4.584-2.597 4.174-5.551-0.348-2.527-2.649-4.601-5.661-4.145l0.002-0.001zM56.467 19.312c1.685-0.237 2.945 1.041 3.117 2.528 0.201 1.726-0.887 3.114-2.327 3.337-3.704 0.575-4.476-5.348-0.791-5.866h0.001zM56.050 17.404c-2.525 0.396-4.596 2.636-4.108 5.652 0.399 2.47 2.676 4.456 5.644 4.038 2.532-0.357 4.569-2.633 4.133-5.621-0.36-2.473-2.686-4.534-5.668-4.066v-0.002zM103.631 14.457c0.882-0.045 2.498-0.073 3.354 0.010 0.431 0.037 0.844 0.187 1.198 0.434s0.636 0.582 0.818 0.972c0.182 0.39 0.258 0.82 0.219 1.248s-0.19 0.838-0.439 1.189c-0.434 0.616-1.095 1.076-2.223 1.076l-2.926-0.007v-4.922zM101.467 26.611l0.008 0.236h2.146l0.009-5.451c1.699-0.069 3.484 0.222 4.979-0.4 1.198-0.498 2.21-1.472 2.612-2.812 0.518-1.73-0.072-3.164-0.922-4.166-0.743-0.875-2.147-1.58-3.866-1.58h-4.967v14.173zM78.083 19.302c1.646-0.215 2.799 1.138 2.922 2.633 0.139 1.691-0.863 3.147-2.393 3.269-1.646 0.131-2.844-1.172-2.955-2.681-0.122-1.69 0.936-3.028 2.426-3.221v-0.001zM80.873 18.423c-0.244-0.054-0.261-0.189-0.489-0.37-2.364-1.884-6.935 0.126-6.907 4.246 0.019 2.943 2.604 5.099 5.156 4.823 0.621-0.067 1.357-0.339 1.788-0.722 0.199-0.176 0.212-0.297 0.449-0.35 0 1.765-0.258 3.007-1.739 3.441-0.756 0.222-1.601 0.118-2.191-0.236-0.82-0.492-0.757-0.771-1.195-1.355l-1.815 0.75c-0.006-0.012-0.026 0.018-0.038 0.029 0.244 0.742 0.954 1.466 1.4 1.849 1.867 1.606 5.36 1.325 6.79-0.836 1.017-1.536 0.844-3.596 0.844-5.632 0-2.14 0-4.281 0-6.422h-2.055v0.783h0.003z"></path>
</symbol>
<symbol id="google-button-white" viewBox="0 0 134 32">
<path fill="#5778c4" style="fill: var(--color1, #5778c4)" d="M0.575 28.089l12.369-12.333c-3.772-3.877-7.82-7.702-11.591-11.554-0.23-0.235-0.458-0.627-0.776-0.742-0.244 0.54-0.118 10.776-0.118 12.28v6.201c0 1.152-0.133 5.369 0.115 6.151l0.001-0.002z"></path>
<path fill="#e93131" style="fill: var(--color2, #e93131)" d="M0.575 28.090c0.223 0.993 0.914 1.689 1.615 2.087 2.001 1.138 3.761-0.354 5.38-1.263l9.43-5.428c0.338-0.193 2.155-1.198 2.332-1.368-1.37-1.448-3.277-3.261-4.778-4.756l-1.189-1.185c-0.21-0.207-0.285-0.225-0.355-0.419h-0.065l-12.369 12.333z"></path>
<path fill="#3bac49" style="fill: var(--color3, #3bac49)" d="M0.578 3.46c0.318 0.114 0.549 0.506 0.776 0.742 3.77 3.852 7.818 7.678 11.59 11.554h0.065c1.057-1.086 2.066-2.092 3.134-3.156 0.544-0.541 1.042-1.039 1.585-1.581 0.325-0.323 1.409-1.315 1.58-1.599l-0.262-0.191c-0.111-0.069-0.204-0.117-0.308-0.176l-4.087-2.367c-1.571-0.893-3.169-1.789-4.712-2.719-0.787-0.474-1.576-0.895-2.352-1.362-1.738-1.046-3.449-2.371-5.413-1.263-0.648 0.365-1.468 1.167-1.595 2.117v0.001z"></path>
<path fill="#f5b50b" style="fill: var(--color4, #f5b50b)" d="M13.009 15.756c0.070 0.195 0.146 0.212 0.355 0.419l1.189 1.185c1.501 1.494 3.408 3.308 4.778 4.756 0.296-0.097 4.093-2.326 4.473-2.545 1.505-0.861 3.284-1.548 3.254-3.835-0.029-2.173-1.742-2.894-3.268-3.759-0.388-0.219-4.186-2.47-4.48-2.557-0.172 0.284-1.256 1.277-1.581 1.599-0.543 0.542-1.041 1.040-1.585 1.581-1.069 1.063-2.077 2.067-3.134 3.156z"></path>
<path fill="#fff" style="fill: var(--color5, #fff)" d="M51.135 19.294l-7.009-0.018-0.008 2.050c0.366 0.085 4.243 0.034 4.953 0.034 0.054 0.474-0.281 1.367-0.468 1.731-0.115 0.239-0.258 0.463-0.427 0.669-2.4 2.818-7.835 2.287-9.265-2.063-1.238-3.78 1.754-7.635 5.796-7.236 1.479 0.146 2.325 0.749 3.169 1.428l1.44-1.431c-0.259-0.403-1.322-1.094-1.935-1.388-4.13-1.976-9.258 0.257-10.648 4.627-1.736 5.457 3.162 11.049 9.23 9.694 0.894-0.199 1.713-0.547 2.359-0.992 2.245-1.543 3.366-4.312 2.811-7.103v-0.001zM76.169 7.793l1.097 0.004 0.019-5.289c0.21 0.159 0.282 0.365 0.457 0.636l1.263 2.024c0.14 0.219 1.524 2.579 1.719 2.626h1.036v-7.167h-1.126l0.008 5.103c-0.335-0.373-2.804-4.599-3.23-5.103h-1.223l-0.021 7.163 0.001 0.002zM58.095 7.799h1.126v-7.17h-1.122v7.173l-0.003-0.003zM60.106 1.716h1.935l0.013 6.079h1.126v-6.079l1.942-0.004-0.007-1.085h-4.968l-0.041 1.088 0.001 0.001zM49.878 1.716h1.931l0.016 6.079h1.126v-6.069l1.942-0.011-0.008-1.087h-4.985l-0.023 1.088zM44.907 7.795l4.267 0.007 0.029-1.058-3.14-0.027-0.030-1.967 2.857-0.003v-1.032l-2.837-0.032-0.023-1.967h3.139l0.027-1.077-4.271-0.009-0.020 7.163 0.002 0.002zM70.942 1.624c1.59-0.353 2.789 0.735 3.030 1.998 0.31 1.634-0.632 2.901-1.894 3.182-3.439 0.767-4.403-4.455-1.136-5.181zM71.018 0.504c-0.711 0.083-1.382 0.37-1.933 0.826-0.914 0.782-1.421 1.985-1.265 3.391 0.215 1.922 1.929 3.484 4.168 3.198 1.906-0.243 3.409-1.955 3.155-4.179-0.218-1.912-1.924-3.51-4.125-3.236zM43.938 3.858h-3.712v1.063h2.494c-0.275 2.569-4.267 2.641-4.884-0.023-0.327-1.414 0.366-2.527 1.214-3.007 0.563-0.303 1.215-0.4 1.843-0.275 0.853 0.171 0.926 0.446 1.374 0.79l0.772-0.771c-0.89-1.216-3.277-1.57-4.786-0.541-3.367 2.294-1.201 7.705 3.002 6.767 0.801-0.174 1.512-0.63 2.003-1.286 0.248-0.337 0.422-0.722 0.512-1.13 0.115-0.485 0.018-1.239 0.168-1.585v-0.001zM84.438 27.043l0.006 0.236h2.144l0.013-0.235v-14.178h-2.16v14.178l-0.002-0.001zM124.547 18.058c0.104 0.408 2.737 6.271 2.976 6.809 0.819 1.84 0.982 1.651 0.549 2.589l-1.876 4.195h2.133c0.267-0.117 0.671-1.325 0.821-1.661l4.453-10.213c0.172-0.386 0.654-1.368 0.721-1.723l-2.37 0.019c-0.448 1.022-0.836 2.106-1.244 3.137l-0.932 2.361c-0.088 0.223-0.183 0.603-0.38 0.74-0.366-1.094-1.674-4.128-2.267-5.553-0.375-0.901 0.097-0.696-2.585-0.696l0.001-0.003zM112.531 27.044l0.007 0.236h2.141l0.012-0.236v-14.177h-2.158v14.177h-0.002zM122.277 23.397c-0.289 2.385-3.32 2.751-4.074 1.589-0.257-0.396-0.166-0.973 0.080-1.337 0.688-1.007 3.296-0.922 3.996-0.252h-0.002zM116.166 19.932c0.126 0.111 1.707 0.76 1.919 0.796 0.814-1.744 4.348-1.193 4.191 0.948-3.203-1.414-6.687 0.238-6.379 3.058 0.295 2.698 3.954 3.615 5.74 2.080 0.124-0.1 0.234-0.216 0.328-0.343 0.122-0.157 0.163-0.272 0.314-0.322l0.020 1.111h2.044c0.082-0.365 0.031-4.244 0.031-4.957 0-1.814-0.37-2.773-1.378-3.616-2.072-1.736-5.984-0.977-6.831 1.246l0.001-0.001zM89.793 22.522c0.004-1.382 0.652-2.18 1.533-2.6 1.103-0.526 2.544-0.136 2.841 0.813l-4.374 1.787zM96.584 25.403c-0.212-0.209-1.412-1.006-1.676-1.098-1.001 1.736-3.846 1.871-4.739-0.118 0.223-0.192 4.073-1.715 4.895-2.057 0.514-0.213 1.13-0.503 1.637-0.666-0.541-1.965-2.189-3.827-4.693-3.684-5.105 0.291-5.958 7.692-1.3 9.467 1.14 0.43 2.396 0.439 3.541 0.026 0.946-0.343 2.004-1.167 2.339-1.871h-0.003zM64.971 23.275c-0.72-4.022 4.795-4.894 5.437-1.203 0.313 1.798-0.746 3.202-2.176 3.515-1.707 0.373-3.014-0.935-3.261-2.31v-0.002zM66.932 17.827c-2.529 0.384-4.525 2.582-4.127 5.565 0.334 2.497 2.65 4.559 5.607 4.134 2.519-0.361 4.572-2.598 4.162-5.553-0.348-2.528-2.641-4.602-5.645-4.146l0.002-0.001zM56.564 19.74c1.68-0.237 2.937 1.041 3.108 2.529 0.2 1.727-0.885 3.115-2.321 3.339-3.693 0.575-4.463-5.35-0.789-5.868h0.001zM56.148 17.832c-2.518 0.396-4.582 2.636-4.096 5.654 0.398 2.471 2.668 4.458 5.628 4.039 2.525-0.357 4.556-2.633 4.121-5.622-0.36-2.474-2.678-4.536-5.652-4.067v-0.002zM103.591 14.883c0.88-0.045 2.49-0.073 3.344 0.010 0.429 0.037 0.841 0.187 1.194 0.434s0.635 0.582 0.816 0.972c0.182 0.39 0.257 0.821 0.219 1.249s-0.19 0.839-0.438 1.19c-0.433 0.616-1.091 1.076-2.217 1.076l-2.917-0.007v-4.923zM101.434 27.041l0.008 0.236h2.14l0.009-5.452c1.694-0.069 3.474 0.222 4.965-0.401 1.195-0.498 2.204-1.472 2.604-2.813 0.516-1.73-0.071-3.165-0.919-4.167-0.74-0.875-2.141-1.581-3.854-1.581h-4.953v14.178zM78.117 19.73c1.641-0.215 2.791 1.138 2.914 2.634 0.139 1.691-0.861 3.148-2.386 3.27-1.641 0.131-2.836-1.172-2.946-2.681-0.122-1.691 0.933-3.029 2.418-3.222v-0.001zM80.899 18.851c-0.244-0.054-0.26-0.189-0.488-0.37-2.358-1.884-6.914 0.126-6.887 4.247 0.020 2.943 2.596 5.101 5.142 4.824 0.619-0.067 1.353-0.339 1.783-0.722 0.198-0.176 0.212-0.297 0.447-0.35 0 1.766-0.257 3.008-1.733 3.443-0.754 0.222-1.596 0.118-2.184-0.236-0.817-0.492-0.755-0.771-1.191-1.355l-1.81 0.75c-0.007-0.012-0.026 0.018-0.038 0.029 0.244 0.742 0.952 1.466 1.396 1.85 1.861 1.607 5.345 1.325 6.771-0.836 1.014-1.537 0.841-3.598 0.841-5.633 0-2.141 0-4.282 0-6.424h-2.049v0.784h0.002z"></path>
</symbol>
<symbol id="hand" viewBox="0 0 29 32">
<path fill="#656dbc" style="fill: var(--color36, #656dbc)" d="M19.96 17.969c0.539 0.073 8.34-3.734 9.269 0.814 0.586 2.726-2.572 3.468-6.031 4.722-1.262 0.963-4.877 4.617-8.44 5.318-2.711 4.629-8.55 3.537-12.067 0.775-3.117-2.448-3.481-5.916-0.408-9.212 0.613-3.139-0.438-5.849 0.605-8.41 0.458-1.126 0.552-3.413 2.665-3.684 0.102-0.124 1.692-1.122 3.251-1.052 0.579 0.027 1.621 0.377 1.845 1.030 1.417-0.158 3.41-1.22 3.782-1.098 2.481 0.816 1.968 3.335 1.919 4.304 0.264-2.423 0.48-4.8 2.219-5.784 2.016-1.142 1.624-6.011 2.702-4.812 2.674 1.68 3.662 5.559 1.818 9.653-1.065 2.365-2.826 4.709-3.129 7.434l-0.001 0.003z"></path>
<path fill="#fafdfa" style="fill: var(--color37, #fafdfa)" d="M21.811 1.396c1.112 2.023 0 5.15-1.923 8.475-1.473 2.916-3.082 3.933-3.47 7.184-0.351 3.436 7.002-2.638 10.306-1.332 1.563 2.857-1.296 3.086-3.46 3.547-7.86 1.67-4.469 4.11-9.506 7.162-2.353 1.428-4.377 0.743-6.831 0.838 1.784 1.964 1.237 3.226-1.595 2.97-3.693-1.862-6.409-5.33-3.477-9.367 0.118 1.030 0.264 2 1.149 2.701-1.052-3.117-2.852-15.541 2.552-15.283-0.187 1.005-0.393 1.228-0.004 2.735 0.375-1.192-0.062-2.073 0.943-3.090 0.945-0.956 3.218-0.875 3.787-0.119-0.28 1.227-0.908 2.224-0.574 3.24 0.426-0.421 0.501-2.495 1.416-3.546 0.624-0.717 1.849-1.313 3.212-0.421 0.933 2.223-0.177 2.463-1.067 5.243 4.65 0.614 2.495-10.517 5.538-11.985 0.674-0.325 1.979-0.132 3.004 1.047z"></path>
<path fill="#d8daf5" style="fill: var(--color38, #d8daf5)" d="M5.332 30.24c2.832 0.256 3.379-1.004 1.595-2.97 2.455-0.095 4.479 0.59 6.832-0.836 5.036-3.052 1.645-5.492 9.506-7.162 2.164-0.459 5.023-0.689 3.46-3.547 2.060 0.532 4.378 3.688 0.157 5.28-0.916 0.346-1.79 0.523-2.724 0.804-4.536 1.379-6.705 7.108-15.196 6.382 1.635 1.035 2.601 1.187 4.278 1.032-1.329 2.184-5.727 2.063-7.906 1.018l-0.001-0.001z"></path>
<path fill="#d8daf5" style="fill: var(--color38, #d8daf5)" d="M18.866 17.725c-2.198 0.877-2.622 0.377-2.419-0.877 0.501-3.094 1.974-4.435 3.441-6.976 1.922-3.326 2.933-6.397 1.923-8.475 1.28 1.812 1.351 3.021 1.243 4.59-0.328 4.793-3.796 7.519-4.188 11.739z"></path>
<path fill="#656dbc" style="fill: var(--color36, #656dbc)" d="M9.156 17.607c0.581-2.149 2.619-1.972 1.71 0.935-0.579 1.849-2.718 2.791-1.71-0.935z"></path>
<path fill="#d8daf5" style="fill: var(--color38, #d8daf5)" d="M15.023 11.817c-0.525 0.652-1.423 0.54-1.757 0.515 0.656-2.244 1.787-3.375 1.067-5.243 1.45 1.203 1.21 2.721 0.689 4.728z"></path>
<path fill="#656dbc" style="fill: var(--color36, #656dbc)" d="M4.554 17.196c-0.132-1.417 0.018-3.136 0.748-2.95 0.557 0.14 0.623 1.551 0.379 2.805-0.38 1.959-0.893 2.65-1.127 0.14v0.005z"></path>
</symbol>
<symbol id="burger" viewBox="0 0 33 32">
<path  d="M7.003 6.667h18.667c0.736 0 1.333 0.597 1.333 1.333s-0.597 1.333-1.333 1.333h-18.667c-0.736 0-1.333-0.597-1.333-1.333s0.597-1.333 1.333-1.333z"></path>
<path  d="M11.669 14.667h14c0.736 0 1.333 0.597 1.333 1.333s-0.597 1.333-1.333 1.333h-14c-0.736 0-1.333-0.597-1.333-1.333s0.597-1.333 1.333-1.333z"></path>
<path  d="M16.336 22.667h9.333c0.736 0 1.333 0.597 1.333 1.333s-0.597 1.333-1.333 1.333h-9.333c-0.736 0-1.333-0.597-1.333-1.333s0.597-1.333 1.333-1.333z"></path>
</symbol>
<symbol id="close" viewBox="0 0 33 32">
<path d="M10.679 8.457l13.199 13.199c0.521 0.521 0.521 1.365 0 1.886s-1.365 0.521-1.886 0l-13.199-13.199c-0.521-0.521-0.521-1.365 0-1.886s1.365-0.521 1.886 0z"></path>
<path d="M8.794 21.657l9.899-9.899c0.521-0.521 1.365-0.521 1.886 0s0.521 1.365 0 1.886l-9.899 9.899c-0.521 0.521-1.365 0.521-1.886 0s-0.521-1.365 0-1.886z"></path>
<path d="M15.393 15.057l6.6-6.6c0.521-0.521 1.365-0.521 1.886 0s0.521 1.365 0 1.886l-6.6 6.6c-0.521 0.521-1.365 0.521-1.886 0s-0.521-1.365 0-1.886z"></path>
</symbol>
<symbol id="connect" viewBox="0 0 32 32">
<path fill="#852325" style="fill: var(--color7, #852325)" d="M7.162 18.994l-0.297 2.25c-0.257 2.963 2.839 4.93 5.476 4.618l6.015-0.881c0.588-0.105 1.064-0.283 1.375-0.806l0.909-1.878-0.074 0.123-0.079 0.117-0.085 0.112-0.088 0.106-0.099 0.1-0.101 0.095-0.108 0.088-0.113 0.081-0.119 0.074-0.124 0.067-0.13 0.059-0.135 0.050-0.14 0.043-0.145 0.035-0.15 0.027-6.015 0.88-0.252 0.030-0.252 0.016-0.252 0.002-0.251-0.011-0.25-0.025-0.246-0.037-0.246-0.049-0.243-0.061-0.239-0.074-0.236-0.084-0.232-0.096-0.227-0.103-0.222-0.117-0.216-0.127-0.21-0.137-0.204-0.148-0.197-0.156-0.189-0.165-0.182-0.173-0.172-0.182-0.164-0.19-0.155-0.197-0.146-0.207-0.135-0.212-0.123-0.219-0.114-0.226-0.101-0.232-0.089-0.238-0.077-0.243-0.064-0.249-0.049-0.254-0.036-0.258-0.020-0.242-0.007-0.237 0.007-0.232 0.020-0.227z"></path>
<path fill="#c1282e" style="fill: var(--color8, #c1282e)" d="M12.934 24.355l6.016-0.88c1.629-0.239 2.414-1.974 1.921-3.806-0.474-1.758-2.034-3.253-3.627-3.398l-5.76-0.527c-2.511-0.23-4.61 1.58-4.322 4.189 0.307 2.778 3.088 4.817 5.772 4.423z"></path>
<path fill="#852325" style="fill: var(--color7, #852325)" d="M12.768 23.505l0.152-0.018c1.91-0.233 3.009-1.926 2.64-3.715-0.357-1.718-2.004-3.173-3.831-3.305l-0.145-0.011c-2.044-0.148-3.695 1.361-3.439 3.459 0.268 2.205 2.467 3.854 4.624 3.591l-0.001-0.001z"></path>
<path fill="#fbfbfb" style="fill: var(--color9, #fbfbfb)" d="M12.768 23.505l0.152-0.018c1.501-0.183 2.502-1.268 2.681-2.593-0.011-0.083-0.025-0.166-0.042-0.25-0.357-1.718-2.004-3.173-3.831-3.306l-0.145-0.011c-1.755-0.127-3.218 0.966-3.437 2.603 0.277 2.197 2.47 3.837 4.622 3.573l0 0.001z"></path>
<path fill="#ebecec" style="fill: var(--color10, #ebecec)" d="M19.585 18.762c-0.242-0.164-0.497-0.308-0.762-0.432l-0.156 0.504c0.277 0.116 0.542 0.262 0.788 0.434l0.13-0.505zM16.67 21.502l0.584 0.303 1.472-4.391-0.482-0.154-0.286 0.771c-0.928-0.211-1.828-0.046-2.47 0.591l0.561 0.583c0.223-0.235 0.499-0.413 0.805-0.52 0.289-0.095 0.594-0.127 0.896-0.093l-0.253 0.683c-0.341 0.066-0.633 0.248-0.887 0.515l0.502 0.521-0.442 1.192v-0.001zM18.753 22.018l0.249-0.974-0.004-0.005c-0.324-0.263-0.728-0.331-0.963-0.164l-0.093 0.299 0.811 0.844zM19.176 20.361l0.064-0.249 0.079-0.31c-0.257-0.172-0.533-0.313-0.822-0.421l-0.182 0.588c0.279 0.054 0.57 0.191 0.862 0.392l-0.001-0.001z"></path>
<path fill="#009846" style="fill: var(--color11, #009846)" d="M18.357 16.024l-6.248-1.071c-1.749-0.3-2.588-2.117-2.024-4.024 0.552-1.864 2.326-3.402 4.097-3.462l6.268-0.208c2.665-0.089 4.655 1.941 4.105 4.596-0.57 2.742-3.513 4.63-6.198 4.17z"></path>
<path fill="#184234" style="fill: var(--color12, #184234)" d="M18.579 15.194l-0.155-0.025c-1.96-0.296-3.037-2.045-2.56-3.873 0.466-1.788 2.317-3.247 4.274-3.279l0.155-0.002c2.163-0.035 3.73 1.64 3.274 3.775-0.469 2.192-2.812 3.732-4.987 3.403z"></path>
<path fill="#fbfbfb" style="fill: var(--color9, #fbfbfb)" d="M18.579 15.194l-0.155-0.025c-1.49-0.224-2.47-1.288-2.644-2.589 0.019-0.144 0.047-0.287 0.084-0.428 0.466-1.789 2.317-3.248 4.274-3.28l0.155-0.002c1.753-0.029 3.116 1.067 3.325 2.621-0.013 0.099-0.030 0.199-0.051 0.299-0.47 2.192-2.813 3.732-4.988 3.403z"></path>
<path fill="#184234" style="fill: var(--color12, #184234)" d="M24.556 11.854l0.044-0.246 0.030-0.243 0.015-0.239 0.002-0.234-0.012-0.23-0.025-0.225-0.038-0.219-0.049-0.214-0.062-0.208 0.618 1.878c0.302 1.281-0.264 2.627-1.007 3.564-0.82 1.033-1.895 1.607-3.174 1.938-0.414 0.091-0.837 0.138-1.261 0.141l-0.254-0.010-0.255-0.023-0.252-0.036-6.025-1.029c-0.671-0.135-0.853-0.25-1.299-0.771l-1-1.398 0.097 0.113 0.103 0.107 0.109 0.101 0.115 0.094 0.122 0.088 0.127 0.080 0.133 0.074 0.139 0.065 0.145 0.058 0.15 0.049 0.156 0.041 0.161 0.033 6.248 1.071 0.252 0.036 0.253 0.023 0.254 0.010 0.254-0.003 0.254-0.016 0.253-0.029 0.251-0.040 0.25-0.052 0.246-0.064 0.244-0.075 0.241-0.086 0.237-0.097 0.233-0.107 0.228-0.118 0.222-0.128 0.217-0.137 0.211-0.147 0.204-0.156 0.197-0.165 0.19-0.172 0.181-0.181 0.172-0.19 0.164-0.197 0.154-0.204 0.144-0.212c0.349-0.571 0.534-1.014 0.687-1.661l0.004-0.001z"></path>
<path fill="#ebecec" style="fill: var(--color10, #ebecec)" d="M16.097 9.829c-0.045-0.069-0.095-0.136-0.148-0.2-0.369-0.471-0.896-0.702-1.498-0.72-0.581-0.026-1.247 0.148-1.941 0.536-0.092 0.049-0.185 0.103-0.278 0.16v0.005l-0.005 0.003 0.031 0.577c0.681-0.423 1.306-0.626 1.869-0.598 0.577 0.034 1.022 0.31 1.327 0.832l0.638-0.586-0.002-0.004 0.006-0.006h-0.001zM12.426 13.205v-0.006l-0.005 0.005c-0.019-0.36-0.033-0.718-0.051-1.053l0.005-0.005c0.233-0.171 0.478-0.273 0.667-0.251s0.324 0.172 0.384 0.381v0.006c-0.325 0.298-0.661 0.613-0.998 0.923h-0.001zM12.328 11.4v-0.017l-0.005 0.003-0.015-0.263-0.018-0.339 0.005-0.003v-0.003c0.082-0.048 0.163-0.093 0.243-0.135 0.448-0.237 0.873-0.367 1.252-0.337 0.39 0.026 0.685 0.215 0.91 0.519 0.043 0.056 0.083 0.115 0.119 0.176l-0.003 0.003 0.002 0.004-0.625 0.574-0.002-0.004-0.017 0.015c-0.315-0.643-1.023-0.707-1.846-0.193l-0.001-0.001z"></path>
</symbol>
<symbol id="downloads" viewBox="0 0 32 32">
<path fill="#cb76f6" style="fill: var(--color1, #cb76f6)" d="M13.797 13.987l-2.463-2.624-1.75 1.593 5.605 5.94 5.332-4.909-1.669-1.966-2.559 2.293 0.009-7.99c0 0-2.318-0.181-2.459-0.182l-0.044 7.844h-0.002z"></path>
<path fill="#b45bca" style="fill: var(--color2, #b45bca)" d="M16.301 6.324l1.857-0.602-2.52-0.18-1.795 0.6c0.14 0 2.459 0.182 2.459 0.182h-0zM18.85 12.021l2.066-0.582 1.522 1.78-1.917 0.767-1.669-1.966h-0.002z"></path>
<path fill="#cb76f6" style="fill: var(--color1, #cb76f6)" d="M20.869 24.325l2.529-2.349-1.663-1.935-1.984 1.743-9.37-0.858-1.942-2.137-1.732 1.586 2.835 2.984c3.776 0.318 7.551 0.653 11.328 0.967l-0.001-0z"></path>
<path fill="#8f33ad" style="fill: var(--color3, #8f33ad)" d="M20.521 13.987l-5.332 4.909 2.168-1.019 5.081-4.657-1.917 0.767zM18.157 5.722l-1.857 0.602-0.009 7.99 1.879-1.683-0.013-6.907v-0.001zM11.334 11.363l1.779-0.335 0.697 0.747-0.013 2.212-2.463-2.624z"></path>
<path fill="#8f33ad" style="fill: var(--color3, #8f33ad)" d="M23.398 21.976l-2.603 2.39 1.828-0.726 2.672-2.365-1.896 0.701z"></path>
<path fill="#8f33ad" style="fill: var(--color3, #8f33ad)" d="M8.438 18.789l1.903-0.587 1.807 1.946-1.768 0.778-1.942-2.137z"></path>
<path fill="#8f33ad" style="fill: var(--color3, #8f33ad)" d="M19.751 21.786l1.060-0.941-8.662-0.697-1.768 0.778 9.371 0.86z"></path>
<path fill="#b45bca" style="fill: var(--color2, #b45bca)" d="M21.714 20.060l2.038-0.524 1.542 1.739-1.898 0.696-1.682-1.911z"></path>
</symbol>
<symbol id="explorer" viewBox="0 0 24 32">
<path fill="#96a9f5" style="fill: var(--color48, #96a9f5)" d="M21.811 5.072c1.175 1.926 1.69 4.184 1.466 6.429-0.339 3.473-2.557 6.919-6.016 8.486-2.77 1.257-4.66 0.963-7.373 0.492 0.026-0.029 0.049-0.059 0.071-0.091-5.231-1.646-7.952-6.207-7.726-10.801 0.152-3.087 1.836-5.637 4.294-7.396 4.351-3.113 11.357-2.879 14.786 2.030 0.111 0.159 0.308 0.498 0.498 0.851z"></path>
<path fill="#4543ab" style="fill: var(--color49, #4543ab)" d="M21.811 5.072c3.855 6.323 0.431 16.002-8.965 15.815-3.862-0.077-7.133-2.103-8.979-4.951-1.074-1.659-1.6-3.618-1.644-5.58 0.545 4.435 3.675 7.321 7.028 8.327 8.053 2.414 16.167-5.189 12.561-13.61z"></path>
<path fill="#b0c1f8" style="fill: var(--color50, #b0c1f8)" d="M10.38 6.577c0.152-0.027 0.279-0.116 0.401-0.176 0.866-0.429 2.193-0.666 2.997-0.026 0.947 0.754 0.884 2.060 0.491 3.032-0.246 0.608-0.393 0.886-0.744 1.376-0.738 1.028-2.195 2.244-3.604 2.389l-0.239 0.039c0.229 0.040 0.254 0.261 0.348 0.405 0.706 1.070 1.591 1.833 2.866 2.443 0.447 0.033 1.517-0.261 1.902-0.403 0.758-0.28 1.684-0.719 2.277-1.219 0.108-0.091 0.228-0.161 0.33-0.255s0.201-0.191 0.305-0.282c1.829-1.622 2.738-4.339 1.99-6.712-0.087-0.272-0.191-0.539-0.311-0.798-0.26-0.564-0.344-0.545-0.426-0.685-0.625-0.64-1.409-1.102-2.272-1.338-2.248-0.628-4.886 0.221-6.311 2.208l0.001-0z"></path>
<path fill="#96a9f5" style="fill: var(--color48, #96a9f5)" d="M1.549 27.037c0.346-0.134 1.448 0.093 2.102 0.624 0.44 0.358 0.855 1.122 1.491 0.573 2.772-2.4 4.299-7.142 4.407-7.84-0.148-0.126-1.54-1.771-1.791-1.904l-6.209 8.547z"></path>
<path fill="#fff" style="fill: var(--color23, #fff)" d="M10.381 6.577c-0.093 0.112-0.31 0.229-0.425 0.31-1.008 0.709-1.857 1.753-2.27 2.889-0.383 1.053-0.453 2.46 0.68 3.146 0.549 0.331 0.976 0.226 1.317 0.29l0.238-0.038c1.409-0.145 2.865-1.361 3.604-2.389 0.351-0.489 0.498-0.768 0.744-1.376 0.393-0.971 0.456-2.278-0.491-3.033-0.803-0.64-2.13-0.404-2.997 0.026-0.122 0.060-0.249 0.149-0.401 0.176l0-0.001z"></path>
<path fill="#fff" style="fill: var(--color23, #fff)" d="M15.854 8.575c0.607 0.578 1.545-0.905 1-1.339-0.675-0.539-1.623 0.746-1 1.339z"></path>
<path fill="#4543ab" style="fill: var(--color49, #4543ab)" d="M7.352 14.56c-0.019-0.076-0.412-0.841-0.58-1.395-0.523-1.731-0.148-3.486 0.694-4.979 1.617-2.863 6.205-4.902 9.687-3.666 0.682 0.242 1.235 0.681 1.811 1.186-0.738-1.626-3.322-2.848-5.191-3.043-2.589-0.27-4.676 0.686-6.016 1.738-2.454 1.925-3.569 5.067-2.146 8.064 0.192 0.405 0.472 0.801 0.753 1.152 0.139 0.174 0.848 0.918 0.989 0.943l-0.001-0z"></path>
<path fill="#4543ab" style="fill: var(--color49, #4543ab)" d="M8.93 21.632c-0.053 0.341-0.476 0.785-2.745 4.546-1.269 2.103-1.112 2.288-2.354 1.308-0.334-0.272-2.24-0.983-2.431-0.237-0.098 0.381 0.142 0.944 0.274 1.127 0.463 0.638 3.185 2.224 4.095 2.062 0.258-0.046 0.453-0.121 0.56-0.32 0.11-0.203 0.318-0.611 0.318-0.611s2.323-5.53 3.484-9.004c0.477-0.609-0.049-1.398-0.665-1.723-0.288-0.152-1.064-0.444-1.464-0.423-0.691 0.036-0.934 0.636-0.7 0.915 0.444 0.528 1.8 1.586 1.628 2.358l-0 0.002z"></path>
<path fill="#7e98e0" style="fill: var(--color51, #7e98e0)" d="M7.352 14.56c0.104 0.074 0.123 0.126 0.249 0.217 0.577 0.418 1.396 0.798 2.1 1.020 0.63 0.2 2.653 0.507 3.194 0.263-1.276-0.609-2.16-1.374-2.866-2.443-0.095-0.144-0.119-0.365-0.348-0.405-0.34-0.064-0.768 0.042-1.317-0.29-1.133-0.686-1.063-2.093-0.68-3.146 0.413-1.135 1.262-2.18 2.27-2.889 0.115-0.081 0.331-0.198 0.425-0.31 0.598-0.904 2.763-2.338 4.742-2.422-3.796-0.163-6.744 2.416-7.657 4.031-0.843 1.494-1.22 3.248-0.694 4.979 0.168 0.553 0.561 1.318 0.58 1.395l0.001 0z"></path>
</symbol>
<symbol id="flash" viewBox="0 0 29 32">
<path fill="#49a5fc" style="fill: var(--color52, #49a5fc)" d="M3.838 17.878l2.853 1.954c0.556 0.387 3.389 1.926 3.542 2.276l-0.402 2.56c-0.216 1.376-0.805 2.779-0.686 3.935 0.685-0.556 0.838-0.828 1.392-1.393 1.181-1.21 3.543-3.676 5.52-6.035 0.781-0.934 1.643-2.030 2.273-2.947 0.82-1.192 0.671-1.466-0.434-2.971-0.4-0.543-2.242-2.548-2.1-3.217 0.916-1.523 7.112-9.434 6.234-11.204-0.585-1.149-14.417 3.415-16.078 4.082-1.522 0.612-1.891 0.787-2.354 2.28-0.619 1.961-0.886 6.265-0.587 8.938 0.118 1.050 0.003 1.177 0.829 1.743l-0.003 0.001z"></path>
<path fill="#356efd" style="fill: var(--color53, #356efd)" d="M9.14 28.604c0.242 0.534 0.525 1.050 0.847 1.541 0.798 1.219 0.814 0.875 1.802-0.037 2.393-2.215 5.418-6.129 7.23-8.191 0.899-1.236 1.308-1.614 1.134-2.541-0.121-0.643-0.864-1.753-1.407-2.786l0.012 0.044c0.192 0.509 0.046 0.892-0.44 1.598-0.312 0.455-0.685 0.954-1.072 1.456-0.308 0.402-0.65 0.828-1.017 1.27l-0.013 0.016-0.171 0.205c-1.971 2.357-4.334 4.825-5.514 6.034-0.555 0.561-0.707 0.837-1.392 1.393l0.001-0zM8.604 23.058l1.355 0.767 0.272-1.714c-0.156-0.349-2.982-1.878-3.542-2.276l-2.848-1.956c-0.375-0.257-0.555-0.424-0.653-0.627 0.196 0.607 0.944 2.728 1.251 3.172 0.439 0.632 3.365 2.188 4.165 2.632l0 0.001zM17.057 14.243c0.488-0.983 4.649-7.35 5.521-8.63 0.535-0.785 0.508-1.471 0.174-2.693-0.18-0.648-0.308-1.596-0.713-2.029 0.724 1.878-5.352 9.637-6.258 11.146 0 0 0.003 0.013-0.003 0.023-0.018 0.14 0.059 0.369 0.185 0.626 0.318 0.55 0.684 1.071 1.094 1.557z"></path>
<path fill="#49a5fc" style="fill: var(--color52, #49a5fc)" d="M5.201 9.021c-0.524 2.642-1.177 5.978-1.178 5.998-0.040 1.243-0.708 1.391 4.623 4.73 3.161 1.98 2.916 1.414 2.007 4.769-0.159 0.586-0.315 1.498-0.567 1.868 0.355-0.081 3.514-3.969 5.606-6.705 1.537-2.017 2.479-2.242 1.019-4.202-0.557-0.748-1.278-1.571-1.746-2.252-0.679-0.989-0.402-0.931 0.197-1.933l2.554-4.208c0.518-0.874 1.096-1.769 1.643-2.683 1.529-2.574 1.673-2.979-0.394-2.44-2.721 0.703-8.041 2.071-11.050 3.129-2.527 0.887-2.22 1.441-2.711 3.928l-0.003-0.001z"></path>
<path fill="#c1e1ff" style="fill: var(--color54, #c1e1ff)" d="M7.859 5.529c-2.284 0.952-2.862 2.027-2.725 4.608 0.145 2.777 1.641-0.542 2.173-1.253 1.302-1.75 5.697-5.137 0.553-3.354z"></path>
<path fill="#c1e1ff" style="fill: var(--color54, #c1e1ff)" d="M5.453 12.398c-1.37 0.216-0.805 1.954 0.236 1.33 0.609-0.363 0.281-1.271-0.236-1.33z"></path>
</symbol>
</defs>
</svg>
