<svg aria-hidden="true" style="position: absolute; width: 0; height: 0; overflow: hidden;" version="1.1" xmlns="http://www.w3.org/2000/svg" xmlns:xlink="http://www.w3.org/1999/xlink">
<defs>
<symbol id="arrow-down" viewBox="0 0 55 32">
<path d="M27.429 19.668l-12.065-12.131c-0.9-0.906-2.36-0.906-3.26 0s-0.9 2.375 0 3.282l13.579 13.654c0.48 0.483 1.118 0.7 1.746 0.668 0.628 0.032 1.266-0.186 1.746-0.668l13.579-13.654c0.9-0.906 0.9-2.376 0-3.282s-2.36-0.906-3.26 0l-12.065 12.131z"></path>
</symbol>
<symbol id="arrow-up" viewBox="0 0 55 32">
<path d="M27.415 12.332l12.065 12.131c0.9 0.906 2.36 0.906 3.26 0s0.9-2.375 0-3.282l-13.579-13.654c-0.48-0.483-1.118-0.7-1.746-0.668-0.628-0.032-1.266 0.186-1.746 0.668l-13.579 13.654c-0.9 0.906-0.9 2.375 0 3.282s2.36 0.906 3.26 0l12.065-12.131z"></path>
</symbol>
<symbol id="hand" viewBox="0 0 32 32">
<path fill="#656dbc" style="fill: var(--color10, #656dbc)" d="M19.836 17.374c0.395 0.053 6.116-2.738 6.797 0.597 0.43 1.999-1.886 2.543-4.423 3.463-0.926 0.706-3.576 3.386-6.189 3.9-1.988 3.395-6.27 2.594-8.849 0.568-2.286-1.795-2.552-4.338-0.299-6.755 0.449-2.302-0.321-4.289 0.443-6.167 0.336-0.825 0.405-2.503 1.954-2.702 0.075-0.091 1.241-0.823 2.384-0.771 0.424 0.020 1.189 0.276 1.353 0.755 1.039-0.116 2.501-0.895 2.774-0.805 1.82 0.599 1.443 2.446 1.408 3.156 0.194-1.777 0.352-3.52 1.627-4.241 1.479-0.838 1.191-4.408 1.982-3.529 1.961 1.232 2.686 4.076 1.333 7.079-0.781 1.734-2.073 3.453-2.295 5.452l-0.001 0.002z"></path>
<path fill="#fafdfa" style="fill: var(--color11, #fafdfa)" d="M21.527 5.221c0.815 1.483 0 3.776-1.41 6.215-1.080 2.138-2.26 2.884-2.545 5.268-0.257 2.52 5.135-1.934 7.557-0.977 1.146 2.095-0.95 2.263-2.537 2.601-5.764 1.224-3.277 3.014-6.971 5.252-1.725 1.047-3.21 0.545-5.010 0.615 1.308 1.44 0.907 2.366-1.169 2.178-2.708-1.366-4.7-3.909-2.55-6.869 0.086 0.755 0.193 1.467 0.842 1.981-0.771-2.286-2.092-11.397 1.872-11.207-0.137 0.737-0.288 0.901-0.003 2.006 0.275-0.874-0.045-1.52 0.692-2.266 0.693-0.701 2.36-0.642 2.777-0.087-0.206 0.9-0.665 1.631-0.421 2.376 0.312-0.309 0.368-1.829 1.038-2.6 0.458-0.526 1.356-0.963 2.355-0.309 0.685 1.63-0.13 1.806-0.783 3.845 3.41 0.451 1.829-7.712 4.061-8.789 0.494-0.238 1.451-0.097 2.203 0.768z"></path>
<path fill="#d8daf5" style="fill: var(--color12, #d8daf5)" d="M9.109 26.372c2.077 0.188 2.478-0.736 1.169-2.178 1.8-0.070 3.285 0.433 5.010-0.613 3.693-2.238 1.207-4.027 6.971-5.252 1.587-0.337 3.683-0.505 2.537-2.601 1.511 0.39 3.21 2.705 0.115 3.872-0.672 0.253-1.312 0.384-1.997 0.589-3.326 1.011-4.917 5.212-11.144 4.68 1.199 0.759 1.908 0.87 3.137 0.756-0.975 1.602-4.2 1.513-5.798 0.747l-0.001-0.001z"></path>
<path fill="#d8daf5" style="fill: var(--color12, #d8daf5)" d="M19.034 17.195c-1.612 0.643-1.923 0.276-1.774-0.643 0.368-2.269 1.447-3.252 2.524-5.116 1.409-2.439 2.151-4.691 1.41-6.215 0.939 1.329 0.99 2.215 0.911 3.366-0.24 3.515-2.783 5.514-3.071 8.608z"></path>
<path fill="#656dbc" style="fill: var(--color10, #656dbc)" d="M11.913 17.108c0.426-1.576 1.921-1.446 1.254 0.686-0.424 1.356-1.993 2.047-1.254-0.686z"></path>
<path fill="#d8daf5" style="fill: var(--color12, #d8daf5)" d="M16.216 12.862c-0.385 0.478-1.044 0.396-1.288 0.378 0.481-1.646 1.31-2.475 0.783-3.845 1.064 0.883 0.888 1.995 0.506 3.467z"></path>
<path fill="#656dbc" style="fill: var(--color10, #656dbc)" d="M8.538 16.807c-0.097-1.039 0.013-2.3 0.549-2.164 0.408 0.103 0.457 1.137 0.278 2.057-0.279 1.436-0.655 1.944-0.826 0.103v0.004z"></path>
</symbol>
<symbol id="lamp" viewBox="0 0 32 32">
<path fill="#818181" style="fill: var(--color16, #818181)" d="M22.351 24.949l-2.331 1.478c-0.23 0.145-0.508 0.193-0.773 0.133s-0.496-0.222-0.642-0.451l-0.297-0.47-0.203-0.293c-0.297 0.1-0.624 0.062-0.947-0.164s-0.641-0.694-0.908-1.131c-0.166-0.274-0.329-0.547-0.494-0.818-0.077-0.127-0.101-0.28-0.067-0.425s0.124-0.271 0.249-0.351l3.761-2.384c0.217-0.137 0.399-0.236 0.548-0.348 0.605-0.452 0.921-0.387 1.407 0.381 0.27 0.427 0.379 0.59 0.623 1.034 0.307 0.557 0.23 0.943 0.031 1.414-0.024 0.052-0.036 0.109-0.036 0.166l0.481 0.76c0.141 0.224 0.19 0.493 0.138 0.752s-0.202 0.488-0.418 0.64l-0.122 0.077 0.002-0.001z"></path>
<path fill="#c3c3c3" style="fill: var(--color17, #c3c3c3)" d="M16.86 22.997l0.118 0.186 0.003 0.002c0.112 0.181 0.157 0.259 0.196 0.327 0.047 0.081 0.086 0.148 0.222 0.364 0.345 0.545 1.040 0.73 1.544 0.411l1.866-1.183c0.057-0.036 0.124-0.076 0.195-0.118 0.289-0.171 0.655-0.388 0.811-0.64 0.112-0.191 0.169-0.409 0.164-0.631s-0.072-0.437-0.193-0.622l-0.615-0.972c-0.068-0.107-0.176-0.182-0.3-0.21s-0.253-0.005-0.36 0.063l-3.461 2.194c-0.134 0.085-0.23 0.221-0.265 0.376s-0.008 0.319 0.077 0.454z"></path>
<path fill="#c3c3c3" style="fill: var(--color17, #c3c3c3)" d="M20.37 25.421l1.594-1.010-0.003-0.001 0.084-0.053c0.304-0.214 0.37-0.67 0.143-1.029l-0.21-0.332-2.835 1.797 0.211 0.333c0.233 0.369 0.691 0.503 1.017 0.296z"></path>
<path fill="#f8d129" style="fill: var(--color18, #f8d129)" d="M15.777 21.883c-0.197 0.011-0.222 0.060-0.431 0.064-0.085 0.003-0.25-0.015-0.365-0.029-0.611-0.068-0.927-0.379-1.421-0.911-0.244-0.264-0.35-0.326-0.613-0.566-0.732-0.674-0.972-0.788-1.466-0.901l-0.598-0.202c-1.070-0.458-2.545-1.211-3.343-2.153-1.187-1.402-1.835-3.565-1.545-5.401 0.342-2.161 1.428-3.906 3.532-5.174 1.245-0.755 2.704-1.076 4.151-0.913 1.092 0.127 1.76 0.361 2.689 0.823 2.961 1.49 3.759 4.202 3.454 7.358l-0.046 0.463c-0.008 0.439 0.471 1.987 0.625 2.649 0.358 1.54 0.265 1.888-0.468 2.366-0.407 0.265-1.082 0.686-1.807 1.145-0.515 0.327-1.877 1.273-2.349 1.379l0 0.003z"></path>
<path fill="#ff9e28" style="fill: var(--color19, #ff9e28)" d="M7.766 8.015c-1.608 2.669-0.877 5.632 0.414 7.215 1.349 1.652 3.317 1.886 4.445 3.026 2.495 2.524 3.726 2.41 7.305 1.101-0.332 0.199-1.54 0.976-1.784 1.131-0.547 0.347-1.402 0.911-1.873 1.187-1.008 0.592-1.556 0.579-2.715-0.67-0.53-0.572-1.328-1.299-2.082-1.469l-0.597-0.202c-1.070-0.458-2.545-1.211-3.343-2.153-2.218-2.485-2.373-6.66 0.229-9.168l0.001 0.001z"></path>
<path fill="#f8d129" style="fill: var(--color18, #f8d129)" d="M2.485 10.071c-1.204-0.268-2.245-0.186-2.327 0.184s0.826 0.888 2.028 1.156c1.203 0.269 2.245 0.187 2.328-0.183s-0.826-0.888-2.029-1.157z"></path>
<path fill="#f8d129" style="fill: var(--color18, #f8d129)" d="M7.714 3.003c-0.592-0.935-1.339-1.525-1.668-1.316s-0.116 1.137 0.476 2.072c0.592 0.936 1.336 1.527 1.668 1.317 0.329-0.209 0.116-1.137-0.476-2.073z"></path>
<path fill="#f8d129" style="fill: var(--color18, #f8d129)" d="M22.15 6.912c-1.072 0.679-1.771 1.497-1.563 1.827s1.244 0.047 2.318-0.633c1.074-0.681 1.772-1.498 1.563-1.827s-1.244-0.047-2.319 0.634z"></path>
<path fill="#f8d129" style="fill: var(--color18, #f8d129)" d="M24.264 14.938c-1.203-0.269-2.243-0.188-2.327 0.183-0.083 0.37 0.823 0.889 2.031 1.154 1.203 0.269 2.245 0.187 2.327-0.183 0.079-0.368-0.829-0.886-2.032-1.154z"></path>
<path fill="#f8d129" style="fill: var(--color18, #f8d129)" d="M15.013 2.129c0.271-1.203 0.791-2.111 1.16-2.027s0.452 1.125 0.177 2.33c-0.271 1.203-0.79 2.111-1.16 2.028s-0.449-1.127-0.178-2.33z"></path>
<path fill="#f8d129" style="fill: var(--color18, #f8d129)" d="M10.099 23.917c0.271-1.204 0.791-2.112 1.161-2.028s0.448 1.127 0.177 2.33c-0.271 1.204-0.791 2.112-1.161 2.028s-0.448-1.127-0.177-2.33z"></path>
<path fill="#f8d129" style="fill: var(--color18, #f8d129)" d="M4.086 18.363c-1.072 0.679-1.771 1.497-1.563 1.827s1.244 0.047 2.318-0.633c1.072-0.679 1.772-1.498 1.563-1.827s-1.247-0.046-2.319 0.634z"></path>
<path fill="#fefefe" style="fill: var(--color9, #fefefe)" d="M17.582 10.644c-0.329 0.209-0.765 0.111-0.974-0.219s-0.111-0.766 0.219-0.975 0.765-0.111 0.974 0.219c0.209 0.33 0.111 0.766-0.219 0.975z"></path>
<path fill="#fdfef4" style="fill: var(--color20, #fdfef4)" d="M11.894 6.789c1.38-0.354 3.014 0.174 3.886 0.902 0.651 0.543 0.478 0.968 0.224 1.189-0.238 0.205-0.504 0.246-1.376-0.234-0.615-0.339-1.418-0.722-2.323-0.599-0.464 0.063-1.357 0.369-1.651-0.076-0.425-0.643 0.731-1.052 1.24-1.181z"></path>
</symbol>
<symbol id="medal" viewBox="0 0 32 32">
<path fill="#852325" style="fill: var(--color1, #852325)" d="M17.255 17.195l-5.033 1.844 3.661 10.222c0.189 0.295 0.465 0.525 0.791 0.657 0.102 0.023 0.209 0.020 0.309-0.008s0.193-0.082 0.268-0.155l3.328-3.262 4.642 0.413c0.104 0.008 0.207-0.011 0.302-0.053s0.178-0.108 0.241-0.19 0.105-0.179 0.122-0.281c0 0 0.215-0.503 0.181-0.601l-3.996-10.304-4.815 1.718z"></path>
<path fill="#dd3e48" style="fill: var(--color2, #dd3e48)" d="M17.309 16.613l-4.82 1.723 3.789 10.6c0.036 0.097 0.096 0.184 0.174 0.252s0.172 0.116 0.273 0.139 0.207 0.021 0.307-0.007c0.1-0.028 0.192-0.080 0.267-0.152l3.332-3.26 4.644 0.412c0.104 0.008 0.208-0.010 0.303-0.052s0.178-0.107 0.242-0.189c0.064-0.082 0.106-0.179 0.123-0.281s0.008-0.207-0.025-0.306l-3.789-10.6-4.821 1.72z"></path>
<path fill="#e39390" style="fill: var(--color3, #e39390)" d="M18.372 28.125l0.984-0.973-3.045-8.518-1.181 0.422 3.242 9.069zM22.393 26.067l1.376 0.126-3.241-9.066-1.181 0.422 3.045 8.518z"></path>
<path fill="#da8503" style="fill: var(--color4, #da8503)" d="M7.119 8.13l-0.576 1.25 1.088 3.547-1.264 3.424 3.32 1.832 1.615 3.364 3.607-0.957 3.55 1.334 1.781-3.182 3.401-1.478 0.576-1.25-17.098-7.884z"></path>
<path fill="#f9da0b" style="fill: var(--color5, #f9da0b)" d="M15.675 12.044l-8.855 3.166 3.288 1.87 5.567-5.035 8.855-3.166-3.289-1.863-5.566 5.028zM15.675 12.044l-8.494-4.010 0.995 3.629 7.5 0.381-3.158-8.833-1.878 3.285 5.036 5.548zM15.675 12.044l4.031-8.484-3.638 0.998-0.393 7.486zM15.675 12.044l8.493 4.007-1-3.644-7.493-0.363 3.158 8.833 1.875-3.284-5.033-5.549-0.378 7.481-3.638 0.998 4.016-8.479z"></path>
<path fill="#ffbe05" style="fill: var(--color6, #ffbe05)" d="M15.675 12.044l7.493 0.363 1.362-3.529-8.855 3.166-0.378 7.481 3.536 1.353-3.158-8.833zM15.675 12.044l5.565-5.031-1.529-3.438-4.036 8.47 0.377-7.484-3.535-1.35 3.158 8.833-5.032-5.547-3.447 1.531 8.479 4.015-7.493-0.363-1.362 3.529 8.855-3.166-4.029 8.48-1.532-3.437 5.561-5.043 5.032 5.546 3.446-1.534-8.478-4.012z"></path>
<path fill="#da8503" style="fill: var(--color4, #da8503)" d="M19.659 10.261c0.763 2.135-0.459 4.508-2.72 5.316s-4.711-0.252-5.473-2.384 0.456-4.516 2.717-5.325c2.261-0.808 4.712 0.265 5.476 2.393z"></path>
<path fill="#da8503" style="fill: var(--color4, #da8503)" d="M14.893 17.7c3.252 0.418 6.22-1.825 6.63-5.011s-1.894-6.108-5.146-6.526c-3.252-0.418-6.221 1.825-6.63 5.011s1.894 6.108 5.146 6.526z"></path>
<path fill="#f9da0b" style="fill: var(--color5, #f9da0b)" d="M14.949 17.269c3.252 0.418 6.208-1.728 6.602-4.794s-1.922-5.891-5.174-6.309c-3.252-0.418-6.208 1.728-6.602 4.794s1.922 5.891 5.174 6.309z"></path>
<path fill="#f3bb03" style="fill: var(--color7, #f3bb03)" d="M19.949 12.502c-0.272 2.118-2.425 3.575-4.807 3.269s-4.096-2.261-3.824-4.376 2.427-3.588 4.809-3.281c2.381 0.306 4.092 2.27 3.822 4.388z"></path>
<path fill="#da8503" style="fill: var(--color4, #da8503)" d="M18.167 11.22l-1.288-0.427-0.502-1.256c-0.181-0.461-0.566-0.511-0.864-0.111l-0.797 1.089-1.348 0.088c-0.491 0.031-0.659 0.385-0.373 0.784l0.788 1.098-0.333 1.31c-0.121 0.473 0.164 0.743 0.631 0.595l1.291-0.408 1.146 0.721c0.415 0.261 0.759 0.072 0.762-0.416l0.007-0.447 0.007-0.891 1.034-0.866c0.379-0.314 0.305-0.699-0.162-0.853l0.001-0.009z"></path>
<path fill="#facd52" style="fill: var(--color8, #facd52)" d="M18.211 10.876l-1.288-0.427-0.502-1.256c-0.181-0.461-0.566-0.511-0.864-0.111l-0.797 1.089-1.348 0.088c-0.491 0.031-0.659 0.382-0.372 0.781l0.788 1.095-0.332 1.307c-0.121 0.476 0.163 0.746 0.631 0.595l1.29-0.402 1.146 0.721c0.415 0.265 0.758 0.075 0.761-0.416l0.008-0.456 0.002-0.898 1.040-0.862c0.379-0.314 0.304-0.695-0.162-0.85l-0 0.003z"></path>
<path fill="#fefefe" style="fill: var(--color9, #fefefe)" d="M17.035 13.335c-0.056-0.177-0.256-0.175-0.476-0.061s-0.325 0.292-0.208 0.487c0.045 0.077 0.105 0.144 0.178 0.196s0.154 0.090 0.241 0.11c0.324 0.108 0.353-0.456 0.267-0.722l-0.002-0.010z"></path>
</symbol>
<symbol id="puzzle" viewBox="0 0 32 32">
<path fill="#851b98" style="fill: var(--color13, #851b98)" d="M7.534 11.97c-0.098 0.297-1.148 1.49-1.389 1.832-0.219 0.46-0.781 1.095-1.136 1.622-0.377 0.29-0.704 0.64-0.967 1.035-0.298 0.46 0.261 1.64 0.477 2.154 0.543 1.289 0.529 0.986 1.779 1.784l2.010 1.284c1.061 0.712 1.413 0.561 1.675 0.295 0.465-0.468 0.784-2.081 1.182-2.986 0.813-1.854 3.089-1.442 3.728 0.196-0.043 3.301-2.454 1.231-3.218 2.838-0.034 0.111 0.010 1.014 0.079 1.332 0.204 0.945 0.313 0.793 1.135 1.307l3.246 2.033c1.459 1.026 1.715 1.536 2.561-0.097 0.511-0.985 1.155-1.905 1.693-2.874 0.841-1.513 1.23-3.030 2.047-0.876 0.319 0.841 0.561 1.361 1.669 1.699 2.17 0.246 3.636-1.7 2.791-4.338-0.049-0.565-0.368-0.491-0.691-0.783-0.959-0.869-1.935-0.331-2.944 0.048 0.202-0.336 0.427-0.86 0.684-1.353 0.554-1.058 1.192-1.813 1.963-2.707 0.815-0.946 0.414-2.613-0.169-3.685-0.168-0.104-8.725-2.302-3.579-3.167 1.409-0.24 1.931-2.014 1.409-3.635-0.657-2.033-3.079-2.411-4.355-0.534-0.815 1.199 0.226 2.902-0.652 3.279-0.171 0.070-0.833-0.306-1.509-0.743-3.712-2.397-3.818-5.169-5.99-0.659-0.743 1.547-2.046 3.874-2.694 3.218-0.309-0.311-0.276-1.082-0.482-1.41-0.233-0.372-0.028 0.19-0.21-0.405-0.231-0.76-0.942-1.586-2.28-0.789-0.976 0.58-1.747 0.611-1.971 1.619-0.205 0.919 0.329 2.644 0.986 3.049 1.046 0.644 2.601-0.010 3.124 0.421l-0.001-0.002z"></path>
<path fill="#db71fe" style="fill: var(--color14, #db71fe)" d="M4.391 7.39c-0.479 0.238-0.829 0.491-0.968 1.112-0.205 0.919 0.329 2.644 0.987 3.049 0.993 0.611 2.443 0.054 3.035 0.36l1.209-1.183-4.262-3.339z"></path>
<path fill="#db71fe" style="fill: var(--color14, #db71fe)" d="M6.959 5.961c-2.418-0.808-5.175 2.86-2.327 4.462 0.639 0.36 1.468 0.067 2.078 0.020 0.545-0.043 0.888 0.243 0.863 0.602-0.027 0.381-2.141 3.182-2.564 3.811-1.472 2.185-1.407 2.114 0.426 3.267 0.73 0.459 1.028 0.607 1.216 0.73 0.238 0.156 0.777 0.561 1.369 0.918 1.276 0.771 1.8 1.092 2.082-1.177 0.176-1.422 0.658-2.9 2.829-2.275 0.701 0.203 1.322 0.679 1.572 1.126 0.619 1.107 0.501 2.569-0.682 3.248-0.432 0.247-0.916 0.381-1.315 0.557-1.080 0.474-0.972 1.021-0.451 1.391 0.544 0.386 1.778 0.813 2.639 1.422l1.631 1.018c1.286 0.859 1.457 0.678 2.358-0.761 0.427-0.707 2.344-4.228 2.834-4.437 1.386-0.593 0.605 3.834 3.561 2.948 2.659-0.797 2.388-4.791-0.631-4.407-0.765 0.097-2.178 0.571-1.645-0.967 0.263-0.759 0.857-1.749 1.542-2.529 1.314-1.492 2.632-2.788 0.257-4.252-1.709-1.052-4.298-1.339-4.080-2.423 0.191-0.947 2.122-0.761 2.673-1.676 0.815-1.353 0.258-2.747-0.777-3.394s-2.538-0.545-3.28 0.756c-1.007 1.774 0.869 4.247-1.569 3.002-2.335-1.192-4.159-6.087-6.441-1.386-0.361 0.746-0.869 1.692-1.343 2.319-1.619 2.136-0.863-1.258-2.822-1.913l-0.002-0.001z"></path>
<path fill="#e38eff" style="fill: var(--color15, #e38eff)" d="M6.959 5.961c-4.128-0.654-4.866 5.077-0.847 4.578 1.268-0.158 1.941-0.039 1.061 1.309-0.24 0.367-0.826 1.137-1.052 1.456-0.522 3.255 16.85 4.311 19.616-0.133 0.21-0.335 0.317-0.679 0.191-1.061-0.185-0.561-0.747-1.037-1.323-1.432-0.967-0.66-3.096-1.216-3.723-1.698-0.309-0.238-0.372-0.355-0.36-0.726 0.191-0.947 2.121-0.761 2.673-1.676 0.815-1.353 0.258-2.747-0.777-3.394s-2.538-0.545-3.28 0.756c-1.011 1.774 0.864 4.247-1.573 3.002-2.335-1.194-4.162-6.087-6.441-1.386-0.362 0.746-0.869 1.692-1.344 2.319-1.618 2.136-0.864-1.258-2.822-1.913l0.001-0.001z"></path>
</symbol>
<symbol id="replay" viewBox="0 0 32 32">
<path fill="#02640b" style="fill: var(--color21, #02640b)" d="M15.93 5.677c-5.797 0.503-10.804 2.895-10.837 9.554-0.007 1.042 0.078 1.386 0.397 2.54 0.045 0.164 0.125 0.317 0.234 0.449s0.244 0.24 0.397 0.317c0.151 0.082 0.319 0.131 0.491 0.144s0.346-0.011 0.509-0.070l3.016-1.030c0.291-0.1 0.537-0.301 0.69-0.566s0.205-0.576 0.145-0.875c-0.435-2.136 0.462-4.009 2.854-4.838 0.175 2.010 0.041 3.117 1.065 3.434 1.109 0.343 3.482-0.476 6.385-1.493 6.386-2.672 2.196-6.577-2.174-9.853-1.996-1.296-2.796 0.588-3.17 2.299v-0.012z"></path>
<path fill="#02640b" style="fill: var(--color21, #02640b)" d="M16.904 13.518c1.264-0.264 2.503-0.632 3.707-1.1 1.833-0.758 3.433-1.578 3.603-2.776 0.028-0.11 0.032-0.225 0.012-0.336-0.033-0.439-0.247-0.915-0.702-1.456-1.522-2.301-5.053-5.059-6.14-4.426-0.615 0.597-1.381 1.485-1.462 2.257-2.233 0.173-4.103 0.33-6.152 1.437-2.165 1.163-4.444 3.342-4.627 6.242-0.117 0.598-0.127 2.463 0.142 3.253 0.197 0.324 0.415 0.635 0.654 0.93 0.213 0.252 0.801 0.077 1.163-0.014 0.804-0.181 1.586-0.454 2.328-0.812 0.807-0.367 0.59-0.485 0.524-1.584-0.116-2.354 1.777-4.488 3.935-4.76 0.644-0.080 0.838 0.054 0.83 0.63-0.005 0.525 0.029 1.194 0.019 1.53-0.069 1.645 0.964 1.25 2.157 1l0.009-0.015z"></path>
<path fill="#4ad505" style="fill: var(--color22, #4ad505)" d="M5.254 16.485c0.141 0.833 2.663-0.121 3.229-0.406 0.698-0.354 0.693-0.819 0.685-1.556-0.028-2.69 2.275-4.774 5.193-5.131 0.935-0.117 0.829 0.089 0.863 1.027 0.020 0.449-0.003 0.65-0.020 1.195-0.031 0.892 0.044 1.183 0.987 1.091 3.591-0.353 8.371-1.879 8.046-3.396-0.577-2.762-6.152-6.763-6.654-5.967-0.201 0.318-0.665 1.117-0.845 1.46-1.247 2.471-1.495 0.859-3.881 1.401-4.015 0.906-6.65 3.768-7.552 6.585-0.382 1.213-0.264 2.35-0.039 3.692l-0.013 0.004z"></path>
<path fill="#9eea8b" style="fill: var(--color23, #9eea8b)" d="M5.15 13.458c1.449-3.794 5.882-7.097 10.024-6.87 0.737 0.040 1.348 0.038 1.508-0.921 0.191-1.137 0.656-1.546 1.139-1.66 1.338-0.334 3.947 1.959 5.388 3.335-0.952-1.337-5.151-6.276-6.62-3.595-0.352 0.643-0.505 1.004-0.564 1.522-2.191 0.154-4.324 0.781-6.251 1.838-2.199 1.183-4.493 3.398-4.625 6.351z"></path>
<path fill="#c2ffc1" style="fill: var(--color24, #c2ffc1)" d="M22.397 7.614c-0.87-1.347-4.262-4.261-5.235-1.454-0.794 2.298 1.501 1.54 3.793 2.054 1.164 0.259 2.082 0.369 1.449-0.604l-0.007 0.004z"></path>
<path fill="#02640b" style="fill: var(--color21, #02640b)" d="M16.297 26.568c6.681-0.578 12.242-5.054 10.619-11.49-0.085-0.344-0.441-0.997-0.764-1.158-0.31-0.151-0.668-0.175-0.997-0.065l-2.564 0.71c-0.312 0.105-0.578 0.315-0.751 0.593s-0.243 0.607-0.198 0.929c0.435 2.136-1.727 3.772-4.121 4.606-0.175-2.010 0.203-3.002-0.815-3.319-1.109-0.345-3.241 0.426-6.142 1.45-6.061 2.395-1.067 7.178 2.638 10.118 1.644 0.735 2.718-0.647 3.088-2.352l0.007-0.023z"></path>
<path fill="#9eea8b" style="fill: var(--color23, #9eea8b)" d="M14.52 17.528c-1.263 0.267-2.502 0.638-3.704 1.109-1.833 0.758-3.433 1.578-3.603 2.776-0.029 0.11-0.033 0.225-0.012 0.336 0.033 0.439 0.245 0.914 0.702 1.456 1.532 2.302 5.062 5.060 6.15 4.431 0.625-0.605 1.383-1.486 1.462-2.261 2.219-0.185 4.090-0.338 6.14-1.443 2.165-1.165 4.444-3.343 4.627-6.242 0.124-0.598 0.132-2.463-0.138-3.252-0.196-0.325-0.414-0.637-0.654-0.932-0.21-0.25-0.798-0.076-1.162 0.016-0.806 0.182-1.589 0.455-2.334 0.814-0.807 0.367-0.591 0.484-0.526 1.584 0.117 2.351-1.765 4.482-3.925 4.754-0.645 0.080-0.838-0.054-0.83-0.631 0.005-0.525-0.031-1.193-0.019-1.53 0.067-1.644-0.965-1.249-2.157-1l-0.018 0.014z"></path>
<path fill="#4ad505" style="fill: var(--color22, #4ad505)" d="M26.154 14.558c-0.141-0.833-2.663 0.12-3.23 0.404-0.698 0.356-0.695 0.819-0.696 1.559 0.040 2.688-2.264 4.772-5.184 5.129-0.933 0.116-0.828-0.092-0.863-1.027-0.019-0.452 0.005-0.65 0.020-1.195 0.031-0.892-0.042-1.184-0.988-1.093-3.59 0.355-8.371 1.881-8.045 3.397 0.578 2.77 6.15 6.765 6.652 5.972 0.203-0.318 0.669-1.118 0.845-1.46 1.247-2.471 1.496-0.862 3.881-1.401 4.016-0.908 6.65-3.768 7.551-6.587 0.385-1.212 0.267-2.343 0.041-3.694l0.016-0.006z"></path>
<path fill="#02640b" style="fill: var(--color21, #02640b)" d="M26.273 17.585c-1.45 3.795-5.882 7.095-10.025 6.871-0.735-0.041-1.349-0.038-1.507 0.92-0.192 1.136-0.658 1.544-1.139 1.66-1.339 0.332-3.947-1.959-5.391-3.337 0.952 1.337 5.151 6.276 6.623 3.597 0.352-0.643 0.505-1.003 0.564-1.522 2.191-0.155 4.324-0.782 6.251-1.838 2.191-1.182 4.493-3.398 4.625-6.351z"></path>
<path fill="#c2ffc1" style="fill: var(--color24, #c2ffc1)" d="M9.025 23.427c0.88 1.345 4.262 4.261 5.235 1.454 0.794-2.298-1.501-1.538-3.792-2.053-1.164-0.259-2.084-0.368-1.449 0.603l0.007-0.004z"></path>
</symbol>
<symbol id="reviews" viewBox="0 0 32 32">
<path fill="#858bff" style="fill: var(--color1, #858bff)" d="M15.025 15.842c0.238 0.169 3.023 1.114 3.497 1.297l0.319 1.496c0.211 0.99 1.155 1.094 1.753 0.531 0.473-0.355 0.842-0.71 1.066-0.91 0.31-0.276 0.515-0.351 1.393-0.129 1.292 0.249 2.158-0.16 2.936-1.946 0.388-0.89 0.712-1.978 0.932-2.546l0.541-1.478c0.604-1.458 0.434-1.838 0.304-2.273-0.282-0.972-1.493-0.879-2.965-1.423l-5.834-1.697c-1.105-0.329-2.164-0.004-2.797 0.695-0.517 0.571-0.854 1.787-1.159 2.605-0.287 0.771-0.569 1.531-0.854 2.295-0.255 0.685-0.455 1.343-0.29 2.070 0.067 0.294 0.371 0.963 1.024 1.312 0.043 0.033 0.087 0.067 0.134 0.102l-0-0.002z"></path>
<path fill="#fff" style="fill: var(--color2, #fff)" d="M20.471 11.601c-1.381 0.41-0.905 1.993 0.332 1.616s0.922-1.988-0.332-1.616z"></path>
<path fill="#fff" style="fill: var(--color2, #fff)" d="M23.45 12.421c-1.291 0.289-1.127 1.941 0.18 1.666 0.43-0.090 0.837-0.432 0.867-0.946 0.039-0.651-0.646-0.81-1.048-0.719v-0.001z"></path>
<path fill="#fff" style="fill: var(--color2, #fff)" d="M17.547 10.751c-0.453 0.144-0.834 0.408-0.831 0.983 0.006 0.98 1.963 0.93 1.936-0.376-0.010-0.514-0.585-0.771-1.105-0.607v0z"></path>
<path fill="#3836a1" style="fill: var(--color3, #3836a1)" d="M22.011 17.924c0.136-0.045 0.308 0.017 0.771 0.134v-0c2.196 0.815 3.375-2.365 3.986-4.013 0.056-0.151 0.107-0.288 0.154-0.409l0.54-1.479c0.22-0.565 0.544-1.707 0.3-2.211 0.097 0.161 0.215 0.585 0.321 0.971 0.071 0.256 0.137 0.495 0.189 0.628 0.487 1.237 0.265 1.829-0.134 2.892-0.049 0.13-0.1 0.267-0.153 0.413-0.038 0.106-0.092 0.255-0.156 0.435-0.397 1.111-1.21 3.387-1.505 3.786-0.962 1.295-2.591 1.071-3.382 0.801-0.254 0.166-0.811 0.637-1.204 0.969-0.15 0.126-0.275 0.233-0.352 0.295-0.629 0.509-1.217 0.423-1.528-0.141-0.3-0.544-0.795-1.485-0.952-2.136 0.371 0.772 1.178 0.824 2.344-0.232 0.489-0.444 0.6-0.648 0.762-0.702z"></path>
<path fill="#3836a1" style="fill: var(--color3, #3836a1)" d="M18.841 18.636l-3.137-1.071c-0.784-0.268-1.301-0.906-1.498-1.71l-0.359-1.47c0.221 0.622 0.442 1.054 1.354 1.446 0.354 0.152 1.248 0.435 1.919 0.647 0.344 0.109 0.63 0.199 0.754 0.244 0.426 0.155 0.601 0.178 0.687 0.278 0.082 0.096 0.083 0.262 0.143 0.684l0.137 0.952z"></path>
<path fill="#2f4189" style="fill: var(--color4, #2f4189)" d="M10.027 23.692l-0.005 0.014-0.005 0.014-0.005 0.014-0.005 0.014-0.006 0.014-0.006 0.014-0.006 0.015-0.006 0.015-0.024 0.055-0.026 0.052-0.027 0.050-0.029 0.047-0.030 0.047-0.032 0.043-0.033 0.041-0.035 0.039-0.036 0.037-0.038 0.035-0.038 0.033-0.040 0.032-0.041 0.030-0.042 0.029-0.043 0.028-0.043 0.026-0.044 0.025-0.047 0.024-0.047 0.023-0.047 0.023-0.047 0.022-0.047 0.022-0.047 0.021-0.094 0.040-0.047 0.020-0.050 0.020-0.050 0.020-0.050 0.020-0.050 0.020-0.050 0.021-0.050 0.020-0.037 0.015-0.037 0.016-0.037 0.015-0.037 0.016-0.037 0.015-0.037 0.015-0.037 0.016-0.037 0.016-0.073 0.032-0.037 0.016-0.037 0.016-0.037 0.015-0.037 0.016-0.073 0.032-0.037 0.015-0.037 0.016-0.037 0.015-0.037 0.015-0.037 0.016-0.037 0.015-0.037 0.015-0.037 0.016-0.037 0.015-0.074 0.030-0.038 0.015-0.037 0.015-0.037 0.015-0.038 0.015-0.037 0.015-0.061 0.022-0.061 0.019-0.061 0.016-0.061 0.014-0.061 0.011-0.061 0.009-0.061 0.007-0.061 0.004h-0.12l-0.059-0.004-0.063-0.005-0.058-0.008-0.057-0.011-0.057-0.013-0.056-0.016-0.056-0.018-0.055-0.021-0.054-0.024-0.053-0.029-0.052-0.028-0.051-0.031-0.049-0.033-0.047-0.035-0.047-0.038-0.047-0.040-0.044-0.042-0.042-0.045-0.041-0.047-0.039-0.050-0.038-0.052-0.035-0.054-0.011-0.019-0.012-0.020-0.011-0.020-0.011-0.020-0.011-0.021-0.010-0.021-0.010-0.022-0.010-0.021-0.010-0.022-0.010-0.022-0.009-0.021-0.009-0.022-0.009-0.021-0.009-0.021-0.009-0.020-0.009-0.020-0.008-0.017-0.015-0.033-0.007-0.017-0.007-0.017-0.008-0.016-0.008-0.017-0.008-0.016-0.008-0.017-0.014-0.033-0.007-0.017-0.007-0.016-0.007-0.017-0.007-0.016-0.014-0.033-0.007-0.017-0.008-0.015-0.007-0.017-0.007-0.016-0.007-0.017-0.007-0.016-0.007-0.017-0.014-0.033-0.007-0.017-0.007-0.017-0.007-0.017-0.007-0.016-0.007-0.017-0.027-0.063-0.021-0.047-0.020-0.047-0.020-0.047-0.020-0.047-0.020-0.047-0.020-0.047-0.040-0.094-0.020-0.047-0.020-0.047-0.018-0.057-0.020-0.047-0.040-0.094-0.020-0.047-0.040-0.094-0.020-0.047-0.020-0.047-0.020-0.047-0.020-0.047-0.040-0.094-0.020-0.047-0.020-0.047-0.020-0.047-0.040-0.094-0.020-0.047-0.020-0.047-0.020-0.047-0.031-0.075-0.031-0.075-0.031-0.074-0.062-0.15-0.031-0.075-0.031-0.075-0.031-0.088-0.031-0.074-0.029-0.075-0.031-0.075-0.031-0.075-0.032-0.075-0.031-0.074-0.031-0.075-0.032-0.075-0.031-0.075-0.031-0.075-0.032-0.074-0.031-0.075-0.031-0.075-0.031-0.075-0.062-0.15-0.029-0.074-0.062-0.15-0.031-0.075-0.031-0.075-0.032-0.074-0.031-0.075-0.031-0.075-0.023-0.051-0.021-0.051-0.021-0.050-0.021-0.050-0.020-0.050-0.020-0.047-0.019-0.047-0.018-0.047-0.018-0.047-0.017-0.047-0.016-0.047-0.015-0.047-0.014-0.047-0.012-0.047-0.011-0.047-0.010-0.047-0.008-0.047-0.007-0.047-0.005-0.047-0.002-0.072v-0.049l0.13-1.625v0.049l0.003 0.049 0.005 0.047 0.007 0.047 0.008 0.047 0.010 0.047 0.011 0.047 0.013 0.047 0.014 0.047 0.015 0.047 0.016 0.047 0.017 0.047 0.018 0.047 0.018 0.047 0.020 0.049 0.019 0.068 0.020 0.047 0.021 0.050 0.021 0.050 0.022 0.051 0.021 0.051 0.063 0.15 0.031 0.075 0.031 0.075 0.031 0.074 0.031 0.075 0.062 0.15 0.031 0.075 0.031 0.074 0.031 0.075 0.031 0.075 0.031 0.075 0.031 0.075 0.031 0.074 0.031 0.075 0.031 0.075 0.062 0.15 0.031 0.075 0.031 0.074 0.031 0.075 0.031 0.075 0.062 0.15 0.031 0.074 0.031 0.075 0.031 0.075 0.031 0.075 0.033 0.077 0.031 0.074 0.031 0.075 0.020 0.047 0.020 0.047 0.040 0.094 0.020 0.047 0.040 0.094 0.020 0.047 0.020 0.047 0.020 0.047 0.040 0.094 0.020 0.047 0.040 0.094 0.020 0.047 0.020 0.047 0.020 0.047 0.020 0.047 0.040 0.094 0.020 0.047 0.020 0.047 0.020 0.047 0.020 0.047 0.040 0.094 0.020 0.047 0.020 0.047 0.021 0.047 0.040 0.094 0.005 0.039 0.007 0.017 0.007 0.016 0.007 0.017 0.007 0.017 0.007 0.017 0.007 0.016 0.007 0.016 0.007 0.017 0.007 0.016 0.007 0.016 0.007 0.017 0.007 0.016 0.007 0.017 0.007 0.016 0.007 0.017 0.007 0.016 0.007 0.016 0.007 0.017 0.007 0.016 0.007 0.017 0.007 0.016 0.007 0.017 0.008 0.016 0.015 0.033 0.008 0.017 0.008 0.016 0.008 0.017 0.008 0.016 0.007 0.017 0.008 0.016 0.009 0.020 0.018 0.041 0.010 0.022 0.009 0.021 0.009 0.022 0.010 0.021 0.010 0.022 0.010 0.021 0.021 0.042 0.010 0.021 0.011 0.020 0.011 0.020 0.011 0.019 0.011 0.019 0.035 0.054 0.038 0.052 0.040 0.050 0.040 0.047 0.042 0.047 0.044 0.042 0.047 0.040 0.047 0.038 0.047 0.035 0.047 0.033 0.051 0.031 0.052 0.029 0.053 0.026 0.054 0.023 0.055 0.021 0.056 0.018 0.056 0.016 0.057 0.014 0.058 0.011 0.058 0.008 0.059 0.006 0.059 0.003h0.12l0.060-0.004 0.061-0.006 0.061-0.009 0.061-0.012 0.061-0.014 0.061-0.017 0.061-0.019 0.061-0.022 0.037-0.015 0.038-0.015 0.037-0.014 0.038-0.015 0.037-0.015 0.038-0.015 0.037-0.015 0.037-0.015 0.074-0.031 0.039-0.014 0.037-0.015 0.037-0.015 0.037-0.016 0.037-0.015 0.037-0.016 0.037-0.015 0.037-0.016 0.037-0.016 0.034-0.016 0.037-0.016 0.073-0.032 0.037-0.016 0.037-0.016 0.221-0.093 0.037-0.015 0.050-0.021 0.101-0.040 0.1-0.040 0.050-0.020 0.094-0.039 0.094-0.041 0.094-0.043 0.047-0.023 0.047-0.024 0.047-0.024 0.047-0.025 0.043-0.026 0.043-0.028 0.042-0.029 0.041-0.031 0.039-0.032 0.039-0.033 0.037-0.035 0.036-0.037 0.035-0.039 0.033-0.041 0.032-0.043 0.031-0.047 0.029-0.047 0.027-0.049 0.026-0.053 0.024-0.055 0.006-0.015 0.006-0.014 0.005-0.014 0.006-0.014 0.006-0.014 0.005-0.014 0.005-0.014 0.005-0.013 0.018 0.009 0.017 0.008 0.018 0.008 0.018 0.008 0.018 0.008 0.018 0.008 0.019 0.007 0.019 0.007 0.019 0.007 0.019 0.006 0.020 0.006 0.020 0.006 0.020 0.005 0.021 0.005 0.020 0.005 0.042 0.008 0.022 0.003 0.022 0.003 0.022 0.003h0.285l0.026-0.002 0.026-0.002 0.026-0.003 0.053-0.008 0.026-0.005 0.027-0.005 0.027-0.006 0.027-0.006 0.027-0.006 0.027-0.007 0.027-0.007 0.027-0.008 0.026-0.008 0.053-0.016 0.053-0.017 0.026-0.008 0.026-0.009 0.025-0.009 0.025-0.009 0.025-0.009 0.025-0.009 0.024-0.009 0.024-0.009 0.024-0.009 0.024-0.008 0.023-0.008 0.022-0.008 0.023-0.008 0.022-0.008 0.040-0.015 0.040-0.014 0.040-0.015 0.079-0.030 0.040-0.015 0.040-0.015 0.039-0.015 0.044-0.013 0.039-0.015 0.158-0.062 0.039-0.017 0.039-0.015 0.079-0.031 0.079-0.031 0.039-0.017 0.039-0.016 0.039-0.016 0.039-0.016 0.079-0.032 0.039-0.015 0.079-0.032 0.039-0.015 0.079-0.032 0.066-0.027 0.066-0.027 0.132-0.054 0.065-0.027 0.132-0.054 0.066-0.028 1.672-0.695 0.047-0.018 0.094-0.036 0.094-0.035 0.423-0.153 0.047-0.017 0.047-0.018 0.047-0.018 0.094-0.038 0.047-0.019 0.047-0.020 0.047-0.021 0.045-0.022 0.047-0.022 0.045-0.023 0.047-0.024 0.045-0.024 0.047-0.025 0.047-0.027 0.045-0.027 0.069-0.044 0.066-0.047 0.063-0.047 0.062-0.047 0.058-0.049 0.056-0.051 0.054-0.053 0.051-0.054 0.047-0.055 0.047-0.056 0.043-0.058 0.040-0.059 0.037-0.060 0.034-0.061 0.031-0.063 0.028-0.063 0.025-0.065 0.022-0.066 0.018-0.067 0.015-0.068-0.13 1.625-0.015 0.068-0.018 0.067-0.022 0.066-0.025 0.065-0.028 0.064-0.031 0.063-0.034 0.062-0.037 0.060-0.040 0.059-0.043 0.058-0.047 0.056-0.047 0.055-0.051 0.054-0.081 0.055-0.056 0.051-0.059 0.050-0.061 0.047-0.064 0.047-0.066 0.047-0.069 0.044-0.047 0.027-0.047 0.026-0.045 0.025-0.047 0.024-0.045 0.024-0.047 0.023-0.045 0.022-0.047 0.022-0.047 0.021-0.094 0.040-0.047 0.019-0.094 0.037-0.094 0.036-0.047 0.017-0.376 0.135-0.094 0.035-0.094 0.036-0.047 0.018-0.047 0.019-0.047 0.020-0.132 0.054-0.034 0.024-0.066 0.027-0.065 0.028-0.198 0.082-0.065 0.028-0.263 0.109-0.066 0.028-0.197 0.082-0.066 0.028-0.197 0.082-0.066 0.028-0.197 0.082-0.066 0.027-0.066 0.027-0.762 0.31-0.079 0.031-0.040 0.015-0.039 0.015-0.039 0.016-0.040 0.015-0.039 0.016-0.079 0.031-0.039 0.015-0.039 0.016-0.039 0.015-0.040 0.015-0.040 0.015-0.040 0.015-0.040 0.015-0.040 0.015-0.040 0.015-0.040 0.015-0.040 0.015-0.040 0.015-0.022 0.008-0.023 0.008-0.045 0.017-0.024 0.008-0.024 0.009-0.024 0.009-0.074 0.027-0.025 0.009-0.025 0.009-0.026 0.009-0.026 0.008-0.053 0.017-0.026 0.008-0.026 0.008-0.026 0.008-0.027 0.008-0.027 0.007-0.027 0.007-0.027 0.007-0.027 0.006-0.027 0.005-0.027 0.005-0.026 0.005-0.027 0.004-0.026 0.003-0.026 0.003h-0.052l-0.025 0.002h-0.237l-0.023-0.002-0.022-0.002-0.022-0.003-0.021-0.004-0.022-0.003-0.021-0.004-0.021-0.004-0.020-0.005-0.020-0.005-0.020-0.006-0.020-0.006-0.019-0.006h-0.018l-0.019-0.007-0.019-0.007-0.018-0.008-0.019-0.008-0.018-0.008-0.018-0.008-0.017-0.008-0.017-0.009-0.002-0.002zM7.639 21.154l-0.13 1.625v-0.012l-0.003-0.003h-0.003l-0.003-0.002h-0.016l-0.004 0.002h-0.003v0.014l0.13-1.625v-0.014l0.003-0.002h0.022l0.003 0.002v0.011l0.002 0.004zM17.054 17.087l-0.13 1.625-0.005 0.025-0.005 0.025-0.006 0.024-0.006 0.024-0.006 0.024-0.007 0.024-0.007 0.024-0.015 0.049-0.008 0.024-0.008 0.024-0.009 0.024-0.009 0.024-0.009 0.024 0.13-1.624 0.019-0.049 0.009-0.024 0.008-0.024 0.008-0.024 0.007-0.024 0.008-0.024 0.007-0.024 0.007-0.024 0.006-0.024 0.011-0.049 0.005-0.025 0.004-0.025zM16.76 15.394l-0.13 1.625-0.004 0.024-0.005 0.024-0.005 0.024-0.005 0.024-0.006 0.024-0.006 0.024-0.006 0.024-0.007 0.024-0.008 0.024-0.008 0.024-0.008 0.024-0.008 0.024-0.009 0.024-0.009 0.024 0.131-1.624 0.009-0.024 0.009-0.024 0.008-0.024 0.008-0.024 0.008-0.024 0.008-0.024 0.007-0.024 0.007-0.024 0.006-0.024 0.006-0.024 0.006-0.024 0.009-0.049 0.002-0.025zM16.458 13.715l-0.13 1.625-0.007 0.042-0.008 0.042-0.010 0.042-0.011 0.042-0.012 0.042-0.014 0.041-0.015 0.041-0.015 0.041 0.13-1.624 0.015-0.041 0.015-0.041 0.013-0.041 0.012-0.042 0.011-0.042 0.009-0.042 0.008-0.042 0.007-0.042zM8.314 12.693l-0.020-0.054-0.021-0.055-0.020-0.056-0.020-0.057-0.019-0.057-0.019-0.059-0.018-0.059-0.017-0.060-0.016-0.060-0.015-0.061-0.013-0.061-0.010-0.061-0.010-0.061-0.008-0.061-0.007-0.062-0.003-0.060v-0.119l0.13-1.625v0.119l0.004 0.060 0.005 0.060 0.008 0.061 0.010 0.061 0.011 0.061 0.013 0.061 0.015 0.060 0.016 0.060 0.017 0.060 0.018 0.059 0.019 0.059 0.020 0.058 0.020 0.057 0.021 0.056 0.020 0.056 0.020 0.054 0.007 0.019 0.008 0.021 0.009 0.023 0.010 0.025 0.011 0.027 0.011 0.028 0.012 0.030 0.012 0.031 0.012 0.033 0.013 0.033 0.013 0.034 0.014 0.035 0.013 0.036 0.014 0.037 0.014 0.037 0.013 0.037 0.013 0.037 0.013 0.036 0.013 0.036 0.012 0.036 0.011 0.035 0.011 0.034 0.010 0.033 0.009 0.032 0.008 0.031 0.008 0.030 0.007 0.028 0.005 0.027 0.004 0.025 0.003 0.023v0.040l-0.129 1.626v-0.040l-0.003-0.023-0.004-0.025-0.006-0.027-0.006-0.029-0.008-0.030-0.008-0.031-0.009-0.033-0.010-0.033-0.010-0.034-0.011-0.035-0.012-0.036-0.012-0.036-0.013-0.037-0.013-0.037-0.014-0.037-0.013-0.037-0.014-0.036-0.013-0.036-0.014-0.035-0.014-0.034-0.013-0.033-0.013-0.032-0.012-0.032-0.012-0.030-0.011-0.029-0.010-0.027-0.010-0.025-0.017-0.044-0.007-0.019-0.001 0.001z"></path>
<path fill="#5674df" style="fill: var(--color5, #5674df)" d="M10.157 22.068c-0.013 0.036-0.027 0.073-0.043 0.112-0.248 0.598-0.794 0.741-1.329 0.964-0.394 0.164-0.783 0.341-1.182 0.493-0.644 0.245-1.334 0.047-1.703-0.543-0.061-0.107-0.115-0.218-0.161-0.332-0.078-0.177-0.154-0.355-0.23-0.533-0.214-0.508-0.427-1.018-0.639-1.529-0.329-0.8-0.659-1.599-0.988-2.395-0.231-0.546-0.453-1.016-0.171-1.604 0.267-0.555 0.794-0.71 1.311-0.928 0.394-0.165 0.782-0.342 1.181-0.494 0.429-0.164 0.827-0.141 1.162 0.047 0.132-0.572 0.453-1.194 0.692-1.671 0.21-0.417 0.621-1.164 0.698-1.617 0.007-0.185-0.242-0.784-0.313-0.97-0.215-0.568-0.47-1.355 0.167-1.765 0.447-0.287 1.191-0.339 1.688-0.163 1.357 0.482 1.675 2.336 1.745 3.594v0.080l1.905-0.792c0.152-0.065 0.279-0.129 0.423-0.157 0.701-0.282 1.579 0.18 1.908 0.83 0.223 0.441 0.258 0.916 0.085 1.354 0.22 0.248 0.36 0.558 0.398 0.888 0.038 0.271 0.003 0.546-0.1 0.8 0.203 0.226 0.338 0.505 0.389 0.805s0.017 0.607-0.099 0.888c0.13 0.148 0.232 0.319 0.301 0.505 0.329 0.858-0.029 1.574-0.772 2.033-0.477 0.295-0.96 0.416-1.467 0.625-0.702 0.288-1.4 0.587-2.104 0.871-0.419 0.169-0.839 0.338-1.263 0.494-0.229 0.084-0.54 0.21-0.815 0.228-0.232 0.029-0.468-0.012-0.676-0.118l-0-0.001zM7.611 21.135c-0.004 0.002-0.007 0.004-0.009 0.008s-0.003 0.007-0.003 0.011c0 0.004 0.001 0.008 0.004 0.011s0.005 0.006 0.009 0.007 0.008 0.002 0.012 0.001c0.004-0.001 0.007-0.003 0.010-0.006s0.005-0.006 0.005-0.010c0.001-0.004 0-0.008-0.001-0.012-0.001-0.003-0.003-0.005-0.004-0.007s-0.004-0.003-0.007-0.005c-0.003-0.001-0.005-0.001-0.008-0.001s-0.005 0.001-0.008 0.002z"></path>
<path fill="#eee" style="fill: var(--color6, #eee)" d="M14.554 12.544l0.001 0.001c0.344-0.223 0.925 0.086 1.113 0.462 0.175 0.348 0.152 0.677-0.030 0.959-0.097 0.152-0.167 0.161-0.214 0.252 0.282 0.118 0.595 0.331 0.659 0.811 0.022 0.161-0.001 0.325-0.066 0.474-0.1 0.246-0.168 0.242-0.27 0.373l-0.023 0.033c0.151 0.102 0.584 0.217 0.658 0.804 0.018 0.168-0.009 0.337-0.079 0.491-0.089 0.217-0.197 0.245-0.287 0.402 0.219 0.124 0.448 0.19 0.595 0.575 0.435 1.139-1.124 1.474-1.857 1.775-0.506 0.207-3.769 1.598-3.985 1.544-0.406 0.038-0.564-0.284-0.753-0.732l-1.586-3.797c-0.135-0.321-0.449-0.911-0.435-1.215 0.043-0.929 1.284-2.647 1.441-3.614 0.102-0.627-0.837-2.016-0.454-2.262 0.309-0.201 0.854-0.176 1.085-0.094 0.989 0.35 1.231 1.979 1.288 2.984l0.016 1.067 2.843-1.181c0.090-0.037 0.251-0.131 0.339-0.114zM6.484 22.728c0.182 0.29 0.513 0.402 0.874 0.264 0.388-0.148 0.778-0.325 1.162-0.485s0.822-0.267 0.958-0.593c0.166-0.398 0.019-0.572-0.185-1.043l-1.478-3.528c-0.297-0.709-0.498-1.75-1.364-1.419-0.381 0.145-0.782 0.329-1.161 0.486s-0.806 0.277-0.958 0.588c-0.156 0.325 0.009 0.625 0.183 1.041 0.141 0.34 1.843 4.487 1.969 4.687l0 0.001zM7.345 20.5c-0.129 0.054-0.24 0.145-0.317 0.262s-0.119 0.254-0.118 0.394c0 0.14 0.043 0.277 0.121 0.393s0.189 0.207 0.319 0.26c0.13 0.053 0.272 0.067 0.41 0.039s0.264-0.096 0.362-0.195c0.099-0.099 0.166-0.226 0.193-0.363s0.012-0.28-0.042-0.409c-0.036-0.086-0.088-0.164-0.154-0.23s-0.144-0.118-0.231-0.153c-0.086-0.035-0.178-0.053-0.272-0.053s-0.185 0.019-0.271 0.055z"></path>
</symbol>
<symbol id="star" viewBox="0 0 32 32">
<path fill="#fcc641" style="fill: var(--color18, #fcc641)" d="M17.076 8.96l2.159 3.213 3.598 1.147c0.421 0.135 0.726 0.446 0.862 0.883s0.065 0.876-0.199 1.242l-2.264 3.134 0.065 3.922c0.008 0.459-0.183 0.857-0.539 1.127s-0.779 0.336-1.195 0.186l-3.557-1.276-3.558 1.276c-0.416 0.15-0.839 0.083-1.195-0.187s-0.547-0.668-0.539-1.127l0.065-3.922-2.263-3.133c-0.265-0.367-0.335-0.806-0.199-1.242s0.441-0.749 0.863-0.883l3.598-1.147 2.157-3.214c0.253-0.376 0.632-0.582 1.072-0.582s0.82 0.206 1.072 0.582h-0z"></path>
</symbol>
<symbol id="stars" viewBox="0 0 32 32">
<path fill="#b44e17" style="fill: var(--color7, #b44e17)" d="M21.568 17.006c-0.333-0.3-0.642-0.593-0.86-0.994-0.113-0.208-0.133-0.324-0.193-0.555l-0.39-1.487c-0.065-0.256-0.027-0.49 0.184-0.662 0.484-0.395 1.583-0.344 2.077-0.428 1.109-0.189 0.859-0.242 1.345-1.048 0.505-0.839 0.867-1.146 1.242-1.137 0.319 0.008 0.645 0.163 1.134 1.273 0.549 1.246 0.217 1.021 1.532 1.367 0.227 0.060 0.453 0.119 0.673 0.175 0.618 0.155 0.916 0.151 1.002 0.652 0.046 0.267-0.099 0.545-0.334 0.818-0.486 0.566-0.977 1.213-1.505 1.735l-0.052 0.049-0.035 0.032c0.001 0.021 0.002 0.044 0.003 0.066 0.036 0.912 0.369 2.411-0.187 2.772l-0.961 0.603c-0.241 0.124-0.506 0.038-0.744-0.079-0.078-0.038-0.153-0.080-0.224-0.118-0.281-0.172-0.59-0.401-0.886-0.576-0.072-0.044-0.147-0.083-0.223-0.119-0.086-0.039-0.182-0.048-0.274-0.026-0.189 0.045-0.603 0.258-0.76 0.325-0.069 0.029-0.138 0.058-0.208 0.086l-0.095 0.036c-0.17 0.064-0.344 0.114-0.521 0.151-0.070 0.014-0.143 0.024-0.22 0.032l-0.083 0.003c-0.224-0.008-0.364-0.041-0.501-0.228l-0.035-0.067-0.027-0.077c-0.238-0.767-0.261-0.988-0.158-1.462 0.057-0.257 0.091-0.636 0.277-1.103l0.004-0.007z"></path>
<path fill="#ffb701" style="fill: var(--color8, #ffb701)" d="M25.789 19.254c-1.382-0.886-1.209-0.937-1.971-0.587-0.997 0.46-2.933 1.324-2.606-0.552 0.083-0.478 0.291-0.935 0.399-1.219 0.4-1.055-0.141-1.105-0.753-1.776-0.543-0.596-1.067-1.389-0.549-1.813 0.484-0.395 1.583-0.344 2.077-0.428 1.109-0.189 0.859-0.242 1.345-1.048 0.505-0.839 0.866-1.146 1.242-1.137 0.319 0.008 0.645 0.163 1.134 1.273 0.547 1.247 0.217 1.021 1.532 1.367 0.227 0.060 0.453 0.119 0.673 0.175 0.618 0.155 0.915 0.15 1.002 0.652 0.113 0.656-0.928 1.379-1.591 1.926-0.411 0.339-0.353 0.253-0.329 0.771 0.052 1.327 0.733 3.895-1.606 2.396l0.001-0z"></path>
<path fill="#ffd951" style="fill: var(--color9, #ffd951)" d="M27.384 15.543c-0.965 0.837-2.48 0.422-3.427-0.492-1.792-1.729 0.816-3.936 0.823-3.938 0.919-0.318 0.907 1.439 1.65 2.021 0.867 0.681 2.939 0.947 1.185 2.239l-0.231 0.171 0-0.001z"></path>
<path fill="#b44e17" style="fill: var(--color7, #b44e17)" d="M11.006 22.485c0.060-0.445 0.107-0.868 0.014-1.316-0.048-0.232-0.108-0.334-0.21-0.549l-0.662-1.388c-0.116-0.238-0.295-0.391-0.568-0.386-0.624 0.012-1.43 0.762-1.861 1.019-0.968 0.575-0.812 0.372-1.702 0.071-0.926-0.313-1.4-0.313-1.681-0.063-0.238 0.213-0.387 0.542-0.044 1.706 0.385 1.307 0.493 0.919-0.287 2.035-0.134 0.193-0.269 0.384-0.4 0.569-0.373 0.519-0.602 0.708-0.345 1.147 0.137 0.233 0.427 0.352 0.782 0.408 0.736 0.117 1.528 0.292 2.268 0.35l0.071 0.004 0.047 0.002c0.013 0.017 0.026 0.035 0.040 0.052 0.561 0.719 1.275 2.079 1.931 1.994l1.122-0.162c0.264-0.061 0.411-0.299 0.516-0.542 0.035-0.080 0.065-0.16 0.094-0.235 0.104-0.313 0.192-0.688 0.304-1.013 0.027-0.080 0.058-0.159 0.094-0.235 0.040-0.085 0.108-0.155 0.192-0.197 0.173-0.088 0.627-0.193 0.79-0.244 0.071-0.022 0.143-0.045 0.214-0.069l0.095-0.034c0.17-0.061 0.336-0.136 0.495-0.222 0.063-0.035 0.125-0.074 0.188-0.118l0.065-0.052c0.166-0.151 0.252-0.267 0.235-0.498l-0.017-0.073-0.029-0.076c-0.314-0.739-0.438-0.922-0.823-1.218-0.209-0.159-0.48-0.427-0.923-0.663l-0.007-0.004z"></path>
<path fill="#ffb701" style="fill: var(--color8, #ffb701)" d="M9.237 26.934c0.482-1.572 0.319-1.5 1.125-1.724 1.057-0.294 3.091-0.89 1.632-2.109-0.372-0.311-0.826-0.525-1.091-0.672-0.986-0.546-0.605-0.934-0.572-1.843 0.030-0.807-0.082-1.752-0.751-1.74-0.624 0.012-1.43 0.762-1.861 1.019-0.968 0.575-0.812 0.372-1.702 0.071-0.926-0.313-1.4-0.313-1.681-0.063-0.238 0.213-0.387 0.542-0.044 1.706 0.385 1.307 0.493 0.919-0.287 2.035-0.134 0.193-0.269 0.384-0.4 0.569-0.373 0.52-0.602 0.709-0.344 1.148 0.336 0.574 1.597 0.451 2.458 0.439 0.532-0.008 0.433-0.036 0.748 0.375 0.816 1.046 1.954 3.447 2.771 0.789l-0.002 0.001z"></path>
<path fill="#ffd951" style="fill: var(--color9, #ffd951)" d="M5.627 25.134c1.276 0.014 2.164-1.284 2.297-2.595 0.251-2.481-3.162-2.475-3.169-2.472-0.907 0.353 0.237 1.685 0.046 2.611-0.222 1.082-1.631 2.626 0.54 2.476l0.286-0.019-0-0z"></path>
<path fill="#b44e17" style="fill: var(--color7, #b44e17)" d="M12.702 21.71l1.063 0.262c0.189 0.039 0.33-0.058 0.475-0.172 0.427-0.336 0.847-0.925 1.116-1.289 0.113-0.153 0.227-0.304 0.35-0.451 0.197-0.229 0.359-0.42 0.645-0.521 0.334-0.118 0.749-0.119 1.057-0.113 0.341 0.007 0.678 0.039 1.026 0.060l0.084 0.005c0.232 0.010 0.512 0.022 0.756-0.033 0.186-0.041 0.324-0.099 0.414-0.267l0.416-0.956c-0.192 0.363-0.696 0.378-1.053 0.382-0.867 0.010-2.012-0.235-2.914-0.010-0.118 0.029-0.234 0.068-0.346 0.116-0.269 0.135-0.471 0.371-0.664 0.596l-0.047 0.056-0.047 0.058c-0.267 0.333-0.509 0.683-0.771 1.021-0.095 0.122-0.192 0.238-0.293 0.355-0.269 0.308-0.684 0.817-1.099 0.909l-0.058 0.005-0.057-0.003-0.055-0.011 0.001 0.001zM7.857 16.026l2.033 1.399c0.727 0.481 1.76 0.625 2.412 1.108-0.518-0.406-1.129-0.987-1.71-1.296l-0.063-0.031-0.065-0.030c-0.201-0.088-0.404-0.161-0.61-0.234l-0.088-0.031-0.090-0.032-0.093-0.034-0.096-0.035c-0.562-0.21-1.126-0.45-1.629-0.782l-0.001-0.002zM18.329 15.694l0.005-0.059c0.067-0.506 0.478-1.189 0.711-1.846 0.129-0.363 0.144-0.568 0.188-0.937l0.244-2.053c-0.363 1.182-0.762 1.567-1.068 2.526-0.141 0.442-0.026 1.080-0.080 2.371l-0-0z"></path>
<path fill="#ffb701" style="fill: var(--color8, #ffb701)" d="M14.074 20.687c0.511-0.605 0.933-1.34 1.505-1.83 0.481-0.411 1.667-0.355 2.626-0.276 1.232 0.101 1.948 0.042 1.954-0.607 0.005-0.604-0.571-1.476-0.88-2.008l-0.62-1.070c-0.573-1.293-0.069-1.478 0.416-2.809 0.334-0.916 1.013-2.24-0.774-2.21-0.653 0.011-1.444 0.268-2.165 0.449-1.132 0.284-1.281 0.289-2.167-0.473-0.909-0.786-1.832-1.832-2.656-1.354-0.678 0.391-0.561 1.791-0.602 2.982-0.046 1.279-0.1 1.103-1.095 1.792-0.314 0.217-0.631 0.438-0.957 0.662-0.516 0.355-0.89 0.511-1.086 0.806-0.445 0.671-0.088 1.056 0.367 1.341 0.499 0.312 0.97 0.509 1.447 0.69 1.071 0.407 1.653 0.481 1.95 1.32 0.276 0.777 0.379 1.711 0.687 2.576 0.511 1.444 0.908 1.372 2.052 0.021z"></path>
<path fill="#ffd951" style="fill: var(--color9, #ffd951)" d="M18.355 11.961c0.515-1.585-0.119-1.713-1.612-1.492-2.351 0.35-1.738 0.408-3.67-0.86-2.389-1.569-1.61 2.102-2.311 2.986-1.050 1.329-4.363 2.269-0.715 3.655 2.602 0.987 5.897-0.186 7.52-2.406 0.19-0.262 0.676-1.543 0.788-1.883z"></path>
</symbol>
<symbol id="gear" viewBox="0 0 29 32">
<path fill="#282a3c" style="fill: var(--color25, #282a3c)" d="M18.981 16.463c0.515-1.053 0.247-2.521-0.307-3.474l-0.17-0.282c-0.138-0.214-0.304-0.407-0.494-0.573-2.266-2.059-5.439-1.184-6.65 1.241-1.569 3.15 2.221 6.871 5.581 5.121 1.117-0.583 1.429-0.781 2.040-2.033zM3.963 12.59c0.277 0.399-0.12-0.594 0-1.257 0.639-3.521 1.341-2.396 3.218-4.267 0.613-0.609 0.646-1.443 1.408-1.569 1.801-0.297 3.196 2.608 4.447 2.315 0.736-0.172 0.67-0.138 0.943-0.866 1.181-3.236 0.747-3.426 4.057-2.607 5.024 1.244-1.51 6.62 4.559 5.713 2.843-0.424 2.067-0.85 2.891 2.018 0.123 0.428 1.484 2.136 1.219 2.866-0.276 0.789-0.873 2.062-1.041 2.494-0.537 1.314-2.074 0.494-2.109 1.668 0.197 0.317 2.024 0.605 2.109 1.334 0.11 0.832-0.404 1.732-0.471 2.109-0.579 2.276 0.028 1.597-1.39 3.045-0.426 0.438-1.757 1.841-2.064 2.029-1.931 1.176-3.292-2.401-4.878-1.292-1.084 0.759-0.069 3.984-3.862 3.024-1.056-0.262-3.596-0.684-4.25-1.321-1.111-1.083 0.196-3.152-0.351-3.879-0.935-1.246-1.933-0.059-3.57-0.268-1.506-0.192-1.628-1.89-2.005-3.028-0.682-2.063-0.702-2.257-0.266-3.976 0.331-1.337 0.334-1.536 0.721-1.783 0.555-0.39 1.144-0.723 1.76-0.996l-1.074-1.507z"></path>
<path fill="#5b698c" style="fill: var(--color26, #5b698c)" d="M18.917 15.447c0.505-1.054 0.258-2.518-0.278-3.467l-0.151-0.277c-0.136-0.208-0.3-0.396-0.486-0.56-2.187-2.039-5.273-1.141-6.466 1.289-1.546 3.154 2.107 6.841 5.382 5.072 1.094-0.6 1.397-0.802 2-2.056zM4.365 11.692c-0.285-0.422-0.232-0.53-0.109-1.193 0.167-0.915 0.708-2.068 0.908-2.487 0.569-1.196 0.996-0.47 2.368-1.864 0.592-0.614 0.637-1.446 1.378-1.577 1.743-0.314 3.083 2.576 4.301 2.277 0.704-0.178 0.655-0.139 0.922-0.871 1.167-3.23 0.742-3.406 3.946-2.612 4.868 1.206-1.512 6.613 4.386 5.663 2.762-0.444 2.013-0.865 2.794 1.994 0.114 0.426 1.848 1.997 1.594 2.73-0.273 0.79-0.863 2.063-1.034 2.495-0.522 1.316-2.44 0.632-2.478 1.792 0.195 0.323 1.968 0.586 2.048 1.314 0.089 0.838-0.416 1.74-0.485 2.117-0.579 2.274 0.007 1.59-1.377 3.048-0.419 0.439-1.719 1.851-2.021 2.040-1.882 1.186-3.178-2.373-4.726-1.254-1.069 0.763-0.104 3.973-3.77 3.047-1.024-0.254-3.486-0.657-4.115-1.288-1.072-1.073 0.212-3.148-0.313-3.869-0.899-1.239-1.878-0.045-3.459-0.241-1.462-0.182-1.568-1.875-1.925-3.008-0.648-2.054-0.664-2.247-0.229-3.967 0.331-1.337 0.335-1.538 0.713-1.787 0.54-0.393 1.118-0.731 1.724-1.011l-1.037-1.488-0.004-0.001z"></path>
<path fill="#5b698c" style="fill: var(--color26, #5b698c)" d="M18.917 15.447c-0.153 0.342-0.339 0.669-0.556 0.975 0.618-1.607-1.142-3.38-2.89-3.764-2.316-0.508-4.979 0.656-3.881 2.998 0.204 0.427 0.479 0.816 0.815 1.15-0.375-0.325-0.679-0.724-0.891-1.172s-0.329-0.936-0.343-1.432c-0.031-0.611 0.092-1.221 0.357-1.772 1.196-2.44 4.282-3.336 6.469-1.299 0.189 0.168 0.354 0.361 0.489 0.574l0.152 0.275c0.531 0.947 0.779 2.412 0.272 3.466l0.006 0.002z"></path>
<path fill="#b9bfe1" style="fill: var(--color27, #b9bfe1)" d="M18.917 15.447c0.505-1.054 0.259-2.518-0.278-3.467l-0.151-0.277c-0.136-0.208-0.3-0.396-0.486-0.56-2.187-2.039-5.273-1.141-6.466 1.289-1.55 3.142 1.081 6.219 4.871 5.324 1.099-0.592 1.908-1.054 2.511-2.308zM20.665 7.241c0.448 0.25 0.629 0.514 1.036 0.881 0.318 0.288 0.434 0.024 2.050-0.179 1.656-0.204 1.836-0.040 2.387 2.047 0.214 0.805 1.037 2.918 0.746 3.704-0.22 0.605-0.521 0.592-1.044 0.806l-0.155 0.065-0.077 0.034-1.863 0.843-0.322 1.414c0.455 0.32 0.911 0.938 1.307 1.498 0.365 0.515 0.673 0.719 0.627 1.286-0.079 0.986-1.226 1.896-2.15 2.822-2.125 2.113-1.496 1.974-4.516-0.133-0.498-0.343-0.485-0.102-1.176 0.050s-0.581-0.052-1.258 1.872c-0.792 2.258-1.054 1.591-5.277 0.587-0.862-0.213-1.418-0.303-1.512-1.052-0.145-1.193 0.67-2.618 0.108-3.226-1.276-1.385-0.96-0.634-3.394-0.425-1.692 0.144-1.701-1.675-2.398-4.049-0.525-1.795-0.238-2.067 0.931-2.604 2.308-1.058 1.859-0.455 2.352-2.296-0.073-0.086-0.128-0.133-0.201-0.217l-0.107-0.126c-0.989-1.204-2.476-2.23-1.002-3.646 0.087-0.077 0.166-0.163 0.235-0.256 0.095-0.108 0.178-0.194 0.298-0.315 0.225-0.241 0.327-0.333 0.59-0.606s0.219-0.271 0.536-0.558c0.984-0.893 0.861-1.487 1.881-1.377s2.017 1.243 2.933 1.791c0.537-0.234 0.975-0.251 1.291-0.454 0.417-0.271 0.789-1.826 1.095-2.485 0.523-1.133 1.63-0.595 2.375-0.415 0.941 0.233 3.183 0.533 3.722 1.142 0.445 0.504 0.27 0.835 0.192 1.638-0.063 0.629-0.157 1.281-0.241 1.942l-0.002-0z"></path>
<path fill="#eef2ff" style="fill: var(--color28, #eef2ff)" d="M4.916 17.052c0.949 3.275 0.842 0.668 0.948-1.305 0.050-0.931 0.85-1.896 0.822-1.943-0.156-0.259-2.27 0.098-2.031 1.602l0.254 1.64 0.007 0.006z"></path>
<path fill="#eef2ff" style="fill: var(--color28, #eef2ff)" d="M15.561 17.77c-1.957 0.034-3.030-0.724-3.607-1.511-1.158-1.585 0.028-4.475 0.344-4.943-0.691 0.489-1.8 2.607-1.315 4.192 1.179 3.844 5.823 2.241 5.426 2.248l-0.848 0.014z"></path>
<path fill="#eef2ff" style="fill: var(--color28, #eef2ff)" d="M22.179 9.23c0.394 0.183 0.953 0.271 1.685 0.576 0.978 0.412 1.042 0.766 1.294 0.806 0.36 0.058 0.259-0.743 0.227-0.918-0.113-0.752-0.518-1.397-1.359-1.26-0.188 0.030-2.827 0.349-1.854 0.797l0.007-0.001z"></path>
</symbol>
<symbol id="google-play-icon" viewBox="0 0 135 32">
<path fill="#5778c4" style="fill: var(--color32, #5778c4)" d="M0.316 27.658l12.405-12.329c-3.783-3.875-7.843-7.7-11.625-11.551-0.23-0.235-0.459-0.627-0.778-0.741-0.244 0.54-0.119 10.772-0.119 12.276v6.199c0 1.152-0.133 5.367 0.115 6.149l0.001-0.002z"></path>
<path fill="#e93131" style="fill: var(--color33, #e93131)" d="M0.316 27.658c0.224 0.992 0.917 1.689 1.619 2.086 2.007 1.138 3.772-0.354 5.395-1.263l9.457-5.426c0.339-0.193 2.161-1.197 2.339-1.368-1.374-1.448-3.286-3.26-4.792-4.754l-1.192-1.185c-0.21-0.207-0.285-0.225-0.356-0.419h-0.065l-12.405 12.329z"></path>
<path fill="#3bac49" style="fill: var(--color34, #3bac49)" d="M0.32 3.037c0.319 0.114 0.55 0.506 0.778 0.741 3.781 3.851 7.841 7.675 11.623 11.551h0.065c1.060-1.086 2.072-2.092 3.143-3.155 0.545-0.541 1.045-1.039 1.589-1.58 0.326-0.323 1.413-1.314 1.585-1.599l-0.263-0.191c-0.111-0.069-0.205-0.117-0.309-0.176l-4.099-2.366c-1.575-0.893-3.179-1.788-4.726-2.718-0.789-0.474-1.581-0.895-2.359-1.361-1.743-1.046-3.459-2.37-5.429-1.263-0.65 0.365-1.472 1.166-1.6 2.116v0.001z"></path>
<path fill="#f5b50b" style="fill: var(--color35, #f5b50b)" d="M12.786 15.329c0.070 0.194 0.146 0.212 0.356 0.419l1.192 1.185c1.506 1.494 3.418 3.307 4.792 4.754 0.296-0.097 4.105-2.326 4.486-2.544 1.509-0.861 3.293-1.548 3.263-3.834-0.029-2.172-1.747-2.893-3.277-3.757-0.389-0.219-4.198-2.469-4.493-2.557-0.172 0.284-1.26 1.276-1.586 1.599-0.545 0.542-1.044 1.039-1.589 1.58-1.072 1.063-2.083 2.066-3.143 3.155z"></path>
<path fill="#000" style="fill: var(--color14, #000)" d="M51.023 18.866l-7.030-0.018-0.008 2.049c0.367 0.085 4.256 0.034 4.967 0.034 0.054 0.473-0.282 1.366-0.469 1.731-0.116 0.239-0.259 0.463-0.428 0.669-2.407 2.817-7.858 2.286-9.291-2.063-1.242-3.779 1.759-7.632 5.813-7.234 1.484 0.146 2.331 0.749 3.179 1.428l1.444-1.431c-0.26-0.403-1.326-1.094-1.941-1.388-4.142-1.976-9.285 0.256-10.679 4.625-1.741 5.455 3.171 11.046 9.257 9.691 0.896-0.199 1.718-0.547 2.366-0.992 2.252-1.543 3.375-4.31 2.82-7.1v-0.001zM76.13 7.369l1.1 0.004 0.019-5.287c0.211 0.159 0.283 0.365 0.458 0.636l1.266 2.024c0.141 0.219 1.528 2.578 1.724 2.625h1.039v-7.165h-1.129l0.008 5.101c-0.336-0.373-2.812-4.597-3.239-5.101h-1.227l-0.022 7.161 0.002 0.002zM58.002 7.374h1.129v-7.168h-1.126v7.171l-0.004-0.003zM60.019 1.294h1.94l0.013 6.077h1.129v-6.077l1.948-0.004-0.007-1.084h-4.983l-0.041 1.087 0.001 0.001zM49.762 1.294h1.937l0.017 6.077h1.13v-6.067l1.947-0.011-0.008-1.087h-4.999l-0.023 1.087zM44.777 7.371l4.279 0.007 0.029-1.057-3.149-0.027-0.031-1.967 2.865-0.003v-1.032l-2.845-0.032-0.023-1.966h3.148l0.027-1.077-4.283-0.009-0.020 7.161 0.002 0.002zM70.886 1.202c1.594-0.353 2.798 0.735 3.038 1.998 0.311 1.634-0.634 2.9-1.9 3.181-3.449 0.766-4.415-4.453-1.139-5.179zM70.963 0.082c-0.713 0.083-1.386 0.37-1.939 0.826-0.917 0.781-1.425 1.984-1.269 3.39 0.215 1.921 1.935 3.483 4.18 3.197 1.912-0.243 3.419-1.954 3.164-4.177-0.218-1.912-1.929-3.509-4.136-3.235zM43.805 3.435h-3.723v1.063h2.501c-0.276 2.568-4.279 2.64-4.898-0.023-0.328-1.414 0.367-2.526 1.218-3.006 0.565-0.303 1.218-0.4 1.848-0.275 0.856 0.171 0.929 0.445 1.378 0.79l0.774-0.771c-0.892-1.215-3.286-1.57-4.8-0.541-3.377 2.293-1.204 7.702 3.011 6.765 0.803-0.174 1.517-0.63 2.009-1.285 0.248-0.337 0.423-0.722 0.513-1.13 0.115-0.485 0.018-1.239 0.169-1.585v-0.001zM84.422 26.613l0.007 0.236h2.149l0.013-0.235v-14.173h-2.167v14.173l-0.003-0.001zM124.647 17.63c0.104 0.408 2.745 6.269 2.985 6.806 0.821 1.84 0.984 1.651 0.55 2.588l-1.881 4.193h2.139c0.268-0.117 0.673-1.325 0.824-1.661l4.466-10.209c0.173-0.386 0.656-1.367 0.723-1.723l-2.377 0.019c-0.449 1.022-0.839 2.106-1.247 3.136l-0.935 2.36c-0.089 0.222-0.183 0.603-0.381 0.74-0.367-1.094-1.679-4.126-2.273-5.551-0.376-0.901 0.097-0.696-2.593-0.696l0.001-0.003zM112.596 26.614l0.007 0.236h2.147l0.012-0.236v-14.172h-2.164v14.172h-0.002zM122.371 22.968c-0.29 2.384-3.33 2.75-4.086 1.588-0.258-0.396-0.166-0.972 0.081-1.337 0.69-1.007 3.305-0.921 4.007-0.252h-0.002zM116.242 19.504c0.126 0.111 1.711 0.76 1.925 0.796 0.817-1.743 4.36-1.193 4.203 0.948-3.213-1.413-6.706 0.238-6.397 3.057 0.296 2.698 3.965 3.613 5.756 2.079 0.124-0.1 0.234-0.216 0.329-0.343 0.122-0.157 0.163-0.272 0.315-0.321l0.020 1.111h2.050c0.083-0.365 0.031-4.242 0.031-4.955 0-1.813-0.371-2.772-1.382-3.615-2.078-1.735-6.001-0.977-6.851 1.245l0.001-0.001zM89.792 22.092c0.004-1.382 0.654-2.179 1.537-2.599 1.107-0.526 2.552-0.136 2.85 0.813l-4.387 1.786zM96.603 24.973c-0.213-0.209-1.416-1.005-1.681-1.098-1.005 1.736-3.858 1.87-4.753-0.118 0.223-0.191 4.085-1.715 4.908-2.056 0.516-0.213 1.134-0.503 1.642-0.665-0.542-1.964-2.195-3.825-4.707-3.683-5.12 0.29-5.976 7.69-1.303 9.464 1.143 0.429 2.402 0.438 3.551 0.026 0.948-0.343 2.009-1.166 2.345-1.87h-0.003zM64.899 22.846c-0.722-4.021 4.809-4.892 5.453-1.203 0.313 1.797-0.749 3.201-2.182 3.514-1.712 0.373-3.023-0.935-3.27-2.309v-0.002zM66.865 17.4c-2.536 0.384-4.538 2.582-4.139 5.564 0.334 2.496 2.657 4.558 5.624 4.132 2.525-0.361 4.584-2.597 4.174-5.551-0.348-2.527-2.649-4.601-5.661-4.145l0.002-0.001zM56.467 19.312c1.685-0.237 2.945 1.041 3.117 2.528 0.201 1.726-0.887 3.114-2.327 3.337-3.704 0.575-4.476-5.348-0.791-5.866h0.001zM56.050 17.404c-2.525 0.396-4.596 2.636-4.108 5.652 0.399 2.47 2.676 4.456 5.644 4.038 2.532-0.357 4.569-2.633 4.133-5.621-0.36-2.473-2.686-4.534-5.668-4.066v-0.002zM103.631 14.457c0.882-0.045 2.498-0.073 3.354 0.010 0.431 0.037 0.844 0.187 1.198 0.434s0.636 0.582 0.818 0.972c0.182 0.39 0.258 0.82 0.219 1.248s-0.19 0.838-0.439 1.189c-0.434 0.616-1.095 1.076-2.223 1.076l-2.926-0.007v-4.922zM101.467 26.611l0.008 0.236h2.146l0.009-5.451c1.699-0.069 3.484 0.222 4.979-0.4 1.198-0.498 2.21-1.472 2.612-2.812 0.518-1.73-0.072-3.164-0.922-4.166-0.743-0.875-2.147-1.58-3.866-1.58h-4.967v14.173zM78.083 19.302c1.646-0.215 2.799 1.138 2.922 2.633 0.139 1.691-0.863 3.147-2.393 3.269-1.646 0.131-2.844-1.172-2.955-2.681-0.122-1.69 0.936-3.028 2.426-3.221v-0.001zM80.873 18.423c-0.244-0.054-0.261-0.189-0.489-0.37-2.364-1.884-6.935 0.126-6.907 4.246 0.019 2.943 2.604 5.099 5.156 4.823 0.621-0.067 1.357-0.339 1.788-0.722 0.199-0.176 0.212-0.297 0.449-0.35 0 1.765-0.258 3.007-1.739 3.441-0.756 0.222-1.601 0.118-2.191-0.236-0.82-0.492-0.757-0.771-1.195-1.355l-1.815 0.75c-0.006-0.012-0.026 0.018-0.038 0.029 0.244 0.742 0.954 1.466 1.4 1.849 1.867 1.606 5.36 1.325 6.79-0.836 1.017-1.536 0.844-3.596 0.844-5.632 0-2.14 0-4.281 0-6.422h-2.055v0.783h0.003z"></path>
</symbol>
<symbol id="google-button-white" viewBox="0 0 134 32">
<path fill="#5778c4" style="fill: var(--color1, #5778c4)" d="M0.575 28.089l12.369-12.333c-3.772-3.877-7.82-7.702-11.591-11.554-0.23-0.235-0.458-0.627-0.776-0.742-0.244 0.54-0.118 10.776-0.118 12.28v6.201c0 1.152-0.133 5.369 0.115 6.151l0.001-0.002z"></path>
<path fill="#e93131" style="fill: var(--color2, #e93131)" d="M0.575 28.090c0.223 0.993 0.914 1.689 1.615 2.087 2.001 1.138 3.761-0.354 5.38-1.263l9.43-5.428c0.338-0.193 2.155-1.198 2.332-1.368-1.37-1.448-3.277-3.261-4.778-4.756l-1.189-1.185c-0.21-0.207-0.285-0.225-0.355-0.419h-0.065l-12.369 12.333z"></path>
<path fill="#3bac49" style="fill: var(--color3, #3bac49)" d="M0.578 3.46c0.318 0.114 0.549 0.506 0.776 0.742 3.77 3.852 7.818 7.678 11.59 11.554h0.065c1.057-1.086 2.066-2.092 3.134-3.156 0.544-0.541 1.042-1.039 1.585-1.581 0.325-0.323 1.409-1.315 1.58-1.599l-0.262-0.191c-0.111-0.069-0.204-0.117-0.308-0.176l-4.087-2.367c-1.571-0.893-3.169-1.789-4.712-2.719-0.787-0.474-1.576-0.895-2.352-1.362-1.738-1.046-3.449-2.371-5.413-1.263-0.648 0.365-1.468 1.167-1.595 2.117v0.001z"></path>
<path fill="#f5b50b" style="fill: var(--color4, #f5b50b)" d="M13.009 15.756c0.070 0.195 0.146 0.212 0.355 0.419l1.189 1.185c1.501 1.494 3.408 3.308 4.778 4.756 0.296-0.097 4.093-2.326 4.473-2.545 1.505-0.861 3.284-1.548 3.254-3.835-0.029-2.173-1.742-2.894-3.268-3.759-0.388-0.219-4.186-2.47-4.48-2.557-0.172 0.284-1.256 1.277-1.581 1.599-0.543 0.542-1.041 1.040-1.585 1.581-1.069 1.063-2.077 2.067-3.134 3.156z"></path>
<path fill="#fff" style="fill: var(--color5, #fff)" d="M51.135 19.294l-7.009-0.018-0.008 2.050c0.366 0.085 4.243 0.034 4.953 0.034 0.054 0.474-0.281 1.367-0.468 1.731-0.115 0.239-0.258 0.463-0.427 0.669-2.4 2.818-7.835 2.287-9.265-2.063-1.238-3.78 1.754-7.635 5.796-7.236 1.479 0.146 2.325 0.749 3.169 1.428l1.44-1.431c-0.259-0.403-1.322-1.094-1.935-1.388-4.13-1.976-9.258 0.257-10.648 4.627-1.736 5.457 3.162 11.049 9.23 9.694 0.894-0.199 1.713-0.547 2.359-0.992 2.245-1.543 3.366-4.312 2.811-7.103v-0.001zM76.169 7.793l1.097 0.004 0.019-5.289c0.21 0.159 0.282 0.365 0.457 0.636l1.263 2.024c0.14 0.219 1.524 2.579 1.719 2.626h1.036v-7.167h-1.126l0.008 5.103c-0.335-0.373-2.804-4.599-3.23-5.103h-1.223l-0.021 7.163 0.001 0.002zM58.095 7.799h1.126v-7.17h-1.122v7.173l-0.003-0.003zM60.106 1.716h1.935l0.013 6.079h1.126v-6.079l1.942-0.004-0.007-1.085h-4.968l-0.041 1.088 0.001 0.001zM49.878 1.716h1.931l0.016 6.079h1.126v-6.069l1.942-0.011-0.008-1.087h-4.985l-0.023 1.088zM44.907 7.795l4.267 0.007 0.029-1.058-3.14-0.027-0.030-1.967 2.857-0.003v-1.032l-2.837-0.032-0.023-1.967h3.139l0.027-1.077-4.271-0.009-0.020 7.163 0.002 0.002zM70.942 1.624c1.59-0.353 2.789 0.735 3.030 1.998 0.31 1.634-0.632 2.901-1.894 3.182-3.439 0.767-4.403-4.455-1.136-5.181zM71.018 0.504c-0.711 0.083-1.382 0.37-1.933 0.826-0.914 0.782-1.421 1.985-1.265 3.391 0.215 1.922 1.929 3.484 4.168 3.198 1.906-0.243 3.409-1.955 3.155-4.179-0.218-1.912-1.924-3.51-4.125-3.236zM43.938 3.858h-3.712v1.063h2.494c-0.275 2.569-4.267 2.641-4.884-0.023-0.327-1.414 0.366-2.527 1.214-3.007 0.563-0.303 1.215-0.4 1.843-0.275 0.853 0.171 0.926 0.446 1.374 0.79l0.772-0.771c-0.89-1.216-3.277-1.57-4.786-0.541-3.367 2.294-1.201 7.705 3.002 6.767 0.801-0.174 1.512-0.63 2.003-1.286 0.248-0.337 0.422-0.722 0.512-1.13 0.115-0.485 0.018-1.239 0.168-1.585v-0.001zM84.438 27.043l0.006 0.236h2.144l0.013-0.235v-14.178h-2.16v14.178l-0.002-0.001zM124.547 18.058c0.104 0.408 2.737 6.271 2.976 6.809 0.819 1.84 0.982 1.651 0.549 2.589l-1.876 4.195h2.133c0.267-0.117 0.671-1.325 0.821-1.661l4.453-10.213c0.172-0.386 0.654-1.368 0.721-1.723l-2.37 0.019c-0.448 1.022-0.836 2.106-1.244 3.137l-0.932 2.361c-0.088 0.223-0.183 0.603-0.38 0.74-0.366-1.094-1.674-4.128-2.267-5.553-0.375-0.901 0.097-0.696-2.585-0.696l0.001-0.003zM112.531 27.044l0.007 0.236h2.141l0.012-0.236v-14.177h-2.158v14.177h-0.002zM122.277 23.397c-0.289 2.385-3.32 2.751-4.074 1.589-0.257-0.396-0.166-0.973 0.080-1.337 0.688-1.007 3.296-0.922 3.996-0.252h-0.002zM116.166 19.932c0.126 0.111 1.707 0.76 1.919 0.796 0.814-1.744 4.348-1.193 4.191 0.948-3.203-1.414-6.687 0.238-6.379 3.058 0.295 2.698 3.954 3.615 5.74 2.080 0.124-0.1 0.234-0.216 0.328-0.343 0.122-0.157 0.163-0.272 0.314-0.322l0.020 1.111h2.044c0.082-0.365 0.031-4.244 0.031-4.957 0-1.814-0.37-2.773-1.378-3.616-2.072-1.736-5.984-0.977-6.831 1.246l0.001-0.001zM89.793 22.522c0.004-1.382 0.652-2.18 1.533-2.6 1.103-0.526 2.544-0.136 2.841 0.813l-4.374 1.787zM96.584 25.403c-0.212-0.209-1.412-1.006-1.676-1.098-1.001 1.736-3.846 1.871-4.739-0.118 0.223-0.192 4.073-1.715 4.895-2.057 0.514-0.213 1.13-0.503 1.637-0.666-0.541-1.965-2.189-3.827-4.693-3.684-5.105 0.291-5.958 7.692-1.3 9.467 1.14 0.43 2.396 0.439 3.541 0.026 0.946-0.343 2.004-1.167 2.339-1.871h-0.003zM64.971 23.275c-0.72-4.022 4.795-4.894 5.437-1.203 0.313 1.798-0.746 3.202-2.176 3.515-1.707 0.373-3.014-0.935-3.261-2.31v-0.002zM66.932 17.827c-2.529 0.384-4.525 2.582-4.127 5.565 0.334 2.497 2.65 4.559 5.607 4.134 2.519-0.361 4.572-2.598 4.162-5.553-0.348-2.528-2.641-4.602-5.645-4.146l0.002-0.001zM56.564 19.74c1.68-0.237 2.937 1.041 3.108 2.529 0.2 1.727-0.885 3.115-2.321 3.339-3.693 0.575-4.463-5.35-0.789-5.868h0.001zM56.148 17.832c-2.518 0.396-4.582 2.636-4.096 5.654 0.398 2.471 2.668 4.458 5.628 4.039 2.525-0.357 4.556-2.633 4.121-5.622-0.36-2.474-2.678-4.536-5.652-4.067v-0.002zM103.591 14.883c0.88-0.045 2.49-0.073 3.344 0.010 0.429 0.037 0.841 0.187 1.194 0.434s0.635 0.582 0.816 0.972c0.182 0.39 0.257 0.821 0.219 1.249s-0.19 0.839-0.438 1.19c-0.433 0.616-1.091 1.076-2.217 1.076l-2.917-0.007v-4.923zM101.434 27.041l0.008 0.236h2.14l0.009-5.452c1.694-0.069 3.474 0.222 4.965-0.401 1.195-0.498 2.204-1.472 2.604-2.813 0.516-1.73-0.071-3.165-0.919-4.167-0.74-0.875-2.141-1.581-3.854-1.581h-4.953v14.178zM78.117 19.73c1.641-0.215 2.791 1.138 2.914 2.634 0.139 1.691-0.861 3.148-2.386 3.27-1.641 0.131-2.836-1.172-2.946-2.681-0.122-1.691 0.933-3.029 2.418-3.222v-0.001zM80.899 18.851c-0.244-0.054-0.26-0.189-0.488-0.37-2.358-1.884-6.914 0.126-6.887 4.247 0.020 2.943 2.596 5.101 5.142 4.824 0.619-0.067 1.353-0.339 1.783-0.722 0.198-0.176 0.212-0.297 0.447-0.35 0 1.766-0.257 3.008-1.733 3.443-0.754 0.222-1.596 0.118-2.184-0.236-0.817-0.492-0.755-0.771-1.191-1.355l-1.81 0.75c-0.007-0.012-0.026 0.018-0.038 0.029 0.244 0.742 0.952 1.466 1.396 1.85 1.861 1.607 5.345 1.325 6.771-0.836 1.014-1.537 0.841-3.598 0.841-5.633 0-2.141 0-4.282 0-6.424h-2.049v0.784h0.002z"></path>
</symbol>
<symbol id="burger" viewBox="0 0 33 32">
<path  d="M7.003 6.667h18.667c0.736 0 1.333 0.597 1.333 1.333s-0.597 1.333-1.333 1.333h-18.667c-0.736 0-1.333-0.597-1.333-1.333s0.597-1.333 1.333-1.333z"></path>
<path  d="M11.669 14.667h14c0.736 0 1.333 0.597 1.333 1.333s-0.597 1.333-1.333 1.333h-14c-0.736 0-1.333-0.597-1.333-1.333s0.597-1.333 1.333-1.333z"></path>
<path  d="M16.336 22.667h9.333c0.736 0 1.333 0.597 1.333 1.333s-0.597 1.333-1.333 1.333h-9.333c-0.736 0-1.333-0.597-1.333-1.333s0.597-1.333 1.333-1.333z"></path>
</symbol>
<symbol id="close" viewBox="0 0 33 32">
<path d="M10.679 8.457l13.199 13.199c0.521 0.521 0.521 1.365 0 1.886s-1.365 0.521-1.886 0l-13.199-13.199c-0.521-0.521-0.521-1.365 0-1.886s1.365-0.521 1.886 0z"></path>
<path d="M8.794 21.657l9.899-9.899c0.521-0.521 1.365-0.521 1.886 0s0.521 1.365 0 1.886l-9.899 9.899c-0.521 0.521-1.365 0.521-1.886 0s-0.521-1.365 0-1.886z"></path>
<path d="M15.393 15.057l6.6-6.6c0.521-0.521 1.365-0.521 1.886 0s0.521 1.365 0 1.886l-6.6 6.6c-0.521 0.521-1.365 0.521-1.886 0s-0.521-1.365 0-1.886z"></path>
</symbol>
<symbol id="connect" viewBox="0 0 32 32">
<path fill="#852325" style="fill: var(--color7, #852325)" d="M7.162 18.994l-0.297 2.25c-0.257 2.963 2.839 4.93 5.476 4.618l6.015-0.881c0.588-0.105 1.064-0.283 1.375-0.806l0.909-1.878-0.074 0.123-0.079 0.117-0.085 0.112-0.088 0.106-0.099 0.1-0.101 0.095-0.108 0.088-0.113 0.081-0.119 0.074-0.124 0.067-0.13 0.059-0.135 0.050-0.14 0.043-0.145 0.035-0.15 0.027-6.015 0.88-0.252 0.030-0.252 0.016-0.252 0.002-0.251-0.011-0.25-0.025-0.246-0.037-0.246-0.049-0.243-0.061-0.239-0.074-0.236-0.084-0.232-0.096-0.227-0.103-0.222-0.117-0.216-0.127-0.21-0.137-0.204-0.148-0.197-0.156-0.189-0.165-0.182-0.173-0.172-0.182-0.164-0.19-0.155-0.197-0.146-0.207-0.135-0.212-0.123-0.219-0.114-0.226-0.101-0.232-0.089-0.238-0.077-0.243-0.064-0.249-0.049-0.254-0.036-0.258-0.020-0.242-0.007-0.237 0.007-0.232 0.020-0.227z"></path>
<path fill="#c1282e" style="fill: var(--color8, #c1282e)" d="M12.934 24.355l6.016-0.88c1.629-0.239 2.414-1.974 1.921-3.806-0.474-1.758-2.034-3.253-3.627-3.398l-5.76-0.527c-2.511-0.23-4.61 1.58-4.322 4.189 0.307 2.778 3.088 4.817 5.772 4.423z"></path>
<path fill="#852325" style="fill: var(--color7, #852325)" d="M12.768 23.505l0.152-0.018c1.91-0.233 3.009-1.926 2.64-3.715-0.357-1.718-2.004-3.173-3.831-3.305l-0.145-0.011c-2.044-0.148-3.695 1.361-3.439 3.459 0.268 2.205 2.467 3.854 4.624 3.591l-0.001-0.001z"></path>
<path fill="#fbfbfb" style="fill: var(--color9, #fbfbfb)" d="M12.768 23.505l0.152-0.018c1.501-0.183 2.502-1.268 2.681-2.593-0.011-0.083-0.025-0.166-0.042-0.25-0.357-1.718-2.004-3.173-3.831-3.306l-0.145-0.011c-1.755-0.127-3.218 0.966-3.437 2.603 0.277 2.197 2.47 3.837 4.622 3.573l0 0.001z"></path>
<path fill="#ebecec" style="fill: var(--color10, #ebecec)" d="M19.585 18.762c-0.242-0.164-0.497-0.308-0.762-0.432l-0.156 0.504c0.277 0.116 0.542 0.262 0.788 0.434l0.13-0.505zM16.67 21.502l0.584 0.303 1.472-4.391-0.482-0.154-0.286 0.771c-0.928-0.211-1.828-0.046-2.47 0.591l0.561 0.583c0.223-0.235 0.499-0.413 0.805-0.52 0.289-0.095 0.594-0.127 0.896-0.093l-0.253 0.683c-0.341 0.066-0.633 0.248-0.887 0.515l0.502 0.521-0.442 1.192v-0.001zM18.753 22.018l0.249-0.974-0.004-0.005c-0.324-0.263-0.728-0.331-0.963-0.164l-0.093 0.299 0.811 0.844zM19.176 20.361l0.064-0.249 0.079-0.31c-0.257-0.172-0.533-0.313-0.822-0.421l-0.182 0.588c0.279 0.054 0.57 0.191 0.862 0.392l-0.001-0.001z"></path>
<path fill="#009846" style="fill: var(--color11, #009846)" d="M18.357 16.024l-6.248-1.071c-1.749-0.3-2.588-2.117-2.024-4.024 0.552-1.864 2.326-3.402 4.097-3.462l6.268-0.208c2.665-0.089 4.655 1.941 4.105 4.596-0.57 2.742-3.513 4.63-6.198 4.17z"></path>
<path fill="#184234" style="fill: var(--color12, #184234)" d="M18.579 15.194l-0.155-0.025c-1.96-0.296-3.037-2.045-2.56-3.873 0.466-1.788 2.317-3.247 4.274-3.279l0.155-0.002c2.163-0.035 3.73 1.64 3.274 3.775-0.469 2.192-2.812 3.732-4.987 3.403z"></path>
<path fill="#fbfbfb" style="fill: var(--color9, #fbfbfb)" d="M18.579 15.194l-0.155-0.025c-1.49-0.224-2.47-1.288-2.644-2.589 0.019-0.144 0.047-0.287 0.084-0.428 0.466-1.789 2.317-3.248 4.274-3.28l0.155-0.002c1.753-0.029 3.116 1.067 3.325 2.621-0.013 0.099-0.030 0.199-0.051 0.299-0.47 2.192-2.813 3.732-4.988 3.403z"></path>
<path fill="#184234" style="fill: var(--color12, #184234)" d="M24.556 11.854l0.044-0.246 0.030-0.243 0.015-0.239 0.002-0.234-0.012-0.23-0.025-0.225-0.038-0.219-0.049-0.214-0.062-0.208 0.618 1.878c0.302 1.281-0.264 2.627-1.007 3.564-0.82 1.033-1.895 1.607-3.174 1.938-0.414 0.091-0.837 0.138-1.261 0.141l-0.254-0.010-0.255-0.023-0.252-0.036-6.025-1.029c-0.671-0.135-0.853-0.25-1.299-0.771l-1-1.398 0.097 0.113 0.103 0.107 0.109 0.101 0.115 0.094 0.122 0.088 0.127 0.080 0.133 0.074 0.139 0.065 0.145 0.058 0.15 0.049 0.156 0.041 0.161 0.033 6.248 1.071 0.252 0.036 0.253 0.023 0.254 0.010 0.254-0.003 0.254-0.016 0.253-0.029 0.251-0.040 0.25-0.052 0.246-0.064 0.244-0.075 0.241-0.086 0.237-0.097 0.233-0.107 0.228-0.118 0.222-0.128 0.217-0.137 0.211-0.147 0.204-0.156 0.197-0.165 0.19-0.172 0.181-0.181 0.172-0.19 0.164-0.197 0.154-0.204 0.144-0.212c0.349-0.571 0.534-1.014 0.687-1.661l0.004-0.001z"></path>
<path fill="#ebecec" style="fill: var(--color10, #ebecec)" d="M16.097 9.829c-0.045-0.069-0.095-0.136-0.148-0.2-0.369-0.471-0.896-0.702-1.498-0.72-0.581-0.026-1.247 0.148-1.941 0.536-0.092 0.049-0.185 0.103-0.278 0.16v0.005l-0.005 0.003 0.031 0.577c0.681-0.423 1.306-0.626 1.869-0.598 0.577 0.034 1.022 0.31 1.327 0.832l0.638-0.586-0.002-0.004 0.006-0.006h-0.001zM12.426 13.205v-0.006l-0.005 0.005c-0.019-0.36-0.033-0.718-0.051-1.053l0.005-0.005c0.233-0.171 0.478-0.273 0.667-0.251s0.324 0.172 0.384 0.381v0.006c-0.325 0.298-0.661 0.613-0.998 0.923h-0.001zM12.328 11.4v-0.017l-0.005 0.003-0.015-0.263-0.018-0.339 0.005-0.003v-0.003c0.082-0.048 0.163-0.093 0.243-0.135 0.448-0.237 0.873-0.367 1.252-0.337 0.39 0.026 0.685 0.215 0.91 0.519 0.043 0.056 0.083 0.115 0.119 0.176l-0.003 0.003 0.002 0.004-0.625 0.574-0.002-0.004-0.017 0.015c-0.315-0.643-1.023-0.707-1.846-0.193l-0.001-0.001z"></path>
</symbol>
<symbol id="downloads" viewBox="0 0 32 32">
<path fill="#cb76f6" style="fill: var(--color1, #cb76f6)" d="M13.797 13.987l-2.463-2.624-1.75 1.593 5.605 5.94 5.332-4.909-1.669-1.966-2.559 2.293 0.009-7.99c0 0-2.318-0.181-2.459-0.182l-0.044 7.844h-0.002z"></path>
<path fill="#b45bca" style="fill: var(--color2, #b45bca)" d="M16.301 6.324l1.857-0.602-2.52-0.18-1.795 0.6c0.14 0 2.459 0.182 2.459 0.182h-0zM18.85 12.021l2.066-0.582 1.522 1.78-1.917 0.767-1.669-1.966h-0.002z"></path>
<path fill="#cb76f6" style="fill: var(--color1, #cb76f6)" d="M20.869 24.325l2.529-2.349-1.663-1.935-1.984 1.743-9.37-0.858-1.942-2.137-1.732 1.586 2.835 2.984c3.776 0.318 7.551 0.653 11.328 0.967l-0.001-0z"></path>
<path fill="#8f33ad" style="fill: var(--color3, #8f33ad)" d="M20.521 13.987l-5.332 4.909 2.168-1.019 5.081-4.657-1.917 0.767zM18.157 5.722l-1.857 0.602-0.009 7.99 1.879-1.683-0.013-6.907v-0.001zM11.334 11.363l1.779-0.335 0.697 0.747-0.013 2.212-2.463-2.624z"></path>
<path fill="#8f33ad" style="fill: var(--color3, #8f33ad)" d="M23.398 21.976l-2.603 2.39 1.828-0.726 2.672-2.365-1.896 0.701z"></path>
<path fill="#8f33ad" style="fill: var(--color3, #8f33ad)" d="M8.438 18.789l1.903-0.587 1.807 1.946-1.768 0.778-1.942-2.137z"></path>
<path fill="#8f33ad" style="fill: var(--color3, #8f33ad)" d="M19.751 21.786l1.060-0.941-8.662-0.697-1.768 0.778 9.371 0.86z"></path>
<path fill="#b45bca" style="fill: var(--color2, #b45bca)" d="M21.714 20.060l2.038-0.524 1.542 1.739-1.898 0.696-1.682-1.911z"></path>
</symbol>
<symbol id="explorer" viewBox="0 0 32 32">
<path fill="#96a9f5" style="fill: var(--color32, #96a9f5)" d="M24.676 6.499c1.062 1.741 1.527 3.782 1.325 5.812-0.307 3.139-2.311 6.254-5.438 7.671-2.504 1.136-4.212 0.87-6.665 0.445 0.023-0.026 0.045-0.054 0.064-0.082-4.728-1.488-7.188-5.61-6.984-9.764 0.138-2.791 1.659-5.096 3.881-6.686 3.933-2.814 10.266-2.603 13.366 1.835 0.1 0.144 0.279 0.45 0.45 0.77z"></path>
<path fill="#4543ab" style="fill: var(--color33, #4543ab)" d="M24.676 6.499c3.485 5.715 0.39 14.465-8.104 14.296-3.491-0.069-6.448-1.901-8.116-4.476-0.971-1.5-1.447-3.27-1.486-5.045 0.493 4.009 3.322 6.618 6.353 7.527 7.279 2.183 14.614-4.69 11.354-12.303z"></path>
<path fill="#b0c1f8" style="fill: var(--color34, #b0c1f8)" d="M14.343 7.86c0.138-0.024 0.252-0.105 0.362-0.159 0.783-0.388 1.982-0.602 2.709-0.023 0.856 0.682 0.799 1.862 0.444 2.741-0.222 0.55-0.355 0.801-0.673 1.243-0.668 0.93-1.984 2.029-3.258 2.16l-0.216 0.036c0.207 0.037 0.229 0.236 0.315 0.366 0.638 0.967 1.438 1.656 2.591 2.209 0.404 0.030 1.372-0.236 1.719-0.364 0.685-0.253 1.522-0.65 2.059-1.102 0.098-0.082 0.206-0.146 0.298-0.231s0.182-0.172 0.275-0.255c1.654-1.466 2.475-3.922 1.799-6.067-0.078-0.246-0.172-0.487-0.282-0.722-0.235-0.509-0.311-0.493-0.385-0.619-0.565-0.578-1.274-0.996-2.054-1.21-2.032-0.568-4.416 0.199-5.704 1.996l0.001-0z"></path>
<path fill="#96a9f5" style="fill: var(--color32, #96a9f5)" d="M6.36 26.354c0.313-0.121 1.309 0.084 1.9 0.564 0.398 0.323 0.773 1.015 1.348 0.518 2.505-2.169 3.886-6.456 3.984-7.087-0.134-0.114-1.392-1.601-1.619-1.721l-5.613 7.726z"></path>
<path fill="#fff" style="fill: var(--color35, #fff)" d="M14.343 7.86c-0.084 0.101-0.281 0.207-0.384 0.28-0.912 0.641-1.679 1.585-2.052 2.611-0.346 0.952-0.41 2.224 0.615 2.844 0.496 0.299 0.882 0.204 1.19 0.262l0.216-0.034c1.273-0.131 2.59-1.23 3.258-2.16 0.317-0.442 0.45-0.694 0.673-1.243 0.355-0.878 0.412-2.059-0.444-2.741-0.726-0.579-1.926-0.365-2.709 0.023-0.11 0.054-0.225 0.135-0.362 0.159l0-0.001z"></path>
<path fill="#fff" style="fill: var(--color35, #fff)" d="M19.291 9.666c0.549 0.523 1.397-0.818 0.904-1.21-0.611-0.487-1.467 0.674-0.904 1.21z"></path>
<path fill="#4543ab" style="fill: var(--color33, #4543ab)" d="M11.605 15.076c-0.017-0.069-0.373-0.761-0.525-1.261-0.473-1.565-0.134-3.151 0.627-4.501 1.462-2.588 5.609-4.431 8.757-3.313 0.616 0.219 1.117 0.616 1.637 1.072-0.667-1.47-3.003-2.575-4.692-2.751-2.341-0.244-4.227 0.62-5.438 1.571-2.219 1.74-3.226 4.58-1.94 7.289 0.174 0.366 0.427 0.724 0.681 1.042 0.126 0.157 0.767 0.83 0.894 0.852l-0.001-0z"></path>
<path fill="#4543ab" style="fill: var(--color33, #4543ab)" d="M13.032 21.468c-0.048 0.308-0.43 0.709-2.481 4.109-1.147 1.901-1.005 2.068-2.128 1.182-0.302-0.246-2.025-0.889-2.197-0.215-0.088 0.345 0.128 0.853 0.248 1.018 0.418 0.577 2.879 2.011 3.702 1.864 0.233-0.042 0.409-0.11 0.506-0.289 0.1-0.184 0.288-0.552 0.288-0.552s2.1-4.999 3.149-8.139c0.431-0.55-0.045-1.264-0.601-1.557-0.261-0.137-0.962-0.401-1.324-0.382-0.625 0.033-0.844 0.575-0.632 0.827 0.401 0.477 1.627 1.434 1.472 2.132l-0 0.002z"></path>
<path fill="#7e98e0" style="fill: var(--color36, #7e98e0)" d="M11.605 15.076c0.094 0.067 0.112 0.114 0.226 0.196 0.522 0.377 1.262 0.721 1.899 0.922 0.569 0.181 2.399 0.458 2.887 0.238-1.153-0.551-1.953-1.242-2.591-2.209-0.086-0.13-0.108-0.33-0.315-0.366-0.307-0.058-0.694 0.038-1.19-0.262-1.025-0.62-0.961-1.892-0.615-2.844 0.373-1.026 1.141-1.971 2.052-2.611 0.104-0.073 0.299-0.179 0.384-0.281 0.541-0.817 2.497-2.113 4.287-2.189-3.431-0.147-6.096 2.184-6.921 3.644-0.762 1.35-1.103 2.936-0.627 4.501 0.152 0.5 0.508 1.192 0.525 1.261l0.001 0z"></path>
</symbol>
<symbol id="flash" viewBox="0 0 32 32">
<path fill="#49a5fc" style="fill: var(--color29, #49a5fc)" d="M8.102 17.685l2.554 1.749c0.498 0.346 3.033 1.724 3.17 2.037l-0.359 2.291c-0.193 1.232-0.721 2.487-0.614 3.522 0.613-0.498 0.75-0.741 1.246-1.247 1.057-1.083 3.171-3.291 4.941-5.402 0.699-0.836 1.47-1.817 2.035-2.637 0.734-1.067 0.6-1.312-0.389-2.66-0.358-0.486-2.006-2.281-1.88-2.88 0.819-1.364 6.366-8.444 5.58-10.029-0.523-1.029-12.904 3.057-14.391 3.654-1.363 0.548-1.692 0.705-2.107 2.041-0.554 1.755-0.793 5.608-0.525 8 0.106 0.94 0.003 1.053 0.742 1.56l-0.002 0.001z"></path>
<path fill="#356efd" style="fill: var(--color30, #356efd)" d="M12.848 27.286c0.217 0.478 0.47 0.939 0.758 1.379 0.715 1.091 0.729 0.784 1.613-0.033 2.142-1.982 4.85-5.486 6.471-7.332 0.805-1.106 1.17-1.444 1.015-2.275-0.108-0.576-0.773-1.569-1.259-2.494l0.011 0.039c0.172 0.455 0.041 0.798-0.394 1.431-0.279 0.407-0.613 0.854-0.959 1.303-0.275 0.36-0.582 0.741-0.91 1.137l-0.012 0.014-0.153 0.183c-1.764 2.11-3.88 4.319-4.936 5.401-0.496 0.502-0.633 0.749-1.246 1.247l0.001-0zM12.368 22.321l1.213 0.687 0.243-1.534c-0.139-0.313-2.669-1.681-3.17-2.037l-2.549-1.751c-0.335-0.23-0.497-0.379-0.584-0.561 0.176 0.544 0.845 2.442 1.12 2.839 0.393 0.566 3.012 1.959 3.728 2.356l0 0.001zM19.934 14.431c0.437-0.88 4.161-6.579 4.942-7.724 0.479-0.703 0.454-1.317 0.156-2.41-0.162-0.58-0.276-1.428-0.638-1.816 0.648 1.681-4.791 8.626-5.602 9.977 0 0 0.003 0.011-0.003 0.020-0.016 0.126 0.053 0.331 0.166 0.56 0.285 0.492 0.612 0.959 0.979 1.394z"></path>
<path fill="#49a5fc" style="fill: var(--color29, #49a5fc)" d="M9.322 9.757c-0.469 2.365-1.054 5.35-1.055 5.369-0.036 1.113-0.634 1.245 4.138 4.234 2.829 1.772 2.61 1.266 1.796 4.269-0.142 0.524-0.282 1.341-0.508 1.672 0.318-0.073 3.146-3.552 5.018-6.002 1.376-1.806 2.219-2.006 0.912-3.761-0.499-0.669-1.144-1.406-1.563-2.015-0.607-0.885-0.359-0.833 0.176-1.73l2.286-3.766c0.463-0.782 0.981-1.583 1.471-2.402 1.369-2.304 1.498-2.666-0.352-2.184-2.436 0.629-7.197 1.854-9.891 2.801-2.262 0.794-1.987 1.29-2.426 3.516l-0.003-0.001z"></path>
<path fill="#c1e1ff" style="fill: var(--color31, #c1e1ff)" d="M11.701 6.632c-2.044 0.852-2.562 1.815-2.439 4.124 0.13 2.486 1.469-0.485 1.945-1.122 1.165-1.567 5.099-4.598 0.495-3.003z"></path>
<path fill="#c1e1ff" style="fill: var(--color31, #c1e1ff)" d="M9.548 12.78c-1.227 0.194-0.721 1.749 0.211 1.191 0.545-0.325 0.251-1.138-0.211-1.191z"></path>
</symbol>
</defs>
</svg>
